<svg width="300" height="80" viewBox="0 0 300 80" fill="none" xmlns="http://www.w3.org/2000/svg">
<path d="M58.9703 55.3883L56.1112 56.8977L37.9113 67.2523L33.6024 69.7357C33.4024 69.8518 33.1379 69.8518 32.9073 69.7309L14.1462 59.9665L6.20897 55.9559C6.38314 57.2992 9.69705 58.9102 10.8533 59.5037C10.0841 60.2971 9.27777 60.4342 9.052 61.6017C6.90078 60.4567 5.40106 59.7456 4.21901 57.496C3.03697 55.2464 3.0918 52.3469 4.66248 50.1731C5.53329 48.9685 7.21685 48.4605 8.5779 49.1523L17.4037 53.6451L33.9588 62.5854C34.1055 62.6644 34.3458 62.7563 34.5119 62.6692L61.6182 48.3105C61.6634 48.8588 61.6247 49.3088 61.5441 49.7942C59.5315 50.4086 58.6172 52.842 59.4541 54.682C59.8041 55.4528 60.4168 55.9076 61.286 56.0237L61.178 57.7524L33.2928 74.909C33.0573 75.0541 32.8009 75.1218 32.5526 74.9751L16.1846 65.3816C15.9056 65.2172 15.7347 64.9688 15.7072 64.7172C15.6734 64.4189 15.7879 64.1238 16.0072 63.9093C16.3249 63.5965 16.6603 63.1288 17.0941 63.024C17.5279 62.9192 17.852 63.3159 18.2116 63.5207L32.8622 71.8901C33.0041 71.9708 33.2395 71.9305 33.3831 71.8418L52.3586 60.1261L59.2703 55.8011L58.9736 55.3835L58.9703 55.3883ZM6.46215 52.0679L33.4798 66.5637L58.5317 51.5729C55.1549 53.1306 51.9764 54.9674 48.6916 56.6623L34.3926 64.327C34.2103 64.4254 33.9958 64.2883 33.8217 64.1948L13.5963 53.358L9.61158 51.3648C9.02782 51.0729 8.34568 50.9697 7.68129 51.1842L15.0041 55.0432L30.4465 63.4723L33.5798 65.2688C33.6475 65.3075 33.7314 65.5123 33.6798 65.5445L33.4895 65.6606L29.2628 63.4384L10.513 53.5531L6.90885 51.8212C6.72179 51.7309 6.39442 51.8776 6.46215 52.0679ZM6.24445 53.4806L13.8124 57.5943L33.1154 67.9005C33.346 68.0231 33.5363 67.9715 33.7427 67.8489L46.2033 60.46L58.2995 53.229C58.4624 53.1323 58.5849 53.0081 58.5398 52.8323L45.3067 60.2745L33.3685 67.0958L31.7205 66.275L18.6051 59.3731L7.16364 53.4919C6.71856 53.2629 6.3525 53.1 5.88484 52.9355C5.86549 53.208 5.98966 53.3451 6.24284 53.4838L6.24445 53.4806ZM5.96224 54.8078L7.74095 55.8124L26.9391 66.1541L32.788 69.2696C33.3379 69.5615 33.6072 69.3245 34.0765 69.0503L48.5867 60.5938L58.5285 54.611C58.5785 54.5804 58.6252 54.4465 58.6236 54.3965C58.6236 54.3594 58.5043 54.2659 58.4607 54.2853C58.1189 54.4465 57.5029 54.7223 57.082 54.961L40.7753 64.2367L33.5282 68.3698C33.4234 68.4295 33.1557 68.3698 33.0347 68.3069L25.4748 64.3657L7.53454 55.098L5.84452 54.3191C5.74293 54.4288 5.80582 54.7174 5.96386 54.8061L5.96224 54.8078Z" fill="#8C8C8C"/>
<path d="M32.8859 1.90127L11.7624 13.8894L11.1883 37.4432C11.2205 37.6593 11.2221 37.798 11.0722 37.9383L11.027 36.2854L10.6497 22.0025L10.5529 18.9562L1.64809 24.0892V60.0988L8.7613 64.2077V66.0993L0 61.0486V23.1458L10.5174 17.0792L10.4803 13.1379L32.8811 0L55.2738 13.1347L55.2238 17.113L65.6832 23.1458L65.6783 61.0422L32.8392 80L15.7133 70.1179L15.7278 68.2312L32.8392 78.1036L64.0286 60.0988L64.0351 24.0956L55.3722 19.0917C55.2867 19.0723 55.2125 19.0756 55.177 19.124L54.7239 36.4369L54.6674 38.0173C54.5578 37.54 54.5288 37.1304 54.5449 36.5885L53.9966 13.8814L32.8827 1.89966L32.8859 1.90127Z" fill="#8C8C8C"/>
<path d="M29.8337 50.5344C27.7389 50.2216 24.8652 49.4249 23.5542 47.793C22.685 46.7109 22.5802 45.3273 23.3171 44.1388C23.4284 43.9598 23.6026 43.6421 23.5655 43.4405C23.3816 42.3972 23.6316 41.4538 24.2847 40.6314C25.0346 39.6864 26.0295 39.0058 27.1551 38.5479C27.4615 38.4237 27.5905 38.2076 27.6954 37.9028C27.8292 37.5174 27.9179 37.1062 27.7325 36.7256C27.3857 36.0161 27.5696 35.3146 28.0953 34.7647C29.4515 33.3456 29.766 29.6511 29.766 27.7321C29.2757 27.516 28.8323 27.3467 28.4081 27.0822C27.2374 26.3517 26.8874 24.8665 27.6454 23.6989C28.0921 23.012 28.6791 22.446 29.287 21.8622C27.7647 20.2544 27.3954 18.0661 28.3533 16.1213C29.3112 14.1765 31.2512 13.0831 33.3685 13.1847C35.4859 13.2863 37.2694 14.5651 38.0177 16.5196C38.7659 18.4741 38.2676 20.4141 36.8437 21.8831C38.1322 22.8459 39.2674 24.065 38.8304 25.7018C38.6418 26.4065 38.108 26.9742 37.4404 27.2644L36.4018 27.716C36.4502 29.6495 36.784 33.2827 38.087 34.734C38.5837 35.2888 38.795 36.0306 38.4902 36.7288C38.1306 37.5513 38.4966 38.3753 39.3255 38.7027C41.1977 39.4413 43.1958 41.3586 42.6201 43.5792C42.7749 43.9856 42.9603 44.4436 43.1345 44.837C44.1649 47.164 41.8428 48.9363 39.9254 49.6297C36.7002 50.7956 33.2879 51.0521 29.8369 50.5376L29.8337 50.5344ZM31.7769 20.0012C31.4044 19.2046 31.1157 18.5305 31.2447 17.7242C31.4431 16.4777 32.3945 15.4585 33.6233 15.1715C34.1394 15.0505 34.6376 15.0924 35.215 15.0828C34.3958 14.4248 33.3298 14.291 32.3171 14.47C30.8125 14.7344 29.6756 15.7617 29.266 17.2308C28.7516 19.0724 29.7498 21.0656 31.6463 21.6058C30.6577 20.5382 29.6063 19.411 30.1256 17.7952C30.3675 18.7321 30.9061 19.5771 31.7785 20.0045L31.7769 20.0012ZM33.4427 23.3329C32.3348 23.1458 31.3689 22.9281 30.3949 22.4379C30.2852 22.5524 30.1852 22.6927 30.1223 22.8233C31.1786 23.3732 32.301 23.5651 33.4427 23.3329ZM30.0127 25.2551C32.5413 25.755 34.6796 25.8179 36.7598 24.3021C33.9571 25.1003 31.6995 25.3245 29.0838 23.8909C28.7839 24.1392 28.6113 24.5004 28.6436 24.881C28.7742 26.4275 32.8009 26.6355 33.9023 26.2872C32.4961 26.1808 31.1463 26.0018 30.0111 25.2535L30.0127 25.2551ZM31.8607 31.0267C31.5737 32.0668 31.5414 33.1005 31.1786 34.1841L31.1286 30.5767C31.1254 30.3252 31.0964 30.0639 31.0706 29.7995L30.5755 32.2974C30.3804 33.2827 30.0546 34.1825 29.6418 35.0985C30.3433 35.4775 31.0786 35.6645 31.8769 35.7742L31.8623 31.0267H31.8607ZM35.889 36.5692C36.426 36.3934 36.8759 36.1644 37.2291 35.7419C34.2248 36.6353 31.8301 36.753 28.9468 35.5903C28.6291 36.058 29.8321 36.5208 30.103 36.6095C31.9881 37.2288 33.9716 37.1981 35.8906 36.5692H35.889ZM34.3361 42.602C32.3558 42.6116 30.5642 42.2295 28.9403 41.4215C30.6368 41.6941 32.1833 41.9198 33.8362 41.6167C32.2026 41.486 30.6384 41.1522 29.1548 40.4943C30.6706 40.6701 32.5574 40.9378 33.9749 40.591C32.3236 40.4443 30.7642 40.1831 29.2918 39.4896C30.7916 39.5832 32.1897 39.9283 33.7265 39.6057C32.0333 39.5009 30.3916 39.1203 28.9113 38.2141C28.2033 39.767 26.9245 39.7912 25.4603 41.1006C24.8491 41.6473 24.8136 42.4552 25.3377 43.0696C25.9021 43.7292 26.6343 44.1146 27.4744 44.4113C31.6253 45.8772 36.2809 45.5369 40.0996 43.2132C38.4869 43.5712 37.0453 43.9485 35.423 44.0565C32.7106 44.2372 29.9998 43.8163 27.618 42.6536C29.9562 43.1261 32.201 43.2889 34.3345 42.6052L34.3361 42.602ZM28.5839 48.0848C27.5825 47.722 26.6327 47.385 25.8231 46.7399C29.1903 48.0074 32.7412 48.3461 36.247 47.6656C37.0453 47.5108 37.7806 47.2979 38.4563 46.9238C34.8957 47.6801 31.2995 47.6962 27.805 46.7174C26.494 46.3497 25.3539 45.7449 24.3411 44.779C23.938 45.4966 24.1879 46.3384 24.7991 46.8609C26.7875 48.567 30.5497 49.0218 33.0363 48.8895L32.4832 48.767C31.1512 48.6976 29.8917 48.4606 28.5823 48.0832L28.5839 48.0848Z" fill="#8C8C8C"/>
<path d="M13.4547 49.3074L9.60858 47.2852L22.7917 40.8605C22.5401 41.6588 22.2772 42.4135 22.4595 43.273C22.4304 43.4391 22.3708 43.5971 22.2176 43.6697L14.032 47.5287L33.9977 57.9236C34.2638 58.0864 34.4782 58.0816 34.754 57.9429L53.8925 48.2527L44.0072 43.9261C43.8378 43.8519 43.7782 43.5149 43.7556 43.3472C43.9507 42.3715 43.6572 41.5104 43.2718 40.6348L60.6686 48.2785L46.1761 55.9433L34.7459 61.9744C34.4621 62.1002 34.2622 62.0648 33.9961 61.9196L18.8263 53.6953L10.8777 49.3912L8.20078 48.1044C8.56522 47.7415 9.13286 47.6109 9.64245 47.8625L17.491 51.7182C16.209 50.7749 14.8576 50.0427 13.4579 49.3074H13.4547ZM58.0062 48.185L56.3678 47.3658L56.2985 49.1655L58.0078 48.185H58.0062ZM34.6476 60.686L36.7649 59.4604L32.6254 59.6039L34.6476 60.686Z" fill="#8C8C8C"/>
<path d="M30.6769 51.778C34.4085 52.1167 38.798 51.67 41.9813 49.8526L45.2582 51.3829L48.0689 50.0428L44.7792 48.5125L42.478 49.5526C43.1311 48.9108 43.7181 48.3464 44.1342 47.5885L44.7937 47.8594L47.5481 46.5499L44.3793 45.0921L44.1906 44.4035L52.9213 48.3754L34.5085 57.0722L14.7992 47.4627L22.0221 44.1746L21.8382 44.8599L19.6789 45.8549L21.8576 46.9337L22.3897 48.1013L19.8338 49.2881L22.8784 50.783L24.5571 50.0041C26.2423 50.9475 28.0613 51.3765 30.0496 51.7006L27.3727 52.973L30.5576 54.5211L33.4474 53.1471L30.6786 51.778H30.6769ZM41.0009 53.3713L37.7305 51.8087L34.8681 53.1552L38.1385 54.7436L41.0009 53.3729V53.3713Z" fill="#8C8C8C"/>
<path d="M14.4172 70.7214L12.1999 68.2671L10.039 70.6989L10.0164 62.7697C10.0148 62.173 10.2293 61.6699 10.6373 61.2651L11.7645 60.1492L15.8653 62.302L14.8929 63.2809C14.6043 63.5711 14.4301 63.9549 14.4301 64.3887L14.4188 70.7214H14.4172Z" fill="#8C8C8C"/>
<path d="M272.521 13.6852C272.139 14.0475 271.603 14.1444 271.051 14.9952C270.674 15.5744 270.393 16.181 270.118 16.8234L268.458 21.3052L272.332 30.7365L277.486 16.5369C277.692 15.9725 277.748 15.4165 277.782 14.8457C277.729 14.3339 277.348 13.938 276.947 13.82C276.805 13.7779 276.782 13.3356 276.926 13.3356H280.298C280.327 13.4535 280.386 13.7042 280.319 13.7463L279.954 13.9717C279.199 14.4371 278.597 15.2311 278.27 16.1347L271.567 34.6181C271.177 34.6602 270.875 34.6687 270.439 34.6666L266.443 24.8772L262.494 34.6266C262.092 34.6771 261.744 34.6771 261.293 34.6371L254.269 16.2042C253.931 15.3196 253.403 14.5424 252.707 14.0011C252.472 13.8179 252.239 13.6726 252.407 13.3335L257.814 13.3398C258.102 14.2328 256.951 13.4451 257.368 15.1911L263.344 30.7786L266.13 24.0453L262.962 16.2484C262.511 15.3575 262.062 14.5635 261.282 13.9674C261.012 13.9043 260.838 13.622 260.993 13.3398L266.394 13.3356C266.554 13.6094 266.392 13.8979 266.061 13.9632C265.841 14.2518 265.814 14.7278 265.971 15.1153L268.17 20.4986L269.655 16.5475C269.841 16.0504 269.911 15.486 269.965 14.9636C269.911 14.4413 269.646 13.978 269.162 13.86C269.013 13.8242 268.923 13.3525 269.087 13.3525L272.366 13.3335C272.462 13.3335 272.582 13.6326 272.519 13.6915L272.521 13.6852Z" fill="#8C8C8C"/>
<path d="M155.848 13.6894C155.332 14.1359 155.129 14.0537 154.441 14.8687C154.062 15.5068 153.737 16.1344 153.445 16.8251L151.787 21.3065L155.661 30.7369L160.815 16.5387C161.021 15.9743 161.077 15.4184 161.109 14.8477C161.058 14.3359 160.721 13.9526 160.257 13.8179C160.134 13.7821 160.111 13.3398 160.236 13.3398H163.627C163.66 13.4599 163.719 13.7084 163.652 13.7484L163.287 13.9758C162.532 14.4454 161.931 15.233 161.603 16.1365L154.9 34.6181C154.51 34.6602 154.208 34.6687 153.772 34.6666L149.776 24.8782L145.828 34.6266C145.425 34.6771 145.077 34.6771 144.626 34.6371L137.602 16.206C137.265 15.3215 136.736 14.5444 136.04 14.0032C135.807 13.8221 135.571 13.6726 135.74 13.3356L141.146 13.3419C141.433 14.2348 140.282 13.4472 140.699 15.193L146.675 30.779L149.461 24.0464L146.293 16.2502C145.842 15.3594 145.392 14.5676 144.614 13.9674C144.347 13.9295 144.152 13.5925 144.339 13.344L149.635 13.3356C149.774 13.3356 149.832 13.681 149.755 13.7378L149.403 13.999C149.143 14.1927 149.155 14.7613 149.298 15.113L151.497 20.4979L152.98 16.5471C153.166 16.0501 153.235 15.4858 153.29 14.9635C153.233 14.4412 152.967 13.9758 152.487 13.86C152.338 13.8242 152.248 13.3525 152.407 13.3525L155.663 13.3335C155.787 13.3335 155.909 13.6346 155.844 13.6915L155.848 13.6894Z" fill="#8C8C8C"/>
<path d="M130.349 33.9857C124.658 37.06 117.073 34.7521 114.987 28.3176C113.116 22.5416 115.415 16.0223 121.242 13.9749C127.098 11.9168 133.888 14.9213 135.342 21.413C136.437 26.2977 134.928 31.5105 130.349 33.9857ZM132.019 31.1442C132.441 30.1512 132.667 29.1031 132.672 27.9831C132.686 23.704 131.119 18.5271 127.79 15.7682C126.077 14.3496 123.931 13.8034 121.798 14.3602C118.792 15.1458 117.487 18.0931 117.448 21.0912C117.392 25.4211 119.159 30.4159 122.669 32.9948C125.704 35.2243 130.433 34.877 132.019 31.1442Z" fill="#8C8C8C"/>
<path d="M228.335 34.1257L228.594 34.3005C228.66 34.3447 228.551 34.6669 228.475 34.6669H223.228C223.129 34.6669 222.987 34.4331 223.022 34.3826C223.327 33.9488 224.234 34.0225 224.234 31.4977V16.57C224.234 15.5972 224.098 14.0958 223.081 13.7989L223.071 13.3335L229.881 13.3546C233.726 13.3651 237.933 15.1023 237.671 19.6718C237.537 21.9966 236.347 24.0033 234.303 25.0983C232.084 26.3007 229.931 26.3218 227.411 26.3007V31.5082C227.413 32.5148 227.526 33.5803 228.337 34.1257H228.335ZM233.986 22.3103C234.866 19.099 233.872 15.1613 230.469 14.1442C229.469 13.8452 228.454 13.7694 227.409 13.9126V25.7722C230.152 26.0059 233.128 25.4395 233.986 22.3103Z" fill="#8C8C8C"/>
<path d="M189.891 35.1206L175.859 17.0459L175.83 30.0971C175.83 31.022 175.964 31.8996 176.204 32.7408C176.632 34.2472 177.8 34.4339 178.119 34.7043C178.188 34.7622 178.064 35.0777 177.938 35.0777H174.206C174.129 35.0755 173.986 34.8352 174.021 34.7858C174.351 34.3352 175.259 34.3996 175.259 31.846V16.7369C175.259 15.4751 175.04 14.1682 173.793 13.8228C173.664 13.7863 173.637 13.3442 173.776 13.3442L177.113 13.3356L189.851 29.6164L189.866 18.3806C189.866 17.4364 189.71 16.5566 189.498 15.6832C189.177 14.7412 188.553 14.0674 187.591 13.812L187.597 13.3335L191.594 13.3399C191.737 13.3399 191.693 13.7713 191.573 13.827C190.552 14.2863 190.466 15.5974 190.466 16.7433L190.46 35.2493C190.46 35.4146 189.929 35.318 189.893 35.1206H189.891Z" fill="#8C8C8C"/>
<path d="M297.891 35.1337L283.86 17.0463L283.831 30.1067C283.831 31.0322 283.965 31.9105 284.205 32.7522C284.631 34.2618 285.818 34.4573 286.118 34.7171C286.187 34.7772 286.061 35.0907 285.938 35.0907H282.218C282.127 35.0886 281.987 34.8481 282.022 34.7987C282.358 34.3456 283.259 34.4057 283.259 31.8568V16.7371C283.259 15.4723 283.043 14.1667 281.787 13.8209C281.665 13.7866 281.64 13.3421 281.77 13.3421L285.114 13.3335L297.854 29.6257L297.868 18.382C297.868 17.435 297.717 16.5589 297.496 15.6827C297.219 14.7744 296.553 14.0915 295.673 13.8338C295.549 13.7973 295.53 13.3356 295.652 13.3356H299.61C299.733 13.3378 299.687 13.7737 299.576 13.8231C298.553 14.2891 298.465 15.5861 298.465 16.7414L298.461 35.3012C298.225 35.372 298.043 35.3312 297.889 35.1315L297.891 35.1337Z" fill="#8C8C8C"/>
<path d="M94.5269 32.3508L94.5311 28.7901C94.5353 25.1955 92.4874 26.4149 93.077 25.4267L97.6828 25.4309V31.0847C95.8321 33.4408 93.1882 34.8384 90.2569 35.2753C85.0719 35.7376 79.9604 33.4557 78.2902 28.1921C76.5989 22.8585 78.4727 17.1983 83.4961 14.6343C86.6939 13.0014 90.3702 13.0502 93.7631 13.9854C94.4556 14.1763 95.0389 14.4456 95.6999 14.8273L95.8237 18.7591C95.8258 18.8546 95.6013 19.0221 95.553 18.9839C95.49 18.9352 95.3935 18.8355 95.339 18.7125C93.7946 15.3215 90.1226 13.3874 86.4799 14.0702C83.131 14.698 81.3264 17.4655 80.9823 20.7378C80.6382 24.01 81.3138 27.1338 82.9128 29.9035C84.7446 33.0803 88.0096 35.2837 91.6816 34.3994C92.8881 34.1089 93.8324 33.4536 94.529 32.3487L94.5269 32.3508Z" fill="#8C8C8C"/>
<path d="M211.195 32.3289L211.202 28.8817C211.208 25.1825 209.252 26.4551 209.701 25.4281H214.35L214.341 31.0986C212.19 33.7687 208.985 35.2954 205.596 35.3335C203.77 35.2827 202.095 35.0011 200.452 34.2854C196.128 32.4051 194.103 28.1363 194.374 23.5033C194.596 19.7216 196.752 16.4162 200.085 14.6905C203.417 12.9648 207.027 13.0559 210.452 14.0129C211.149 14.2077 211.756 14.4618 212.371 14.8726L212.482 18.7327C212.484 18.8323 212.293 19.0016 212.232 18.9868C212.159 18.9699 212.079 18.8915 212.02 18.7624C210.465 15.3215 206.717 13.365 203.031 14.1103C199.346 14.8557 197.822 17.8519 197.589 21.2716C197.293 25.5869 198.947 30.7217 202.584 33.2457C205.153 35.0286 209.353 35.3166 211.191 32.331L211.195 32.3289Z" fill="#8C8C8C"/>
<path d="M238.062 31.3848C237.751 32.2636 237.196 33.8776 238.434 34.1858C238.558 34.217 238.635 34.6585 238.471 34.6585L235.2 34.6669C235.086 34.6669 234.969 34.3441 235.036 34.3024L235.395 34.0817C236.219 33.5777 236.877 32.7968 237.267 31.8367L243.325 16.9883C243.519 16.5135 243.422 15.9866 243.237 15.5722L242.825 14.6559L245.805 13.3335L253.605 31.7138C253.998 32.6427 254.576 33.4528 255.328 34.0192L255.651 34.2629C255.725 34.3191 255.658 34.6023 255.574 34.6669L250.201 34.6606C250.031 34.4232 250.236 34.1025 250.52 34.065C250.776 33.7422 250.728 33.3278 250.608 32.9071L248.045 26.8116L239.944 26.8074L238.062 31.3827V31.3848ZM247.812 26.2951L243.914 17.0654L240.129 26.3118L247.812 26.2951Z" fill="#8C8C8C"/>
<path d="M110.155 34.0478C113.708 33.8267 114.277 30.9671 114.741 30.7607C114.816 30.727 115.025 30.9102 115.016 31.0218L114.753 34.6669H100.525C100.335 34.6669 100.364 34.2626 100.464 34.2162C101.448 33.7635 101.58 32.6095 101.58 31.4956V16.4732C101.58 15.8857 101.492 15.3571 101.365 14.8223C101.21 14.18 100.744 14.0115 100.366 13.6788C100.312 13.6304 100.402 13.3377 100.527 13.3377L105.838 13.3335C106.068 13.3335 106.047 13.7294 105.922 13.7947C104.931 14.3127 104.81 15.3761 104.81 16.5742L104.814 32.8117C104.814 33.4834 105.376 34.0646 105.999 34.0857C107.403 34.1341 108.763 34.1383 110.159 34.052L110.155 34.0478Z" fill="#8C8C8C"/>
<path d="M170.975 34.6648L165.776 34.6584C165.657 34.6584 165.671 34.2562 165.764 34.2119C166.692 33.7591 166.819 32.607 166.819 31.4929V16.4675C166.819 15.5197 166.696 14.2181 165.82 13.8516C165.699 13.8011 165.621 13.3398 165.746 13.3398L170.933 13.3335C171.054 13.3335 171.032 13.7589 170.933 13.8053C170 14.2244 169.886 15.5007 169.886 16.5686V31.4929C169.886 34.6458 171.217 33.7107 170.973 34.6669L170.975 34.6648Z" fill="#8C8C8C"/>
<path d="M160.958 60.1887C161.034 60.2439 161.047 60.535 160.993 60.6603L155.203 60.6667C155.078 60.6667 154.983 60.3948 155.03 60.2843C155.138 60.0293 156.151 60.3183 156.661 60.0782V44.5779C155.96 44.3527 155.706 44.5906 155.06 44.4291C154.964 44.4058 155.037 44 155.175 44L161.912 44.0149C163.749 44.0191 165.449 44.9284 166.348 46.4772C167.241 48.0111 167.233 50.0123 166.359 51.5505C165.505 53.0567 163.861 53.9958 162.138 54.017L158.876 54.0595L158.906 60.1547L160.958 60.1844V60.1887ZM164.081 51.7884C165.118 50.0739 165.085 47.9494 164.096 46.2753C163.538 45.3321 162.617 44.7499 161.516 44.7478L158.882 44.7436L158.878 53.2798H161.716C162.71 53.2841 163.551 52.6637 164.081 51.7884Z" fill="#8C8C8C"/>
<path d="M293.433 61.0052C291.419 61.8925 289.268 60.9047 288.386 58.9543C287.579 57.1693 287.511 55.1519 287.958 53.235C288.403 51.8078 289.27 50.6003 290.631 49.939C292.189 49.1815 293.939 49.2861 295.512 50.0939V44.699C295.091 44.632 294.722 44.6111 294.282 44.5943C294.174 44.6027 293.933 44.6257 293.933 44.5462V44.18C293.933 44.067 296.917 44.1507 297.436 44L297.44 60.4318C297.77 60.6327 299.004 60.4422 299.008 60.5866L299.017 60.9382C299.019 61.0449 295.899 61.0094 295.522 61.1287L295.491 59.0778C294.845 59.8563 294.36 60.5992 293.433 61.0073V61.0052ZM290.792 59.4566C291.503 60.4025 292.691 60.5636 293.683 59.9819C294.479 59.5152 295.036 58.7807 295.512 57.9582V50.9624C293.943 50.05 292.043 49.7842 290.813 51.3391C289.545 52.9232 289.537 55.6646 289.926 57.5418C290.07 58.2303 290.354 58.8748 290.792 59.4566Z" fill="#8C8C8C"/>
<path d="M226.574 58.5538C225.892 59.9132 224.677 60.7861 223.259 61.1281C219.724 61.9841 217.84 59.8707 217.143 60.1128C216.891 60.1999 216.975 60.5652 216.79 60.9752C216.746 61.0729 216.354 60.9603 216.35 60.8456L216.354 56.6423C216.476 56.5913 216.732 56.5233 216.778 56.5934C217.013 56.9524 216.944 59.104 219.239 60.1022C220.326 60.5737 221.53 60.6778 222.69 60.3507C223.949 59.9981 224.755 58.8533 224.868 57.6257C224.988 56.3194 224.314 55.0939 223.097 54.5268L219.031 52.628C217.412 51.8718 216.49 50.2087 216.604 48.4076C216.698 46.9187 217.416 45.4956 218.7 44.731C220.611 43.5926 222.911 43.8368 224.692 45.0963C224.82 45.1877 225.118 45.2493 225.246 45.2259C225.393 45.1983 225.496 44.8563 225.51 44.6843L225.55 44.2319C225.559 44.1257 225.894 44.1618 226.029 44.2213V48.6221C225.999 48.7262 225.615 48.7602 225.563 48.6986C225.321 46.1902 223.731 44.6036 221.192 44.8011C219.883 44.903 218.7 45.7314 218.444 47.0929C218.158 48.6051 218.977 50.1259 220.368 50.7631L224.136 52.4856C226.415 53.5264 227.768 56.158 226.572 58.5496L226.574 58.5538Z" fill="#8C8C8C"/>
<path d="M125.793 55.6675L125.787 60.1202C126.157 60.1694 126.524 60.196 126.871 60.2083C127.007 60.2124 127.009 60.6587 126.865 60.6587L122.531 60.6668C122.405 60.6668 122.319 60.3905 122.36 60.3004C122.471 60.0568 123.422 60.3229 123.923 60.112L123.929 50.5166C123.929 50.271 123.738 50.1195 123.529 50.1195H122.383L122.379 49.7203C122.379 49.5933 125.313 49.6711 125.769 49.5401L125.787 52.6949C126.395 50.9036 127.253 49.4419 129.419 49.3374C130.871 49.2678 132.154 50.1236 132.561 51.528C132.713 52.0521 132.779 52.613 132.779 53.1719L132.783 60.112C133.557 60.3045 133.53 60.1059 134.308 60.2431C134.405 60.2594 134.317 60.6648 134.216 60.6648L129.82 60.6566C129.695 60.6566 129.713 60.2226 129.844 60.2124L130.918 60.1325L130.906 52.396C130.906 51.6119 130.438 50.8933 129.875 50.6006C129.148 50.2239 128.307 50.2505 127.645 50.7316C126.292 51.7163 125.795 54.0154 125.793 55.6634V55.6675Z" fill="#8C8C8C"/>
<path d="M239.339 60.4063C239.862 60.6872 241.053 60.284 241.016 60.7194C241 60.8995 240.877 61.0003 240.695 61.0003C239.552 60.996 238.518 61.0282 237.401 61.1247L237.364 57.8541C236.707 59.7629 235.766 61.2448 233.498 61.3306C231.284 61.4142 229.991 59.6878 229.989 57.5839L229.981 50.0584C229.614 49.8504 228.348 50.0584 228.35 49.8975V49.5372C228.354 49.4021 231.431 49.4943 231.936 49.3442L231.956 58.0686C231.956 58.9286 232.457 59.7071 233.071 60.0181C233.869 60.4234 234.781 60.3526 235.458 59.8251C237.884 57.9335 237.323 52.8636 237.379 50.0541C237.026 49.8504 235.753 50.0713 235.753 49.8718V49.5437C235.753 49.3764 238.639 49.5201 239.329 49.3335L239.339 60.4063Z" fill="#8C8C8C"/>
<path d="M106.17 58.1596C105.529 60.0523 104.373 61.4428 102.266 61.3268C100.863 61.2508 99.8475 60.2401 99.7036 58.858C99.6126 57.9992 99.8158 57.2143 100.376 56.5581C101.811 54.8764 104.028 54.8574 106.14 55.1169C106.18 53.4437 106.631 50.017 104.236 49.979C103.324 49.9642 102.566 50.5445 102.397 51.5256C102.298 52.0932 102.416 52.7094 102.528 53.3171C102.217 53.7032 100.863 54.0303 100.63 53.1905C100.224 51.7345 100.986 50.2786 102.412 49.6984C103.413 49.2911 104.528 49.2384 105.592 49.4726C107.433 49.8777 108.091 51.667 108.095 53.3508L108.116 59.5712C108.116 59.7738 108.309 60.1219 108.417 60.2612C108.525 60.4004 108.92 60.487 109.092 60.4173C110.224 59.9531 109.583 58.5921 109.826 58.4698C109.906 58.4297 110.181 58.3748 110.211 58.4592C110.581 59.4826 110.224 60.9047 108.954 61.2466C107.852 61.5441 106.809 61.0609 106.43 59.951C106.233 59.3708 106.187 58.7272 106.17 58.1575V58.1596ZM105.467 58.4276C105.893 57.5203 106.07 56.5834 106.119 55.5748C105.245 55.5326 104.494 55.5537 103.701 55.7457C102.241 56.0981 101.244 57.4802 101.54 58.9551C101.648 59.4889 102.029 59.9679 102.38 60.1409C103.667 60.7781 104.898 59.6408 105.467 58.4276Z" fill="#8C8C8C"/>
<path d="M180.837 58.1596C180.194 60.0523 179.041 61.4428 176.933 61.3268C175.53 61.2508 174.515 60.2401 174.371 58.858C174.28 57.9992 174.483 57.2143 175.044 56.5581C176.478 54.8764 178.698 54.8574 180.807 55.1169C180.848 53.4437 181.298 50.017 178.903 49.979C177.991 49.9642 177.236 50.5445 177.062 51.5256C176.963 52.0932 177.085 52.7115 177.193 53.3171C176.889 53.7011 175.53 54.0324 175.298 53.1905C174.891 51.7345 175.653 50.2786 177.079 49.6984C178.08 49.2911 179.195 49.2384 180.259 49.4726C182.1 49.8777 182.758 51.667 182.765 53.3508L182.784 59.5712C182.784 59.7738 182.976 60.1219 183.084 60.2612C183.192 60.4004 183.588 60.487 183.759 60.4173C184.891 59.9531 184.25 58.59 184.493 58.4698C184.574 58.4297 184.849 58.3748 184.878 58.4592C185.249 59.4826 184.889 60.9047 183.622 61.2466C182.519 61.5441 181.476 61.0609 181.097 59.951C180.9 59.3708 180.854 58.7272 180.837 58.1575V58.1596ZM180.135 58.4276C180.56 57.5203 180.738 56.5834 180.786 55.5748C179.912 55.5326 179.161 55.5537 178.368 55.7457C176.908 56.0981 175.911 57.4802 176.207 58.9551C176.315 59.4889 176.694 59.9679 177.047 60.143C178.334 60.7803 179.565 59.6408 180.132 58.4276H180.135Z" fill="#8C8C8C"/>
<path d="M87.4733 56.1598C87.4646 57.7349 87.4974 59.1525 87.6833 60.6667C86.7036 60.5554 85.8092 60.4777 84.812 60.4777L76.4278 60.4714L76.3513 60.1038C76.301 59.8686 77.6503 60.1101 78.0133 59.9001L78.0089 44.5187L76.465 44.4599C76.336 44.4557 76.3273 44.0042 76.4563 44.0042L81.8577 44C81.8773 44.1449 81.8992 44.4011 81.8926 44.4473L80.27 44.5418V59.7363H85.7742C86.076 59.7363 86.3537 59.5053 86.4237 59.2512L86.8436 56.1157L87.4755 56.1577L87.4733 56.1598Z" fill="#8C8C8C"/>
<path d="M277.709 55.168C277.637 57.3619 278.305 60.6888 281.095 60.6888C282.8 60.6888 284.128 59.5665 284.518 57.9463C284.569 57.8324 285.037 57.902 285.016 58.0476C284.725 59.8808 283.165 61.2162 281.308 61.3238C278.86 61.4672 276.72 60.02 276.018 57.6425C275.565 56.1088 275.565 54.4359 276.062 52.9149C276.834 50.5501 279.05 49.1261 281.495 49.3581C284.502 49.6429 285.183 52.6618 284.856 55.1637H277.713L277.709 55.168ZM282.99 54.611C283.135 53.5372 283.127 52.6786 282.954 51.7483C282.781 51.2357 282.539 50.7821 282.159 50.4214C280.996 49.6387 279.575 49.9277 278.776 51.0838C278.065 52.1112 277.734 53.32 277.749 54.6152L282.99 54.611Z" fill="#8C8C8C"/>
<path d="M270.074 60.6771C272.779 60.3964 273.003 58.1193 273.315 57.8682C273.387 57.8112 273.701 57.9568 273.682 58.0856C273.419 59.8182 271.855 61.2131 270.032 61.3229C267.608 61.4685 265.475 60.1115 264.726 57.7627C264.23 56.2095 264.222 54.5191 264.717 52.9553C265.58 50.235 268.41 48.7071 271.127 49.5787C273.383 50.3026 273.794 53.1072 273.535 55.1606L266.397 55.1648C266.249 57.3596 267.076 60.9894 270.072 60.6771H270.074ZM271.669 54.6098C271.849 53.3119 271.874 51.3662 270.954 50.5537C269.859 49.585 268.294 49.8805 267.473 51.0454C266.73 52.0985 266.388 53.352 266.429 54.6161L271.669 54.6119V54.6098Z" fill="#8C8C8C"/>
<path d="M94.0746 60.6771C96.7794 60.3964 97.0031 58.1193 97.3153 57.8682C97.3871 57.8112 97.7014 57.9568 97.6825 58.0856C97.4187 59.8182 95.8553 61.2131 94.0324 61.3229C91.6081 61.4685 89.4772 60.1115 88.7261 57.7627C88.2302 56.2095 88.2218 54.5191 88.7176 52.9553C89.5806 50.235 92.4099 48.7071 95.1274 49.5787C97.3829 50.3026 97.7943 53.1072 97.5348 55.1606L90.3971 55.1648C90.2494 57.3596 91.0765 60.9894 94.0725 60.6771H94.0746ZM95.6696 54.6077C95.849 53.3098 95.8743 51.3641 94.9544 50.5516C93.8594 49.5829 92.2939 49.8784 91.4731 51.0433C90.7304 52.0964 90.3886 53.3499 90.4287 54.614L95.6696 54.6098V54.6077Z" fill="#8C8C8C"/>
<path d="M196.339 49.6938C196.192 50.0014 195.614 49.7001 195.09 49.9087L189.947 63.5457C189.641 64.3548 188.775 66.9149 187.728 66.6473C187.073 66.4809 186.68 65.8551 186.566 65.2166C188.118 64.5487 189.272 63.3919 189.824 61.8348L190.272 60.5705L186.283 49.9677C185.865 49.698 185.72 49.9319 185.064 49.7781C184.953 49.7528 185.051 49.3398 185.191 49.3398H189.508L189.537 49.8076L188.223 49.8539L191.243 58.0652L194.283 49.8834C193.913 49.8497 193.486 49.8329 193.102 49.8266C192.961 49.8244 192.915 49.3567 193.061 49.3567L196.16 49.3335C196.275 49.3335 196.381 49.6095 196.341 49.6917L196.339 49.6938Z" fill="#8C8C8C"/>
<path d="M168.002 60.6667C167.703 60.6667 167.641 60.4249 167.707 60.2999C167.852 60.0335 168.839 60.3409 169.365 60.0888V44.6967C169.026 44.498 167.723 44.6927 167.721 44.5492V44.1762C167.721 44.0697 170.754 44.1639 171.354 44L171.358 60.0642C171.754 60.2036 172.123 60.1892 172.56 60.2056L172.974 60.22C173.066 60.2241 173 60.6503 172.87 60.6503L168 60.6667H168.002Z" fill="#8C8C8C"/>
<path d="M117.749 60.2102C117.831 60.2511 117.842 60.5419 117.798 60.6587L112.668 60.6668C112.504 60.6668 112.354 60.5501 112.35 60.3986C112.342 59.9624 113.414 60.3842 113.926 60.0812L113.932 50.5197C113.932 50.3068 113.771 50.1204 113.58 50.1184L112.469 50.1081C112.346 50.1081 112.348 49.6555 112.465 49.6555C113.578 49.6474 114.693 49.6228 115.759 49.5409L115.806 52.3423C116.208 51.4003 116.452 50.5648 117.204 49.93C118.01 49.2501 119.182 49.0842 120.01 49.7866C121.109 50.7184 121.324 52.9116 120.576 53.4052C120.096 53.7226 119.311 53.614 118.983 53.1942C119.201 52.4529 119.453 51.6686 119.137 50.917C118.858 50.2576 117.95 50.1655 117.403 50.6385C116.105 51.7648 115.779 54.2653 115.781 55.9199L115.79 60.1631L117.747 60.2122L117.749 60.2102Z" fill="#8C8C8C"/>
<path d="M245.494 51.1332C244.226 52.8503 244.171 55.5379 244.593 57.5524C244.77 58.3963 245.141 59.1705 245.686 59.7991C246.23 60.4277 246.949 60.6851 247.761 60.6851C249.465 60.6851 250.8 59.5523 251.18 57.9448C251.252 57.833 251.707 57.8963 251.682 58.0524C251.395 59.8666 249.828 61.2209 247.974 61.3243C245.487 61.4656 243.34 59.9742 242.657 57.5651C242.262 56.177 242.252 54.7088 242.604 53.2891C243.342 50.3147 246.196 48.7853 249.195 49.5131C250.585 49.8506 251.404 51.0593 251.296 52.4875C251.26 52.96 251.22 53.595 250.796 53.8692C250.269 54.211 249.524 53.9768 249.069 53.6055C249.394 52.7744 249.548 51.9601 249.303 51.1458C249.084 50.4202 248.506 49.9771 247.753 49.975C246.846 49.975 246.042 50.3927 245.496 51.1289L245.494 51.1332Z" fill="#8C8C8C"/>
<path d="M257.056 50.8891C255.532 52.5799 255.496 55.6053 255.972 57.6988C256.156 58.5041 256.533 59.2357 257.06 59.8302C257.639 60.488 258.418 60.7263 259.273 60.6799C262.069 60.5323 262.387 58.0825 262.67 57.8696C263.599 57.1759 262.725 61.2006 259.275 61.3292C256.88 61.4199 254.802 60.0664 254.058 57.7599C253.582 56.2862 253.565 54.6903 253.977 53.1744C254.783 50.206 257.747 48.7449 260.679 49.5545C262.012 49.9235 262.759 51.1189 262.66 52.4871C262.626 52.9509 262.598 53.5708 262.184 53.8554C261.655 54.218 260.866 53.9861 260.432 53.5982C260.978 52.4703 260.98 50.4442 259.664 50.0774C258.703 49.8096 257.718 50.1533 257.058 50.8869L257.056 50.8891Z" fill="#8C8C8C"/>
<path d="M144.236 51.4107C145.177 51.0953 146.057 51.783 146.293 52.808C146.529 53.833 146.01 54.9653 145.111 55.2631C144.266 55.5435 143.374 54.9631 143.097 53.9359C142.819 52.9087 143.274 51.7348 144.238 51.4107H144.236Z" fill="#8C8C8C"/>
<path d="M205.15 51.4107C206.277 51.0953 207.333 51.783 207.615 52.808C207.898 53.833 207.276 54.9653 206.199 55.2631C205.185 55.5435 204.116 54.9631 203.781 53.9359C203.446 52.9087 203.993 51.7348 205.15 51.4107Z" fill="#8C8C8C"/>
</svg>
