<svg width="257" height="80" viewBox="0 0 257 80" fill="none" xmlns="http://www.w3.org/2000/svg">
<path d="M35.3815 79.9986H28.6254C17.5793 78.1948 7.38437 73.6209 0 64.2908C7.00603 55.8795 16.3632 50.5759 27.5715 49.0356C20.5789 40.0432 17.9373 29.7132 18.8494 18.8359C29.6388 17.8698 39.9891 20.4304 49.1908 27.4499C50.738 16.5051 55.8861 7.10739 64.5271 0C74.4517 8.08026 80.1066 19.6534 80.066 32.2602C80.0255 44.8671 74.6477 55.9267 64.5136 64.1894C65.4121 50.3192 60.6626 36.6449 49.4408 28.085C47.9883 39.2933 51.8392 48.6842 57.8116 57.6766C48.6436 51.3326 38.6109 47.8262 28.0984 49.3463C36.9962 60.3993 50.2651 65.2366 64.2974 64.284C56.8792 73.8168 46.4817 78.3096 35.3815 79.9986Z" fill="#8C8C8C"/>
<path d="M118.011 79.9999H114.54L107.875 70.0963H97.0927L96.8241 79.9999H94.0723C93.4914 69.8422 93.6802 59.8079 93.7383 49.1492L107.534 49.2436C112.899 49.2799 117.038 53.1716 117.684 57.7749C118.417 62.9736 116.101 67.3372 111.033 69.4138C113.698 73.2329 116.058 76.5002 118.011 79.9999ZM107.933 66.9669C112.471 66.6402 114.831 62.5597 114.46 58.6897C114.097 54.9577 111.033 52.1406 106.8 52.0825L97.0129 51.9591L96.9548 67.1485C100.89 67.192 104.324 67.2211 107.926 66.9669H107.933Z" fill="#8C8C8C"/>
<path d="M164.545 79.9991H158.903C152.877 77.9152 149.189 72.7964 150.031 66.545C150.873 60.2935 155.919 56.38 162.084 56.5179C168.248 56.6559 172.982 60.8961 173.505 67.1912C174.027 73.4862 170.412 78.0096 164.545 79.9991ZM170.223 67.3872C169.787 61.8909 165.518 58.8631 160.646 59.3859C156.311 59.8506 153.109 63.5318 153.182 68.3892C153.262 73.675 157.161 77.3344 162.091 77.1601C166.955 76.9859 170.673 73.0288 170.23 67.3799L170.223 67.3872Z" fill="#8C8C8C"/>
<path d="M136.954 79.9994H131.313C125.301 77.8648 121.671 72.7387 122.52 66.5163C123.37 60.2939 128.474 56.3876 134.508 56.5183C140.759 56.6563 145.449 60.9619 145.972 67.2061C146.48 73.2978 142.828 78.0681 136.954 79.9994ZM142.712 67.2932C142.269 61.8404 137.826 58.9579 133.455 59.3573C128.663 59.7929 125.621 63.5757 125.679 68.3968C125.737 73.6536 129.657 77.3565 134.529 77.1823C139.401 77.008 143.184 73.0437 142.719 67.3005L142.712 67.2932Z" fill="#8C8C8C"/>
<path d="M207.361 79.9989H200.304L196.463 78.387C195.882 78.1402 194.931 77.2689 194.677 76.7606C194.423 76.2524 195.889 74.8583 196.485 75.1633C203.027 78.525 210.723 77.5158 210.229 73.2465C210.135 72.4478 208.763 70.8432 207.855 70.6326L199.745 68.7521C197.203 68.164 195.301 65.797 195.229 63.597C195.149 61.034 196.427 58.7977 199.069 57.5198C202.591 55.8135 208.617 56.6485 211.616 58.0861C212.248 58.3911 212.211 60.4967 211.645 60.5911C208.864 61.0557 207.55 58.0934 200.943 59.727C199.65 60.0465 198.256 62.3845 198.51 63.5534C198.721 64.5264 200.355 66.0148 201.335 66.2254L208.704 67.8518C211.405 68.4471 213.351 70.5818 213.431 73.0359C213.518 75.7369 211.914 77.7989 209.467 78.9752L207.383 79.9771L207.361 79.9989Z" fill="#8C8C8C"/>
<path d="M189.246 79.9985H184.338C181.782 78.3793 180.265 76.0849 180.279 72.8176L180.337 59.712L176.707 59.1965C176.228 59.1312 175.959 57.1563 176.424 57.0764L178.457 56.7352C179.219 56.6045 180.214 56.6626 180.228 56.2414L180.286 54.5206C180.308 53.8599 180.417 51.7325 181.078 51.7543L183.358 51.8342L183.626 56.6553L190.343 56.8659V58.8989C190.343 59.2909 189.203 59.2546 188.636 59.2909L183.517 59.6467L183.488 72.8757C183.488 74.1028 184.149 76.1938 185.1 76.6585C188.244 78.176 190.923 75.6783 191.257 76.7457L191.758 78.3503L189.239 79.9912L189.246 79.9985Z" fill="#8C8C8C"/>
<path d="M256.836 41.5757V42.9697C255.209 43.5143 253.06 44.1169 251.252 44.1387C247.636 44.1895 245.117 41.2852 245.117 37.9163V13.3333L248.268 13.2316L248.406 38.3882C248.442 43.3473 256.618 39.8767 256.836 41.5684V41.5757Z" fill="#8C8C8C"/>
<path d="M119.478 42.9262C119.049 44.1532 116.784 44.0225 115.985 43.0205L97.1583 19.5539L96.8752 42.9189C96.8606 43.8628 94.588 43.9427 93.724 43.5796L93.7022 13.7672C94.2541 13.2807 96.454 13.2952 97.0059 13.9777L115.971 37.4806L116.298 14.0213C116.312 13.2299 118.606 13.2008 119.427 13.5348L119.485 42.9262H119.478Z" fill="#8C8C8C"/>
<path d="M132.772 31.1202L142.407 30.7063C143.148 30.0456 142.894 27.1413 142.189 26.0449C139.561 21.9499 132.845 23.5182 128.917 25.7618C128.568 26.0377 127.516 23.8232 128.002 23.4166C130.645 21.1803 136.33 20.0839 139.975 20.9987C144.063 22.0225 146.219 25.0793 146.205 29.2977L146.176 43.3762C145.827 43.6304 144.172 44.2838 143.939 43.9135L142.465 41.6191C139.06 44.3782 134.065 45.1696 129.839 42.8462C127.494 41.5611 126.47 38.7875 126.869 36.1809C127.211 33.9373 129.527 31.2581 132.765 31.1202H132.772ZM142.901 33.2838L134.014 33.3928C131.734 33.4218 129.832 35.4621 129.926 37.4805C130.02 39.499 131.836 41.3214 134.195 41.5611C136.555 41.8007 139.242 41.2271 140.803 40.029C142.785 38.5116 143.206 36.2898 142.894 33.2838H142.901Z" fill="#8C8C8C"/>
<path d="M222.959 31.1714L232.978 30.6777C234.3 28.652 232.695 24.753 230.03 23.9833C226.335 22.9087 222.828 23.78 219.561 25.8566L218.413 25.0289C216.097 23.3516 224.28 19.3946 230.662 21.0863C234.213 22.0302 236.565 24.6949 236.594 28.6229L236.703 42.6579C236.703 43.1443 234.91 44.415 234.648 44.0229L233.036 41.547C230.009 44.0592 225.616 44.9813 221.499 43.4493C218.624 42.382 217.019 39.7028 217.23 36.8638C217.419 34.3734 219.561 31.3312 222.944 31.1642L222.959 31.1714ZM233.385 33.2988L224.817 33.3496C222.291 33.3642 220.301 35.2229 220.403 37.5173C220.497 39.5721 222.436 41.3872 224.963 41.5905C227.264 41.7721 229.856 41.1694 231.483 39.8407C233.262 38.3813 233.639 36.2249 233.392 33.2988H233.385Z" fill="#8C8C8C"/>
<path d="M193.297 21.449L193.347 42.8463C193.347 43.4635 191.22 44.4945 190.988 43.9717L189.717 41.0457C185.803 44.5236 179.719 45.6199 175.058 41.8371C173.526 40.5955 172.226 37.6549 172.219 35.4186L172.19 22.1751C172.19 21.3183 174.034 20.4906 174.535 20.8319C176.241 22.0154 174.796 30.1909 175.864 36.9071C176.495 40.8787 181.2 41.6846 184.199 41.0892C187.677 40.3995 190.007 37.4879 190.051 33.5163L190.182 21.2893C190.4 21.0642 192.614 21.1441 193.297 21.4418V21.449Z" fill="#8C8C8C"/>
<path d="M158.28 37.2762C158.28 38.3072 159.122 40.4273 160.001 40.8629C160.879 41.2986 162.92 41.3059 164.052 41.1752L166.005 40.9501C166.405 40.9065 166.949 42.4966 166.594 42.6781L164.873 43.5494C161.918 45.0379 155.928 43.9923 155.514 39.7884C154.991 34.488 155.165 29.0135 155.035 23.8076L151.288 23.3066C150.969 23.263 150.758 21.5422 151.063 21.4623L153.045 20.9396C153.582 20.8016 154.817 20.8597 154.875 20.4313L155.187 18.3185L155.485 16.1257C155.557 15.6175 157.721 15.5303 157.83 16.0313L158.331 18.3257C158.498 19.0881 158.273 20.7 158.832 20.729L161.635 20.896C163.566 21.0122 165.337 20.0828 165.592 23.2848L158.367 23.7495L158.28 37.2689V37.2762Z" fill="#8C8C8C"/>
<path d="M205.155 43.0563C205.155 44.0002 201.924 44.2761 201.924 42.9619L201.946 21.7316C201.946 21.0419 204.502 20.5627 204.683 21.1508L205.533 23.9316C207.326 22.0293 210.964 20.4102 213.2 20.9402C216.772 25.6379 205.068 21.5356 205.104 31.3448L205.155 43.0491V43.0563Z" fill="#8C8C8C"/>
<path d="M68.4457 64.7976C71.5197 63.8721 74.0397 65.6962 74.7897 68.0676C75.6274 70.7295 74.0127 73.6008 71.7697 74.3507C68.9862 75.2831 66.304 73.9048 65.4123 71.905C64.1286 69.0337 65.2366 65.7638 68.4457 64.7976Z" fill="#8C8C8C"/>
</svg>
