<svg width="75" height="80" viewBox="0 0 75 80" fill="none" xmlns="http://www.w3.org/2000/svg">
<path d="M61.1359 6.48633H34.337L15.3906 25.4327V52.215L34.337 71.1614H61.1359L80.0823 52.215V25.4327L61.1359 6.48633Z" stroke="#8C8C8C" stroke-width="2" stroke-miterlimit="10"/>
<path d="M5.93201 39.7185L19.6489 34.5559L26.5491 29.9279L28.7545 28.7918L34.8361 27.8729L37.2253 29.7274L38.2946 28.4409L40.1157 25.8178L43.0729 23.579L47.3333 23.3618L50.2906 24.8154L51.9613 27.7225L55.4532 28.725L52.0783 32.3171L52.1117 36.3269L51.7943 38.3485L49.4886 39.3008L52.0783 41.9741L52.6464 43.1102L57.9761 43.2605L61.4178 46.6689L62.8046 52.8173L63.5564 60.3524L64.3751 63.3431L63.807 65.8993C63.807 65.8993 62.1363 68.9902 62.036 69.0236C61.9358 69.0571 60.2984 72.1145 60.2984 72.1145C60.2984 72.1145 59.2291 73.1838 59.0119 73.0335C58.7947 72.8831 51.8277 71.5799 51.8277 71.5799L42.1206 66.033L39.7314 66.4674L39.3471 71.3794L33.6666 70.661L33.5663 64.3622L30.726 53.2016L25.7806 51.5308C25.7806 51.5308 25.1791 52.0654 25.0288 52.0654C24.8784 52.0654 22.7899 51.4974 22.7899 51.4974L22.2219 50.545L17.9615 48.6237C17.9615 48.6237 15.0543 45.7834 14.6199 45.7834C14.1855 45.7834 10.1423 42.091 10.1423 42.091L5.98213 39.7018L5.93201 39.7185Z" fill="white"/>
<path d="M77.242 21.2231C77.643 19.7361 77.1417 18.0653 75.9221 17.1297C74.8695 16.311 73.6499 16.1607 72.4135 16.7621L72.213 8.47519C73.5162 7.52286 74.6356 7.35578 75.9889 6.58723C76.0056 6.58723 75.9889 5.86881 75.4877 5.28404C75.187 4.91648 74.8194 4.73269 74.6189 4.64915C73.7835 4.59903 72.9481 4.54891 72.1128 4.49878V4.44866C72.1128 3.54645 72.1462 2.66095 72.1629 1.75874C72.0961 1.64179 71.1604 0.104692 69.3059 0.00444642C67.6685 -0.0790915 66.616 1.04032 66.4823 1.19068L66.5157 4.63245C63.6922 6.7376 61.5202 9.39411 59.7826 12.4182C58.2121 15.2251 57.0592 18.199 56.2072 21.3734C56.2072 21.3734 56.1737 21.4403 56.1236 21.5405C55.4887 22.426 53.8681 22.8771 53.8681 22.8771L49.7413 24.2973C48.3546 23.3616 46.2495 22.8103 44.5954 22.9607C41.5212 23.2447 38.965 25.2663 38.1463 28.3071L36.5089 28.8584L35.5232 28.0231C35.1055 27.6722 34.621 27.5552 34.0696 27.6555L29.9095 28.3906C28.8068 28.5911 27.7041 28.6747 26.735 29.2761L23.1763 31.4815C21.4053 32.5842 19.6844 33.5867 17.997 34.8398L9.79355 37.5965L8.59061 37.9975C8.00584 38.3651 7.40437 38.599 6.76948 38.5488V38.599L3.86237 39.568C2.59259 40.0024 1.60684 40.8211 0.938542 42.0073C-0.431478 44.4466 -0.247695 47.4206 1.13903 49.8432C1.92429 51.2132 3.0604 52.2323 4.53067 52.7503C4.53067 52.7503 4.98177 52.9675 4.53067 52.7336C4.99848 52.9842 5.98423 52.9842 5.98423 52.9842C6.81961 52.9174 7.42108 52.7503 8.1395 52.4495L16.7105 48.707C18.2643 49.7429 19.9183 50.3611 21.7228 50.8623C21.9567 51.2299 22.2574 51.6309 22.5581 51.9316L23.9616 52.4495C24.6967 52.7169 25.3316 52.7169 26.0834 52.3493L28.4559 53.5857C29.0574 53.9031 29.5753 54.2707 30.1434 54.6884C30.5276 57.1778 30.9286 59.5837 31.5134 62.023L31.7306 64.1281L31.9478 70.9114L33.7355 72.4151H33.8023C33.8023 72.4151 33.819 72.5655 33.8357 72.6323C33.8357 72.6657 33.8357 72.7158 33.8524 72.7492C34.0863 74.2696 34.504 75.6898 35.3394 76.9429C36.676 79.0313 38.8981 80.1507 41.4043 79.9836C45.9487 79.8667 50.7438 76.1075 53.6342 72.7492L56.9256 73.2338C57.7443 73.3507 58.4794 73.9188 59.3983 73.6682C61.0691 73.2338 61.9379 71.0451 62.389 69.5414H62.4224C62.6897 68.5891 63.4917 67.9542 64.1767 67.2023C64.2435 67.1355 64.2769 67.0353 64.3103 66.9183L64.2268 66.9517V65.1306C65.0288 63.8107 64.8951 62.7414 64.1098 61.4048C64.3437 59.7842 64.0764 58.2638 63.5919 56.6766C63.4582 56.2589 63.6754 55.624 63.759 55.1395C64.3939 55.7242 64.9786 56.3257 65.7973 56.593C67.9693 57.3114 70.1413 56.3925 71.3275 54.4544C73.583 50.8289 73.5496 45.282 73.0651 41.1051C74.3015 40.3365 75.5044 39.7351 76.8076 39.1169C76.9747 39.0334 77.0916 38.8329 77.1752 38.6324C77.0081 38.0309 76.841 37.5464 76.5904 36.995L75.0867 36.7611L74.9363 35.2073C74.9029 34.9233 74.1344 34.94 74.1177 35.2073L74.0341 36.7945L72.8479 36.8614L72.7978 32.5174L72.8813 32.5842C72.8145 31.8992 72.8479 31.1975 72.7644 30.5125H72.7477L72.5806 24.3641L75.9889 22.8604C76.6238 22.4761 76.9914 21.8914 77.242 21.173V21.2231ZM76.1059 37.396L76.156 38.2982L72.9481 38.2147C72.9147 37.9808 72.898 37.7469 72.898 37.4461L76.1226 37.396H76.1059ZM72.2297 5.06684C73.7334 5.13367 74.3182 4.66586 75.187 5.90222L72.213 5.80198C72.1796 5.58478 72.1796 5.28404 72.213 5.06684H72.2297ZM71.127 2.56071L71.4779 16.9961C70.9934 17.23 70.5423 17.3803 69.9742 17.5474L69.5732 1.50813C70.1747 1.82557 70.6091 2.14302 71.1103 2.57741L71.127 2.56071ZM61.0691 11.9337C62.5727 9.54448 64.3103 7.4059 66.616 5.61819L66.9167 18.5833L58.6465 21.34C58.1452 21.5071 57.6106 21.3734 57.1428 21.3734C58.0116 18.0319 59.2646 14.8742 61.0691 11.9504V11.9337ZM48.2878 25.4167L48.3713 25.3331L47.82 24.5479L47.3856 24.2471C47.5526 24.2471 47.7698 24.3307 47.9035 24.4142C49.5575 24.7818 50.7438 26.3022 51.3787 27.8393L49.5241 27.9228C49.1733 27.9228 48.7389 28.0732 48.3713 28.1233C47.302 25.7508 45.9988 24.5479 43.3089 24.0801C45.1468 23.4118 46.9345 24.2137 48.3045 25.4L48.2878 25.4167ZM38.5306 32.4172C39.3659 31.5317 40.4018 30.9636 41.4878 30.5292L42.0224 30.3287V30.195C41.7885 30.195 41.5379 30.195 41.4043 30.2285C40.7861 30.3788 39.5163 30.7965 38.9482 31.0471C38.3802 29.0756 40.1512 25.3666 42.1227 24.9656C44.5954 24.1636 46.734 26.1518 47.4524 28.3739C46.5836 28.7248 45.8318 29.0422 45.13 29.5936C48.1207 28.7916 50.7939 27.9228 53.9182 29.1258C52.9492 29.5769 52.047 29.7774 51.0779 29.9611C48.3379 30.4958 45.6313 30.6963 42.8411 30.8132C42.4067 30.9803 41.8888 31.1307 41.5379 31.3145C40.335 31.8992 39.2824 32.5007 38.1964 33.2859C38.163 32.9685 38.3134 32.6511 38.5306 32.4172ZM55.6892 41.0717C56.3575 41.7066 57.4268 41.8904 58.1285 41.2555C59.5988 39.969 59.6656 36.2432 59.5988 34.3719L59.0307 30.3454L66.3654 27.1208C65.2961 30.0614 64.3772 32.8181 63.5585 35.7253L62.2219 41.8068C61.988 43.5945 61.8042 45.3154 61.8543 47.0864C61.3698 45.9002 60.8519 44.881 59.9162 44.079C58.0116 42.4584 55.5723 41.8736 53.0828 42.3582C51.646 41.0884 51.93 40.3867 50.0254 39.7017C51.1448 38.9498 52.2475 39.0668 52.2642 37.6299C52.2642 36.1429 52.3978 34.6894 52.5983 33.2191L53.8013 32.6678C53.5841 35.4245 53.5674 39.1002 55.6892 41.0884V41.0717ZM54.7369 32.2167L58.2789 30.6796C58.8637 33.7538 59.0976 35.7921 58.4961 38.8663C58.3457 39.4343 58.1619 39.9857 57.8111 40.4535C57.4268 40.9881 56.8588 40.938 56.3909 40.5872C55.6224 40.0024 55.188 39.1503 54.904 38.198C54.386 36.2265 54.4194 34.2049 54.7369 32.2V32.2167ZM62.5226 57.4785C62.9403 58.4643 63.0406 59.5837 63.074 60.6028C62.1049 59.851 61.0189 59.5168 59.9831 59.049C57.7443 58.4309 55.4887 58.364 53.3168 59.049C52.4814 56.4594 52.5983 53.9031 53.3836 51.2633C51.4622 53.1847 51.0779 56.9439 51.4789 59.4333L50.3094 61.2043C48.8057 61.0372 47.3354 60.7198 45.9654 60.1684C45.4141 59.9512 45.0966 59.6004 44.9797 58.9989C44.7959 58.0299 44.4952 57.111 43.9939 56.192C46.8509 52.483 51.3787 48.139 55.873 46.7355C56.2907 46.6019 56.7418 46.6186 57.1261 46.5685C58.2622 46.4181 59.1644 46.8525 59.9329 47.6378C62.0548 49.8599 63.0406 52.9173 62.389 55.9414L61.4868 55.0893L62.5226 57.4952V57.4785ZM42.2062 56.9105C41.1871 56.4426 40.3517 55.6073 39.5998 54.6716C41.2539 51.8982 43.2588 49.5257 45.6647 47.454C48.1207 45.3321 51.646 43.2437 55.0042 43.3272C56.9924 43.3606 58.8971 44.3631 60.0332 46.0672C56.5079 45.0648 53.5841 46.1675 50.7772 48.022C47.2185 50.3277 44.6957 53.3517 42.2229 56.9272L42.2062 56.9105ZM44.2947 38.883C44.6455 39.3007 45.3305 39.3842 45.7984 39.6181L46.0323 40.9714C46.0824 41.3056 46.333 41.5061 46.6504 41.5562C46.1659 42.4083 45.648 43.2771 45.2971 44.1125C45.0632 44.6638 44.8794 44.5636 44.445 44.7139C43.8436 44.9144 43.2087 45.0815 42.507 45.2152C41.4377 44.3631 41.3541 44.3798 41.3541 43.511C41.3541 41.3724 41.4878 39.2338 41.7217 37.0619C42.1895 36.7778 42.3733 36.31 42.2229 35.8756C41.7718 36.5439 40.4018 35.2909 40.335 33.7203C40.335 33.5031 40.4686 33.1857 40.619 33.0687C40.8028 32.9184 41.2539 32.8683 41.4711 32.9685C41.8888 33.1523 42.0726 33.4697 42.3232 33.9208L43.6264 33.5533C43.5261 32.8348 43.4593 32.2835 43.4927 31.5985L45.7482 31.4314L45.4308 31.9159L47.6028 32.0997C48.4047 32.1665 48.672 31.3646 49.7246 31.0137L50.4932 32.2167C50.4932 32.2167 50.5433 31.8992 50.6268 31.8992L51.4455 31.8157C52.3143 32.9852 51.5625 34.6894 51.646 36.995C51.646 37.3459 51.646 37.7803 51.4455 38.0309L50.3261 37.8805C49.8082 37.8137 49.19 37.9307 48.6386 38.0476L46.617 38.4653C45.5979 38.6825 44.6789 38.3316 43.9772 37.5297C43.8269 37.3626 43.6264 37.1788 43.4593 37.112C43.6264 37.6968 43.8937 38.3651 44.2947 38.8663V38.883ZM40.6357 38.3316V39.3508C39.7669 39.7351 39.2156 40.2363 38.447 40.8545C38.2298 41.0048 37.6283 40.938 37.3443 40.9213C36.3419 40.8879 35.4731 40.9213 34.4539 41.0048L40.619 38.3149L40.6357 38.3316ZM25.8662 30.8299C26.735 30.2619 27.5537 29.5602 28.623 29.3263C30.6613 28.9086 32.6328 28.6412 34.7212 28.3238C37.5114 30.1449 36.8765 30.4122 37.0937 32.5508C37.1271 32.8181 36.96 33.0687 36.7596 33.1356C35.8239 33.4029 36.0913 31.4982 35.7237 30.7464C35.4397 30.1616 34.8549 29.627 34.2868 29.3764C34.621 30.1115 35.2225 30.5459 35.4062 31.2476C35.6067 32.083 35.6401 32.9685 35.5566 33.8206C35.4731 33.9877 35.0554 34.0712 34.905 34.0211C34.7212 33.971 34.504 33.737 34.4539 33.5366L34.0362 31.4481C33.9193 30.8801 33.0505 29.9778 32.5827 29.6437L32.4824 29.7439L33.5016 31.3312C34.0362 32.1665 34.0696 33.3528 33.9193 34.3051C33.4013 34.6058 32.7832 34.1547 32.6161 33.6368C32.048 31.9326 32.6161 31.7823 30.5109 30.1616C30.8117 30.8634 31.2461 31.3813 31.5802 32.0329C31.7139 32.3002 32.165 34.1547 32.0146 34.4889C31.4967 34.7896 30.8785 34.5223 30.6947 33.9542L30.277 32.6678L29.0072 31.3312C28.2721 32.1164 27.019 31.8324 26.6014 31.9493L22.0736 33.3194L25.8328 30.8633L25.8662 30.8299ZM10.2112 46.9528C10.111 49.509 8.40682 52.2825 5.44959 51.7645C2.24173 51.2132 0.704636 47.2702 1.35623 44.2461C1.64026 42.8928 2.3921 41.6732 3.57834 40.9881C5.08202 40.1194 6.91985 40.4702 8.17292 41.6564C9.60977 43.0098 10.2781 44.9645 10.2112 46.9528ZM18.7321 48.54L21.4721 47.8048V49.6761C20.5699 49.4088 19.6844 49.0746 18.7321 48.54ZM22.5581 50.0771C22.3576 49.1247 22.4412 48.2392 22.7085 47.3036L24.6132 46.6353C24.0785 48.3896 24.279 49.9935 24.8137 51.6977C23.7444 51.4137 22.7753 51.0962 22.5581 50.0604V50.0771ZM15.5744 42.2579L11.9655 43.6112C11.481 41.8402 10.512 40.4869 8.92476 39.6181L28.4392 33.052C29.2244 33.3695 29.2579 34.4722 30.2269 35.3911C30.6613 35.8088 31.2294 35.8756 31.9645 36.0093L15.5744 42.2579ZM34.1532 59.7173C33.652 60.8033 33.819 61.9729 34.6711 62.8249C34.5709 63.3429 34.4706 63.8107 34.2868 64.362L32.4657 58.2471C31.5635 55.1896 31.6638 51.4137 32.048 48.139C31.363 49.0746 31.0623 50.1272 30.7281 51.2466C29.9763 49.9434 28.9905 49.1247 27.7208 48.3562V48.4731C28.2888 49.6761 28.9905 50.8122 29.4918 52.1989L25.7827 50.7955C25.6156 50.6451 25.4652 50.194 25.3984 49.9601C25.1812 48.6235 25.3984 47.3537 26.0166 46.1508L28.6397 45.165L33.6687 42.8928C34.905 42.3247 36.2082 42.0407 37.5448 42.3415L35.4397 46.0004C36.6092 45.9002 37.6618 45.7164 38.7979 45.7331L40.736 47.6712C40.4185 46.6687 39.9674 45.7164 39.4328 44.7641C38.7645 44.4633 37.9291 44.6805 37.2107 44.9144L39.0151 41.6397C39.3158 41.0884 40.0008 40.7375 40.5522 40.4201C39.9006 44.1292 40.9532 44.5803 41.6215 47.2702C41.7885 47.9886 41.5212 48.6903 41.5045 49.4756L43.192 47.2201C43.8101 46.3847 44.7124 45.8333 45.5477 45.2319C46.6504 44.4633 47.7197 43.7115 48.7055 42.8093C49.3404 42.2245 49.7246 41.6063 49.9418 40.7041C50.1924 40.8378 50.4263 41.0216 50.6101 41.2388L51.8298 42.6255C50.4932 43.0933 49.2902 43.6614 48.0873 44.3965C44.2613 46.769 41.9055 49.4088 39.3158 53.0844C38.1797 53.1346 37.8121 52.6166 36.7094 53.3517C36.1748 53.7193 36.0578 54.3876 35.9409 54.9724C35.2058 55.5237 34.5709 56.2422 34.8048 57.2947C34.0696 57.9129 33.8859 58.7984 34.1365 59.7006L34.1532 59.7173ZM34.7881 71.0952C34.7212 68.6058 35.1389 66.1832 35.8239 63.7439C36.8765 64.5458 37.9458 65.0972 39.132 65.5817C38.6308 67.9375 38.3635 70.193 38.3301 72.532C38.4637 75.105 38.848 77.5109 41.1369 79.0313C36.6593 78.9979 34.905 75.0048 34.8048 71.0952H34.7881ZM41.8219 75.2888C40.3183 75.0382 39.8338 73.8519 39.7168 72.4151H48.7222C46.9846 74.0023 44.0106 75.6564 41.8052 75.2888H41.8219ZM40.0677 70.2097L40.6023 67.3026L42.2062 67.5532L46.0991 70.0927L40.0677 70.2097ZM58.7467 72.5153C57.761 72.6824 56.0568 71.4294 55.0042 71.0952L56.0401 72.1311C52.3644 71.7802 48.9561 69.3075 46.0824 67.2357C44.9463 66.4171 43.8937 65.565 42.5404 65.1139C41.6382 64.8131 39.8672 65.2141 37.9959 63.8775C36.8097 63.0254 34.5709 61.7891 34.9719 60.3522L36.108 61.1208C35.4898 60.1183 34.5709 59.0824 35.4397 58.0633L36.6593 59.3331L35.8908 57.4117C35.6569 56.8102 35.8406 56.1252 36.4755 55.8412L37.762 57.4785L36.9099 55.0058C36.8097 54.7051 37.0603 54.2707 37.2441 54.1036C37.478 53.8864 37.9458 53.853 38.2632 53.9198C38.6976 54.0033 38.7143 54.1704 38.8146 54.5213C39.3492 56.2589 41.1202 57.2947 42.6573 57.9129L43.476 56.7935C43.9271 57.7458 44.1276 58.5979 44.3281 59.567C44.4617 60.1517 44.7792 60.5193 45.3472 60.7699C47.2185 61.6387 49.2067 62.0564 51.2784 62.3404C54.5865 62.7748 59.2312 63.7104 60.9187 66.8348C61.1192 67.219 61.5369 67.6367 61.5369 68.1547C61.5202 69.8588 60.3673 72.248 58.7634 72.5153H58.7467ZM63.4081 64.3286C62.8067 63.0923 60.7349 62.1065 59.6656 61.6888C59.5821 61.6554 59.2813 61.6888 59.1811 61.7055C59.3148 61.8225 59.4651 61.9394 59.5988 62.0063C60.9855 62.8082 62.1383 63.9444 62.8066 65.3979C63.1742 66.1832 62.9904 67.1355 62.3388 67.7036C61.7207 66.25 60.7182 65.2141 59.6823 64.1783C57.5939 62.5743 55.472 61.8726 52.8657 61.5719C52.8657 61.0874 52.9659 60.5026 53.3836 60.252C55.1379 59.1994 57.9949 59.45 59.8661 59.9512C60.7683 60.1851 61.5703 60.536 62.2887 61.0539C63.2912 61.7891 63.9595 63.1257 63.4081 64.3119V64.3286ZM70.1747 54.6884C68.9717 56.1085 66.9835 56.5262 65.413 55.507C64.7781 55.0893 63.9261 54.2874 63.8425 53.5188C63.6922 52.0987 63.3747 50.9124 62.9904 49.5591C62.4558 47.6712 62.6897 45.683 62.7899 43.7282C63.1074 41.339 63.5251 39.1336 64.1098 36.8112C64.9619 33.7538 65.814 30.7965 67.1005 27.7892L67.4848 44.0289C68.3369 44.6137 69.356 45.0481 70.4253 44.998C71.2106 44.9645 71.7953 44.4132 72.5304 43.9621C72.7309 47.1867 72.3801 52.082 70.1747 54.6884ZM70.1747 25.5002L71.645 24.9155L72.0793 43.1768C71.7285 43.6279 71.244 43.7616 70.6425 43.8953L70.158 25.5002H70.1747ZM68.8381 21.5572L53.2165 27.5218C52.7654 27.4383 52.5816 27.1543 52.3811 26.8535L51.3787 25.4L74.1344 17.7479C74.786 17.915 75.2371 18.3661 75.471 19.0177L68.8214 21.5739L68.8381 21.5572Z" fill="#8C8C8C"/>
<path d="M31.9639 36.0095L15.5738 42.2581L11.965 43.6114C11.4805 41.8404 10.5114 40.4871 8.92419 39.6183L28.4386 33.0522C29.2239 33.3697 29.2573 34.4724 30.2263 35.3913C30.6607 35.809 31.2288 35.8758 31.9639 36.0095Z" fill="white"/>
<path d="M10.2093 46.9522C10.109 49.5084 8.40487 52.2652 5.44763 51.7639C2.23978 51.2126 0.702681 47.2696 1.35428 44.2455C1.6383 42.8922 2.39014 41.6726 3.57638 40.9876C5.08006 40.1188 6.91789 40.4696 8.17096 41.6559C9.60781 43.0092 10.2761 44.964 10.2093 46.9522Z" fill="white"/>
<path d="M50.777 48.0223C47.2183 50.3279 44.6954 53.352 42.2227 56.9274C41.2036 56.4596 40.3682 55.6242 39.6163 54.6886C41.2704 51.9152 43.2753 49.5427 45.6812 47.4709C48.0871 45.3992 51.6625 43.2606 55.0207 43.3442C57.0089 43.3776 58.9136 44.38 60.0497 46.0842C56.5244 45.0818 53.6006 46.1845 50.7937 48.039L50.777 48.0223Z" fill="white"/>
<path d="M53.2315 27.5227C52.7804 27.4392 52.5966 27.1551 52.3961 26.8544L51.3937 25.4009L74.1494 17.7488C74.801 17.9159 75.2521 18.367 75.486 19.0186L68.8364 21.5748L53.2148 27.5394L53.2315 27.5227Z" fill="white"/>
<path d="M36.0902 61.1372C36.1737 61.2876 36.2573 61.5382 36.4243 61.6551C39.9831 63.9274 42.957 63.7102 43.4582 63.9942L47.468 66.2831C49.7403 67.5863 56.1226 70.6772 58.6454 70.1927C60.1491 69.892 60.9678 68.2713 60.9009 66.8345C61.1014 67.2188 61.5191 67.6364 61.5191 68.1544C61.5024 69.8586 60.3496 72.2477 58.7456 72.5151C57.7599 72.6821 56.0557 71.4291 55.0032 71.0949L56.039 72.1308C52.3634 71.7799 48.955 69.3072 46.0813 67.2355C44.9452 66.4168 43.8926 65.5647 42.5393 65.1303C41.6371 64.8296 39.8661 65.2306 37.9948 63.894C36.8086 63.0419 34.5698 61.8055 34.9708 60.3687L36.1069 61.1372H36.0902Z" fill="#8C8C8C"/>
<path d="M38.3283 72.5157C38.462 75.0887 38.8462 77.4946 41.1352 79.015C36.6576 78.9816 34.9033 74.9884 34.803 71.0789C34.7362 68.5894 35.1539 66.1668 35.8222 63.7275C36.8748 64.5295 37.944 65.0809 39.1303 65.5654C38.629 67.9211 38.3617 70.1767 38.3283 72.5157Z" fill="white"/>
<path d="M59.9816 59.0496C60.3659 56.3597 60.132 53.5695 59.5305 50.8796C59.33 49.9774 58.9959 49.1587 58.5949 48.3568C58.0436 47.2541 57.559 47.2374 57.1414 46.5691C58.2775 46.4187 59.1797 46.8531 59.9482 47.6384C62.0701 49.8605 63.0558 52.9179 62.4042 55.942L61.502 55.0899L62.5379 57.4958C62.9556 58.4816 63.0558 59.601 63.0892 60.6201C62.1202 59.8683 61.0342 59.5342 59.9983 59.0663L59.9816 59.0496Z" fill="#8C8C8C"/>
<path d="M72.0791 43.1774C71.7282 43.6285 71.2437 43.7622 70.6422 43.8958L70.1577 25.5008L71.628 24.916L72.0624 43.1774H72.0791Z" fill="white"/>
<path d="M71.4741 16.9791C70.9896 17.213 70.5385 17.3634 69.9704 17.5305L69.5695 1.10693C70.1709 1.42438 70.6053 1.74182 71.1066 2.17622L71.4574 16.9791H71.4741Z" fill="white"/>
<path d="M43.4582 37.1448C43.6253 37.7296 43.8926 38.3979 44.2936 38.8991C44.6444 39.3168 45.3294 39.4003 45.7972 39.6342L46.0311 40.9876C46.0813 41.3217 46.3319 41.5222 46.6493 41.5723C46.1648 42.4244 45.6469 43.2932 45.296 44.1286C45.0621 44.6799 44.8783 44.5797 44.4439 44.73C43.926 42.7084 43.4916 40.7035 43.0572 38.6151C43.0405 38.5148 42.9402 38.3812 42.8901 38.3143C42.8567 38.2642 42.6061 38.3979 42.5894 38.4814L41.6036 43.0927C41.5535 43.2932 41.4366 43.477 41.353 43.5605C41.353 41.4219 41.4867 39.2834 41.7206 37.1114C42.1884 36.8274 42.3722 36.3595 42.2218 35.9252C42.439 35.591 43.2076 36.2259 43.4582 37.1615V37.1448Z" fill="#8C8C8C"/>
<path d="M46.0978 70.0934L40.0664 70.2103L40.601 67.3032L42.2217 67.5538L46.0978 70.0934Z" fill="#8C8C8C"/>
<path d="M42.1028 24.949C41.0001 26.8035 41.0836 28.1401 41.4011 30.2286C40.7829 30.3789 39.5131 30.7966 38.9451 31.0472C38.377 29.0757 40.148 25.3667 42.1195 24.9657L42.1028 24.949Z" fill="#8C8C8C"/>
<path d="M59.6813 64.195C60.0489 64.2285 59.4307 62.3572 59.5811 62.0063C60.9678 62.8083 62.1206 63.9444 62.7889 65.398C63.1565 66.1832 62.9727 67.1356 62.3211 67.7036C61.7029 66.2501 60.7005 65.2142 59.6646 64.1783L59.6813 64.195Z" fill="#8C8C8C"/>
<path d="M50.3411 37.913L50.5249 36.9774C50.1907 36.8604 49.9568 36.827 49.8398 36.6766L50.3411 36.6265C50.6084 36.6098 50.8423 36.3091 50.8256 36.0417L50.1239 36.0919V35.4904L51.1263 35.4737C50.9091 35.2064 50.6752 35.056 50.3077 34.9892C50.2575 34.7553 50.2074 34.5214 50.1239 34.2874L50.7253 33.7027C50.7253 33.7027 50.8423 33.4187 50.8089 33.3685L50.6251 33.168C50.6251 32.9174 50.6251 32.4663 50.4914 32.2491C50.4747 32.199 50.5416 31.9317 50.6251 31.9317L51.4438 31.8481C52.3126 33.0177 51.5607 34.7218 51.6443 37.0275C51.6443 37.3784 51.6443 37.8128 51.4438 38.0634L50.3244 37.913H50.3411Z" fill="#8C8C8C"/>
<path d="M59.6648 61.6889C59.765 61.1208 59.8319 60.5361 59.8653 59.968C60.7675 60.2019 61.5695 60.5528 62.2879 61.0707C63.2903 61.8059 63.9586 63.1425 63.4073 64.3287C62.8058 63.0923 60.7341 62.1066 59.6648 61.6889Z" fill="#8C8C8C"/>
<path d="M49.522 27.9407C49.4719 27.4395 48.7535 26.4705 48.6867 25.9692C48.6533 25.7353 48.5864 25.5682 48.3692 25.3343L47.8179 24.5491L47.9014 24.4321C49.5555 24.7997 50.7417 26.3201 51.3766 27.8572L49.522 27.9407Z" fill="#8C8C8C"/>
<path d="M41.5211 31.3143C40.3181 31.8991 39.2656 32.5005 38.1796 33.2858C38.1462 32.9684 38.2965 32.6342 38.5137 32.417C39.3491 31.5148 40.385 30.9634 41.471 30.5291L41.5044 31.3143H41.5211Z" fill="#8C8C8C"/>
<path d="M76.1563 38.2982L72.9484 38.2147C72.915 37.9808 72.8983 37.7469 72.8983 37.4461L76.1229 37.396L76.173 38.2982H76.1563Z" fill="white"/>
<path d="M75.1857 5.90199L72.2117 5.80174C72.1783 5.58455 72.1783 5.28381 72.2117 5.06661C73.7154 5.13344 74.3001 4.66563 75.1689 5.90199H75.1857Z" fill="white"/>
<path d="M47.9015 24.4311L47.8179 24.548L47.3835 24.2473C47.5506 24.2473 47.7678 24.3308 47.9015 24.4144V24.4311Z" fill="#8C8C8C"/>
<path d="M50.6267 33.1685L50.8104 33.369C50.8104 33.369 50.7937 33.6531 50.7269 33.7032L50.1254 34.2879L48.6719 33.8201C49.123 33.5361 49.524 33.3022 49.9751 33.1184L50.61 33.1685H50.6267Z" fill="#8C8C8C"/>
<path d="M50.325 34.9897C50.6926 35.0565 50.9265 35.2068 51.1437 35.4742H50.1412C49.3226 35.5076 47.4179 35.8083 48.1698 35.4909L49.64 34.8894L50.325 34.9729V34.9897Z" fill="#8C8C8C"/>
<path d="M49.8388 36.6605C49.3877 36.6939 49.0535 36.4433 48.853 36.1593L50.1228 36.0758L50.8245 36.0256C50.8245 36.293 50.6073 36.577 50.34 36.6104L49.8388 36.6605Z" fill="#8C8C8C"/>
</svg>
