<svg width="327" height="80" viewBox="0 0 327 80" fill="none" xmlns="http://www.w3.org/2000/svg">
<path d="M68.0256 75.9676C67.5515 75.5023 67.0731 75.0435 66.5924 74.5847C65.6312 73.6715 64.6569 72.7736 63.6759 71.8845C61.7119 70.1084 57.2028 66.4185 55.1798 64.7166C54.6905 64.3059 54.1989 63.8952 53.703 63.4911L54.1749 63.0978L57.2858 60.4566L58.8457 59.1414L60.4121 57.835L66.6886 52.6202L72.9432 47.3792C75.0055 45.6424 77.0657 43.9056 79.1258 42.1667C80.9871 42.951 82.8572 43.7221 84.7338 44.4737C86.9949 45.3759 89.2604 46.2629 91.5565 47.0843L91.6067 46.9707C89.4548 45.8216 87.2767 44.7402 85.0877 43.6719C83.4427 42.8723 81.7911 42.0858 80.1329 41.3125C81.8938 39.8225 83.6502 38.3304 85.4023 36.8317L85.2581 36.6504C83.3203 38.0945 81.3869 39.5451 79.4579 41.0001C79.1367 40.8515 78.8134 40.7008 78.4922 40.5522C76.2836 39.5342 74.0574 38.5511 71.8181 37.6029C69.592 36.6613 67.9447 35.9601 65.7251 35.0054C65.6683 35.0862 65.6115 35.167 65.5547 35.2479L65.5438 35.261L65.5329 35.2741L65.1113 35.8159L65.2795 35.8923C67.4925 36.9016 69.1114 37.699 71.3179 38.7236C73.5265 39.7439 75.7483 40.7313 77.9854 41.6839C78.1034 41.7341 78.2257 41.7843 78.3437 41.8368C76.2989 43.3791 74.2562 44.9259 72.2157 46.4726L65.7208 51.4165L59.2477 56.3866L57.6266 57.6253L55.9991 58.8552L52.7352 61.3064L51.8351 61.9946C51.4069 61.6559 50.9787 61.3195 50.5462 60.9853L48.9711 59.7815L45.7989 57.4024L44.2151 56.2074L42.6377 55.0037L36.346 50.1778L30.0301 45.3781C28.4594 44.1918 26.8886 43.0034 25.3178 41.8193C27.5156 40.869 29.7002 39.8946 31.874 38.8919C33.8118 37.9962 35.0723 37.343 37.0101 36.4538C36.9533 36.338 36.9052 36.2179 36.8659 36.0999V36.0933L36.8615 36.0868L36.8441 36.03V36.0234L36.8397 36.0169L36.8244 35.9666V35.9579L36.82 35.9491L36.8025 35.8836V35.877L36.8004 35.8727C36.7873 35.8202 36.7763 35.7722 36.7654 35.7219C36.7436 35.628 36.7261 35.5384 36.713 35.4554C34.7118 36.314 33.3792 36.9148 31.3759 37.769C28.9618 38.8001 26.5609 39.8619 24.1731 40.9564C21.9032 39.2458 19.6312 37.5396 17.3504 35.8443L17.2062 36.0256C19.2685 37.793 21.3396 39.5516 23.4128 41.3081C21.0905 42.3786 18.777 43.4665 16.4744 44.5807C14.0144 45.767 11.5633 46.9773 9.13831 48.2465L9.18855 48.3602C11.7555 47.4142 14.2963 46.4071 16.8283 45.3781C19.3603 44.3535 21.8792 43.2961 24.3894 42.2213C24.4112 42.2125 24.4352 42.2016 24.4571 42.1929C26.0737 43.5583 27.6882 44.9215 29.3048 46.2869L35.3803 51.3859L41.4777 56.4565L42.9982 57.7279L44.5122 59.0081L47.5336 61.5773L49.0563 62.8488C49.3272 63.0716 49.6002 63.2944 49.8733 63.5173C49.751 63.6134 49.6286 63.7095 49.5085 63.8056C48.4446 64.6533 47.3937 65.5162 46.3517 66.3901C44.2697 68.14 42.2139 69.9249 40.1888 71.7469C39.1773 72.66 38.1745 73.582 37.1827 74.5192C36.6868 74.9889 36.193 75.4608 35.7059 75.9392C35.2165 76.4155 34.7315 76.8983 34.2552 77.3898L34.3994 77.5711C34.9849 77.215 35.5617 76.848 36.1362 76.4766C36.7108 76.1052 37.2788 75.7273 37.8468 75.3493C38.9806 74.5891 40.1014 73.8135 41.2155 73.0292C43.4417 71.4585 45.6351 69.8462 47.8023 68.2034C48.8859 67.3797 49.9585 66.5452 51.0203 65.6954C51.2846 65.4835 51.5468 65.2715 51.8089 65.0575C52.4447 65.5556 53.0826 66.0471 53.7249 66.5343C55.833 68.1313 60.4798 71.6485 62.647 73.1712C63.7306 73.9315 64.8229 74.683 65.9261 75.4193C66.4789 75.7863 67.0337 76.1511 67.5908 76.5116C68.1479 76.8721 68.7116 77.226 69.2818 77.5711L69.4259 77.3898C68.9628 76.9114 68.4931 76.4395 68.019 75.9742L68.0256 75.9676Z" fill="#8C8C8C"/>
<path d="M69.0945 21.7615L69.0442 21.6479L68.2031 22.004C68.2075 22.0346 68.2119 22.063 68.2184 22.0936C68.2228 22.1176 68.225 22.1395 68.2293 22.1635L69.0966 21.7615H69.0945Z" fill="#8C8C8C"/>
<path d="M39.8833 24.0185L38.2448 23.3281L38.1945 23.4417L39.7718 24.1758C39.809 24.1233 39.8461 24.0687 39.8854 24.0163L39.8833 24.0185Z" fill="#8C8C8C"/>
<path d="M80.5243 44.5847L59.3375 62.3896L82.639 80.0001L103.734 55.0601L80.5243 44.5847Z" fill="#8C8C8C"/>
<path d="M23.3146 45.655L0 56.3664L20.1316 80L43.35 63.0296L23.3146 45.655Z" fill="#8C8C8C"/>
<path d="M69.1251 24.5927C69.1251 24.798 69.1251 25.0121 69.112 25.235L69.0945 25.6151L69.0858 25.8052C69.0814 25.8816 69.077 25.9646 69.0683 26.052L68.9918 26.8079C68.9831 26.9019 68.97 26.9871 68.9591 27.0526L68.9307 27.2405L68.8695 27.6228V27.6293L68.8673 27.6359C68.6794 28.7107 68.4042 29.7594 68.0503 30.7534V30.7578C67.692 31.7496 67.2376 32.7283 66.7001 33.6655V33.6721L66.6805 33.7049L79.0085 39.5772L93.141 29.1979L74.7222 21.4468L69.1273 24.4594C69.1273 24.5031 69.1273 24.5468 69.1273 24.5905L69.1251 24.5927Z" fill="#8C8C8C"/>
<path d="M36.4878 33.8249C36.4485 33.3617 36.4288 32.9248 36.4245 32.4966C36.4245 32.3371 36.4245 32.1951 36.4288 32.0597C36.4288 32.0182 36.431 31.9745 36.4332 31.933C36.4354 31.839 36.4376 31.7407 36.4441 31.6402V31.6293L36.4704 31.2273C36.4769 31.1203 36.4878 31.022 36.4988 30.928C36.5031 30.8843 36.5075 30.8428 36.5119 30.8013V30.7948V30.7882C36.5818 30.1743 36.6735 29.6238 36.7915 29.106C36.9182 28.5555 37.0755 28.0072 37.259 27.4741V27.4697C37.4818 26.834 37.7462 26.2179 38.0499 25.6237L28.8241 20.8306L10.6172 28.7172L24.6055 39.3848L36.4835 33.8293L36.4878 33.8249Z" fill="#8C8C8C"/>
<path d="M36.875 14.8251C36.875 14.9387 36.8816 15.0544 36.8881 15.1768C36.899 15.3865 36.9143 15.5962 36.9318 15.7972L36.9362 15.8497L36.9711 16.1839C36.9755 16.2254 36.982 16.2778 36.9886 16.3281L37.0017 16.4308C37.0083 16.4766 37.0126 16.5203 37.0214 16.5684C37.1044 17.084 37.2486 17.5843 37.4517 18.054C37.6658 18.5368 37.9214 18.9715 38.2098 19.3385C38.7844 20.0901 39.5381 20.7127 40.3945 21.1431C40.4382 21.1671 40.4797 21.1846 40.5146 21.2021C40.5299 21.2086 40.5671 21.2261 40.5671 21.2261C40.5845 21.2326 40.5998 21.2414 40.6173 21.2479C40.6523 21.2654 40.6894 21.2829 40.7265 21.296C40.7506 21.3069 40.7768 21.3157 40.8008 21.3266C40.8773 21.3572 40.9581 21.3921 41.0455 21.4205C41.253 21.5013 41.4606 21.556 41.6616 21.6106L41.7096 21.6237C41.8036 21.6455 41.8953 21.6652 41.9893 21.6827C41.998 21.6849 42.0089 21.687 42.0177 21.6892C42.1815 21.7242 42.3475 21.7526 42.5158 21.7722C42.3803 21.888 42.2471 22.0038 42.1182 22.124C40.4731 23.6226 39.1973 25.5211 38.4283 27.6118C38.2404 28.1318 38.0787 28.6648 37.9498 29.2001C37.8275 29.7047 37.7336 30.24 37.6615 30.8364V30.8429C37.6571 30.8866 37.6506 30.9303 37.6462 30.974C37.6353 31.0636 37.6265 31.1575 37.6178 31.2558L37.5894 31.6622C37.5828 31.7561 37.5806 31.85 37.5785 31.944C37.5785 31.9877 37.5763 32.0314 37.5741 32.0729C37.5697 32.204 37.5675 32.3416 37.5697 32.4923C37.5741 33.0079 37.6047 33.5366 37.6658 34.1133L37.7095 34.4891L37.7205 34.5699C37.7314 34.6683 37.7445 34.7731 37.7598 34.8867C37.7773 35.0047 37.8035 35.186 37.8472 35.3826C37.8581 35.4285 37.869 35.4766 37.8821 35.529L37.8996 35.5945L37.9171 35.6535L37.9389 35.7234C37.9957 35.896 38.0744 36.0708 38.1705 36.2259C38.3518 36.5252 38.5506 36.7262 38.7079 36.8704C38.8172 36.9687 38.8914 37.0299 38.957 37.0845C38.9832 37.1063 39.0094 37.1282 39.0422 37.1544C39.2519 37.327 39.4463 37.4821 39.6342 37.6306C39.8374 37.7901 40.0296 37.9387 40.2175 38.0763C39.9313 38.3385 39.6757 38.6072 39.4441 38.8912C39.3895 38.9567 39.3415 39.0201 39.2956 39.0834L39.1427 39.2932C39.1033 39.3478 39.0728 39.4002 39.04 39.4505C39.0269 39.4701 39.0138 39.492 39.0007 39.5116L38.9963 39.5204C38.9832 39.54 38.9701 39.5619 38.957 39.5815C38.9264 39.6318 38.8936 39.6842 38.8608 39.7432L38.7429 39.9704L38.6861 40.0796L38.6795 40.0927C38.6642 40.1233 38.6511 40.1539 38.638 40.1867L38.6227 40.2238L38.5266 40.4532C38.4982 40.5209 38.4763 40.5887 38.4589 40.6476C38.4523 40.6717 38.4436 40.6935 38.437 40.7154C38.33 41.0278 38.2579 41.3861 38.2186 41.8099V41.823L38.2098 42.0939C38.2076 42.1856 38.2055 42.284 38.2142 42.3844C38.2186 42.4806 38.2295 42.5811 38.2404 42.6816C38.2404 42.6925 38.2382 42.7034 38.236 42.7143C38.2317 42.7668 38.2295 42.8192 38.2295 42.8694V42.9241L38.2426 43.2561L38.2623 43.787L38.3038 44.8815L38.3147 45.0257L38.3278 45.1917C38.3343 45.301 38.3518 45.4015 38.3693 45.491C38.3737 45.5172 38.378 45.5434 38.3846 45.5697L38.4217 45.7619L38.4742 45.9476C38.4807 45.9716 38.4873 45.9957 38.4938 46.0175C38.5179 46.1027 38.5463 46.201 38.5856 46.2972C38.7341 46.7101 38.9504 47.1098 39.2453 47.5184C39.3524 47.6735 39.466 47.8068 39.5774 47.9356C39.6036 47.9662 39.667 48.0405 39.667 48.0405L39.6779 48.0514C39.7129 48.0864 39.7456 48.1213 39.7806 48.1563C39.8898 48.2699 40.0012 48.3857 40.1258 48.4949C40.4403 48.7898 40.7768 49.0345 41.0389 49.218L41.0695 49.2421C41.6616 49.703 42.3148 50.1116 43.0663 50.4895C43.7195 50.8194 44.4142 51.1078 45.1898 51.3699C45.902 51.6102 46.6382 51.8134 47.3766 51.9729C48.0997 52.1302 48.8469 52.2547 49.6006 52.3421C50.3434 52.4317 51.0993 52.4863 51.8508 52.5059C52.078 52.5103 52.3358 52.5147 52.5914 52.5147C52.729 52.5147 52.8535 52.5147 52.9693 52.5103C53.1659 52.5103 53.3626 52.4994 53.5373 52.4928L53.817 52.4819C53.8803 52.4797 53.9437 52.4754 54.007 52.471L54.101 52.4644C54.8874 52.4142 55.6455 52.329 56.3599 52.211C58.0071 51.9379 59.4643 51.5207 60.8188 50.933C61.6184 50.5813 62.3196 50.1924 62.9619 49.7467C63.0428 49.6943 63.1192 49.6353 63.1913 49.5807L63.2306 49.5501C63.2568 49.5304 63.2831 49.5108 63.3071 49.4911C63.3639 49.4474 63.4251 49.4037 63.4841 49.3535L63.4906 49.3469C63.5277 49.3163 63.5627 49.2858 63.602 49.253C63.7287 49.1459 63.8598 49.0367 63.9887 48.91L64.1001 48.803C64.1416 48.7636 64.1897 48.7178 64.2334 48.6697L64.4584 48.4272C64.5196 48.3617 64.572 48.2961 64.6244 48.2306C64.6441 48.2044 64.6659 48.1781 64.69 48.1497L64.8036 48.0077L64.9106 47.8548L65.0089 47.715C65.0417 47.6669 65.0854 47.6058 65.1204 47.5424L65.3061 47.2256L65.3126 47.2147C65.4109 47.0159 65.5354 46.769 65.6272 46.5003C65.8151 45.976 65.9199 45.4189 65.9265 44.8881L65.9418 43.8219L65.9527 42.9568V42.9219C65.9527 42.8913 65.9527 42.8585 65.9505 42.8257C65.9483 42.7777 65.944 42.7318 65.9396 42.6859C65.944 42.651 65.9462 42.6182 65.9505 42.5833C65.9658 42.4063 65.968 42.2315 65.9614 42.072V42.0218C65.9571 41.9563 65.9549 41.8907 65.9505 41.8274V41.8186L65.9243 41.5761L65.909 41.4625V41.4472C65.9025 41.4166 65.8959 41.3861 65.8894 41.3555L65.8828 41.3205L65.8347 41.0824C65.6971 40.4904 65.4481 39.9071 65.0941 39.3478C64.797 38.8803 64.4409 38.4499 64.004 38.0326C63.7724 37.8098 63.5277 37.6001 63.259 37.3947C63.2044 37.2833 63.1476 37.1784 63.0908 37.0801C63.034 36.9862 62.975 36.89 62.9117 36.7961C63.1673 36.5405 63.4163 36.2783 63.6545 36.0118L63.9625 35.6557C64.0324 35.5749 64.1023 35.494 64.1722 35.4023L64.6463 34.7928L64.6572 34.7797C64.7664 34.6246 64.8757 34.4694 64.9827 34.3143L65.1051 34.1396L65.2187 33.9713L65.3257 33.7988L65.5289 33.4667C66.0816 32.5491 66.5491 31.5923 66.9183 30.6223C67.2832 29.6501 67.565 28.6233 67.7572 27.5725L67.8206 27.1836L67.8512 26.9958C67.8621 26.9324 67.8752 26.8581 67.8818 26.7751L67.9626 26.0127C67.9735 25.9318 67.9757 25.8554 67.9779 25.7942L68.0063 25.2174C68.0216 25.0077 68.0194 24.8002 68.0194 24.6014C68.0194 24.5402 68.0194 24.4812 68.0194 24.4266C68.0194 24.3261 68.0172 24.23 68.0128 24.1382C68.0128 24.0989 68.0107 24.0596 68.0085 24.0159C68.0085 23.9744 68.0041 23.9307 68.0041 23.8892C67.9997 23.7996 67.9975 23.7122 67.991 23.6226L67.9582 23.2294L67.9407 23.0306L67.9167 22.8296L67.8708 22.4451C67.8599 22.3512 67.8446 22.2572 67.8293 22.1699C67.8228 22.1305 67.8162 22.0912 67.8097 22.0519V22.0453C67.8009 22.0038 67.7944 21.9601 67.7878 21.9186C67.7747 21.8334 67.7594 21.7417 67.7419 21.6543L67.6655 21.2741C67.4557 20.2801 67.1324 19.2708 66.7042 18.2746C66.3023 17.333 65.7845 16.4111 65.1684 15.5394C65.0242 15.3275 64.8735 15.1331 64.7075 14.9146L64.2683 14.3554C64.0062 14.0167 63.7331 13.6694 63.5212 13.3307L63.5168 13.3242C63.4797 13.2674 63.4447 13.2062 63.4076 13.1429L63.3748 13.0861L63.3442 13.0293C63.3093 12.9659 63.2787 12.9069 63.2525 12.8523L63.2459 12.8414C63.2306 12.8086 63.211 12.7715 63.1957 12.7322C63.1869 12.7125 63.1782 12.6928 63.1695 12.6754C63.1607 12.6535 63.1498 12.6317 63.1411 12.6098C63.1148 12.5443 63.0821 12.4591 63.0559 12.3695C62.9532 12.0462 62.9029 11.701 62.9029 11.3427C62.9029 11.2663 62.9051 11.1832 62.9139 11.0827C62.9139 11.0631 62.9182 11.0456 62.9204 11.0259C62.9204 11.0019 62.9248 10.9757 62.927 10.9538L62.9335 10.9014C62.9357 10.873 62.9401 10.8446 62.9466 10.8097C62.9794 10.5956 63.0187 10.4033 63.0624 10.2329C63.0755 10.187 63.0864 10.1412 63.0996 10.0996C63.1105 10.0996 63.1367 10.104 63.1367 10.104L63.1979 10.1106L63.318 10.1193C63.3923 10.1237 63.4666 10.1259 63.5496 10.1259C63.7265 10.1259 63.8707 10.1171 64.0084 10.0996L64.0717 10.0909C64.1941 10.0756 64.3186 10.0603 64.4497 10.0297C64.7053 9.98168 64.9652 9.89866 65.2908 9.76758L65.3017 9.76321L65.3126 9.75884C65.3454 9.74355 65.3781 9.72826 65.4109 9.71297C65.5049 9.66927 65.6032 9.62558 65.7015 9.56659C65.7211 9.55567 65.743 9.54475 65.7626 9.53382C65.802 9.51198 65.8391 9.49232 65.8784 9.47047L65.8872 9.4661L66.0641 9.3525L66.1581 9.29133L66.2498 9.2236L66.4202 9.09689L66.5819 8.95707L66.6627 8.88717C66.6846 8.86751 66.7042 8.84784 66.7239 8.82818L66.8965 8.65559C66.9314 8.61845 66.9642 8.58132 66.997 8.54199C67.0079 8.5267 67.021 8.51359 67.0341 8.50048C67.1128 8.4131 67.1805 8.31916 67.2395 8.23832C67.2591 8.21211 67.2766 8.18589 67.2963 8.16186L67.3028 8.15312L67.3094 8.1422C67.4405 7.9434 67.6065 7.67905 67.7288 7.37757C67.7354 7.36009 67.7441 7.3448 67.7507 7.32732C67.7703 7.28363 67.7944 7.22901 67.814 7.16566L67.873 6.98433C67.8839 6.94719 67.897 6.90787 67.9102 6.85762C67.9211 6.8183 67.9298 6.77898 67.9364 6.74184L67.9713 6.57362C67.9757 6.55177 67.9801 6.5343 67.9844 6.519C67.9954 6.51245 68.0085 6.50371 68.0259 6.49279C68.1527 6.41851 68.2837 6.34423 68.4126 6.26995C68.4847 6.22844 68.559 6.18694 68.6289 6.14761L69.2384 5.80025C69.3979 5.71287 69.6076 5.60145 69.8195 5.50751C70.2281 5.32618 70.5951 5.23661 70.9425 5.23443C71.0364 5.23443 71.126 5.2388 71.2243 5.24972L71.5826 5.28904C71.7246 5.30434 71.836 5.3087 71.943 5.3087C72.1462 5.3087 72.3297 5.28467 72.5001 5.23661C72.594 5.21258 72.6902 5.17326 72.7776 5.12738C72.8649 5.0815 72.9523 5.02033 73.0375 4.94824C73.173 4.83027 73.2888 4.67516 73.3805 4.49164C73.4592 4.33653 73.5072 4.17924 73.5422 4.05253L73.6318 3.71172C73.6361 3.69862 73.6383 3.68551 73.6427 3.6724C73.6514 3.644 73.6602 3.6156 73.6689 3.5872C73.6973 3.502 73.7301 3.42335 73.7694 3.35344C73.8284 3.25076 73.8808 3.18741 73.9551 3.12842L73.9791 3.10876C74.108 3.01045 74.4117 2.78325 74.4008 2.38346V2.32447L74.3855 2.26767C74.3396 2.0776 74.274 1.88972 74.1932 1.7084C74.1124 1.52707 74.0141 1.35667 73.9027 1.19719C73.6667 0.862937 73.363 0.576748 73.0222 0.367022C72.7535 0.200988 72.1921 -0.142004 71.6503 0.126709C71.4974 0.203171 71.3772 0.299296 71.2701 0.384498C71.2614 0.391052 71.2505 0.399792 71.2417 0.406346C71.2265 0.417269 71.2134 0.428191 71.2002 0.439114C71.1937 0.445668 71.185 0.450037 71.1784 0.454406C71.1566 0.469699 71.1369 0.482808 71.1129 0.498101C71.0779 0.519947 71.0429 0.539609 71.0036 0.561456C70.6716 0.738412 70.3045 0.858568 69.9419 0.908815C69.8021 0.928476 69.6513 0.937216 69.5006 0.937216C69.4613 0.937216 69.4198 0.937216 69.3826 0.937216C69.2057 0.930662 69.0134 0.910999 68.7949 0.876044C68.4869 0.827982 68.1789 0.755889 67.8534 0.677242C67.7507 0.653211 67.648 0.629179 67.5453 0.605148C67.1215 0.504654 66.6649 0.404161 66.1843 0.336437C65.9418 0.301482 65.6993 0.279635 65.4655 0.268711C65.3825 0.262157 65.3039 0.262157 65.2274 0.259973C65.1903 0.259973 65.1509 0.259974 65.1138 0.257789H65.1051C65.057 0.257789 65.0089 0.257789 64.9609 0.257789C64.9128 0.257789 64.8648 0.257789 64.8167 0.257789H64.7446C64.2662 0.268712 63.7855 0.312404 63.3224 0.384498C62.8658 0.454407 62.3939 0.55927 61.9242 0.696903C61.6708 0.768997 61.4261 0.854199 61.2404 0.919739L61.1421 0.956877C61.0613 0.987462 60.9826 1.01805 60.8974 1.05082C60.7751 1.09888 60.6615 1.1535 60.5435 1.20811C60.3578 1.29768 60.1809 1.38725 60.0105 1.47464C59.7876 1.58824 59.5779 1.69529 59.3725 1.78705C58.9138 1.99022 58.6451 2.03391 58.5009 2.03391H58.4812C58.3982 2.03391 58.3239 2.0208 58.2496 1.9924H58.2409C58.2409 1.9924 58.2278 1.98366 58.2212 1.98148C58.2147 1.97711 58.2059 1.97493 58.1994 1.97056C58.1885 1.964 58.1797 1.95963 58.171 1.95526C57.1049 0.642287 57.0568 0.594225 57.0415 0.576748C57.0109 0.546163 56.9782 0.515577 56.9454 0.484991C56.9104 0.454406 56.8689 0.419453 56.8252 0.386683C56.7772 0.351728 56.7378 0.325512 56.6963 0.299296C56.6505 0.270896 56.6024 0.24468 56.5565 0.222834C56.5085 0.198803 56.4582 0.176956 56.4167 0.161664C56.3774 0.146371 56.3315 0.131078 56.2987 0.120155C56.1524 0.0764618 56.0475 0.0611703 55.9863 0.0546163C55.8662 0.0393237 55.7941 0.0393238 55.7548 0.0393238H55.7307C55.7307 0.0393238 55.7132 0.0393238 55.7067 0.0393238C55.6914 0.0393238 55.6761 0.0393233 55.663 0.0371387C55.5865 0.0305847 55.5079 0.026216 55.4358 0.0240313C55.3834 0.0218467 55.3287 0.0174772 55.2763 0.0152925C55.154 0.00873854 55.0273 0 54.8962 0C54.8438 0 54.7935 -7.33276e-07 54.7433 0.00436857C50.5247 0.218465 47.641 0.657579 46.2952 0.900076C46.068 0.941584 45.8386 0.987463 45.6442 1.02897C45.4629 1.06611 45.1854 1.12947 44.8708 1.24088C44.7026 1.30205 44.5475 1.36759 44.4033 1.43969C44.2045 1.54236 44.0297 1.65597 43.8681 1.79141C43.6518 1.97274 43.4705 2.18028 43.3285 2.40967C43.169 2.66746 43.0532 2.97768 43.0051 3.27698C42.9745 3.46267 42.9636 3.65492 42.9767 3.85154C42.9221 3.85154 42.8675 3.85591 42.8129 3.86247C42.6032 3.88431 42.3912 3.9433 42.2056 4.03505C42.1138 4.07874 42.0242 4.12899 41.939 4.19016C41.8669 4.24041 41.7817 4.31032 41.7293 4.35838L41.6638 4.40863C41.6091 4.45232 41.5043 4.53971 41.4344 4.60743C41.3098 4.7254 41.2225 4.81934 41.146 4.90018L41.1263 4.92202C41.0433 5.01159 40.9669 5.09461 40.8882 5.18199C40.5168 5.60145 40.2328 6.01872 39.9816 6.40758L39.8833 6.56051C39.8286 6.6479 39.7806 6.73091 39.7369 6.81612C39.6692 6.94719 39.6146 7.0739 39.5665 7.20935C39.5359 7.30111 39.5119 7.38194 39.4944 7.46059C39.4725 7.55016 39.4551 7.64628 39.4441 7.74678C39.4136 7.98927 39.4201 8.24488 39.4616 8.4983C39.3961 8.52015 39.3349 8.54418 39.2716 8.57258C39.099 8.65122 38.9417 8.74953 38.804 8.86751C38.7385 8.92431 38.6752 8.98548 38.6074 9.06194C38.5965 9.07286 38.5878 9.08379 38.5812 9.09471L38.5747 9.10345L38.3103 9.45299C37.9957 9.89647 37.7314 10.3793 37.5238 10.8839C37.3403 11.334 37.1961 11.8146 37.0847 12.3498L37.0148 12.7169L36.9668 13.0686C36.9515 13.1713 36.9427 13.2696 36.934 13.3657L36.9209 13.499C36.9121 13.5973 36.9012 13.7 36.899 13.8004L36.8925 13.9119C36.8881 13.9905 36.8837 14.0692 36.8816 14.1478L36.8772 14.4952C36.8772 14.5738 36.8772 14.6525 36.8794 14.7289C36.8794 14.7661 36.8794 14.8032 36.8794 14.8382L36.875 14.8251ZM64.111 45.0082C64.111 45.0235 64.111 45.041 64.1089 45.0563C64.1089 45.0585 64.1089 45.0606 64.1089 45.0628C64.1089 45.0781 64.1089 45.0934 64.1067 45.1087C64.1045 45.148 64.1001 45.1895 64.0936 45.2289C64.0936 45.242 64.0914 45.2551 64.0892 45.2682C64.0892 45.2857 64.0848 45.3031 64.0826 45.3206C64.0826 45.3294 64.0805 45.3381 64.0783 45.3468C64.0739 45.3796 64.0674 45.4124 64.0608 45.443C64.0542 45.4714 64.0499 45.4976 64.0433 45.526C64.0346 45.5631 64.0258 45.5981 64.0171 45.6352C64.0695 45.4277 64.0979 45.2158 64.1089 45.0038C64.0936 45.2594 64.0521 45.5107 63.98 45.7575C63.9603 45.8296 63.9297 45.9017 63.9057 45.9716L63.8664 46.0787C63.8511 46.1136 63.8358 46.1486 63.8183 46.1814C63.7855 46.2491 63.7549 46.319 63.72 46.3867L63.6064 46.5855C63.5867 46.6183 63.5693 46.6511 63.5496 46.6838L63.4862 46.7778C63.4425 46.8411 63.401 46.9045 63.3552 46.9657L63.2132 47.1426C63.1891 47.1732 63.1651 47.2016 63.1411 47.2322L63.0646 47.3174L62.9095 47.4856C62.8571 47.5402 62.8003 47.5927 62.7456 47.6451C62.6386 47.7521 62.5206 47.8504 62.4048 47.9488C61.9395 48.3398 61.4217 48.6653 60.8865 48.9493C60.3513 49.2333 59.7898 49.4736 59.2196 49.6768C58.6494 49.8822 58.0639 50.0482 57.4741 50.188C56.8842 50.3278 56.2878 50.4393 55.6892 50.5245C55.5407 50.5485 55.3899 50.5682 55.2392 50.5834C55.0884 50.5987 54.9399 50.6206 54.787 50.6315L54.3347 50.673L53.8825 50.7014C53.2795 50.7342 52.6744 50.7517 52.0714 50.7386C51.4685 50.7276 50.8655 50.6992 50.2647 50.6403C49.6639 50.5856 49.0675 50.5092 48.4755 50.4065C47.8835 50.306 47.2958 50.188 46.7169 50.0351C46.1379 49.8844 45.5677 49.7052 45.0085 49.5042C44.4492 49.3011 43.9052 49.0651 43.3809 48.7964C42.8566 48.5277 42.3585 48.2175 41.9019 47.8657C41.4453 47.514 41.0324 47.1164 40.7091 46.6664C40.6348 46.5528 40.5496 46.4413 40.4884 46.3212C40.4556 46.2622 40.4185 46.2032 40.3901 46.1442L40.3071 45.9607L40.2852 45.9148L40.2678 45.8668L40.235 45.7728C40.2131 45.7095 40.1869 45.6483 40.1738 45.5828L40.1258 45.3927L40.0974 45.1983C40.093 45.1655 40.0864 45.1327 40.0843 45.1022L40.0799 45.0038L40.0755 44.9055V44.8575C40.0711 44.8422 40.0711 44.8203 40.0711 44.8007V44.674C40.1061 44.7198 40.1432 44.7657 40.1782 44.8094C40.2372 44.8815 40.2983 44.9536 40.3617 45.0213C40.4185 45.0825 40.4731 45.1458 40.5321 45.2026L40.7112 45.3752L40.8008 45.4604L40.8948 45.5413L41.0826 45.7007C41.2093 45.8034 41.3404 45.9017 41.4693 46C41.6026 46.0918 41.7359 46.1857 41.8713 46.2731C42.1444 46.4457 42.4218 46.6074 42.7058 46.7559C43.2717 47.0531 43.8615 47.2977 44.4579 47.5096C45.0543 47.7237 45.6639 47.8876 46.2777 48.0296C46.8916 48.1694 47.5099 48.283 48.1303 48.3682C48.7508 48.4512 49.3756 48.5058 49.9982 48.5408C50.623 48.5714 51.2478 48.5779 51.8704 48.5648C52.4931 48.5452 53.1157 48.508 53.7361 48.449C54.3544 48.3857 54.9705 48.2983 55.5844 48.1912C56.8078 47.9706 58.0137 47.6516 59.1694 47.2038C59.7483 46.9788 60.3119 46.721 60.8559 46.4217C61.3977 46.1224 61.9177 45.7816 62.3917 45.3818L62.5665 45.2289L62.6539 45.1524L62.7369 45.0716L62.9007 44.9077C62.9554 44.8531 63.0034 44.7919 63.0559 44.7351C63.1629 44.6237 63.2547 44.497 63.3486 44.3768C63.3967 44.3157 63.436 44.2501 63.4797 44.1868C63.5059 44.1475 63.5321 44.1103 63.5583 44.0688C63.5758 44.0426 63.5911 44.0186 63.6042 43.9902L63.7178 43.787C63.7462 43.7367 63.7702 43.6843 63.7921 43.6297C63.8008 43.6122 63.8074 43.5947 63.8161 43.5773L63.8642 43.4724C63.8751 43.4462 63.8838 43.42 63.8948 43.3916C63.8948 43.3916 63.8948 43.3872 63.8948 43.385C63.9122 43.3413 63.9275 43.2976 63.9428 43.2518C63.945 43.2452 63.9472 43.2386 63.9494 43.2321C63.9603 43.2015 63.9712 43.1731 63.98 43.1425C63.9931 43.0966 64.0062 43.053 64.0149 43.0071C64.0193 42.9874 64.0258 42.9656 64.0302 42.9459C64.0455 42.8847 64.0564 42.8236 64.0674 42.7624C64.0739 42.7733 64.0783 42.7864 64.0826 42.7973C64.1132 42.8673 64.1067 42.9459 64.1089 43.0202L64.1132 44.8487C64.1132 44.899 64.1132 44.947 64.1089 44.9973L64.111 45.0082ZM63.0362 39.7498C63.1432 39.8612 63.2372 39.9835 63.3333 40.1037C63.3595 40.1343 63.3814 40.1648 63.4032 40.1976L63.4688 40.2937C63.5125 40.3593 63.5583 40.4204 63.5955 40.4882L63.7091 40.6892C63.7462 40.7569 63.7768 40.829 63.8096 40.8989L63.8576 41.0037C63.8729 41.0387 63.8838 41.0758 63.8969 41.113C63.9232 41.1851 63.9516 41.2572 63.9734 41.3314C64.0368 41.5499 64.0783 41.7727 64.0979 41.9999C64.0826 41.8208 64.0564 41.6417 64.0127 41.4669C64.0193 41.4931 64.0258 41.5171 64.0324 41.5434C64.0368 41.5608 64.0411 41.5805 64.0455 41.598C64.0586 41.657 64.0674 41.7159 64.0761 41.7749C64.0783 41.7924 64.0826 41.8099 64.0848 41.8295C64.0848 41.8405 64.087 41.8536 64.0892 41.8645C64.0892 41.8711 64.0892 41.8754 64.0892 41.882C64.0914 41.8973 64.0936 41.9126 64.0958 41.93C64.0979 41.9497 64.1001 41.9694 64.1023 41.9912C64.1023 42.0065 64.1045 42.0218 64.1067 42.0393C64.1089 42.083 64.111 42.1245 64.1132 42.1682C64.1132 42.1944 64.1132 42.2206 64.1132 42.2468C64.1089 42.4172 64.0936 42.5876 64.0652 42.7558C64.0652 42.758 64.0652 42.7602 64.0652 42.7624C64.0652 42.7624 64.0652 42.7689 64.0652 42.7711C64.0433 42.9022 64.0149 43.0311 63.9756 43.1578C63.9516 43.2321 63.9232 43.3042 63.8991 43.3763C63.886 43.4112 63.8729 43.4484 63.8598 43.4855L63.8118 43.5904C63.779 43.6603 63.7484 43.7324 63.7113 43.8001L63.5977 44.0011C63.5867 44.0251 63.5714 44.0448 63.5583 44.0666C63.5299 44.1103 63.4993 44.1518 63.4709 44.1933C63.4273 44.2567 63.3857 44.3222 63.3377 44.3812C63.2394 44.5014 63.1476 44.6237 63.0406 44.7351C62.9881 44.7919 62.9379 44.8487 62.8833 44.9034L62.7172 45.0628L62.6342 45.1437L62.5468 45.2179L62.3699 45.3687C62.2519 45.467 62.1274 45.5587 62.005 45.6505C61.8783 45.7357 61.7516 45.8275 61.6227 45.9083C61.3628 46.0721 61.0962 46.2272 60.8232 46.3693C60.277 46.6554 59.7068 46.8914 59.1279 47.0967C58.5489 47.3043 57.9547 47.4659 57.3561 47.6036C56.7575 47.739 56.1524 47.8504 55.5428 47.9335C54.9333 48.0143 54.3238 48.0667 53.7099 48.1017C53.0982 48.1301 52.4843 48.1366 51.8726 48.1257C51.2609 48.1082 50.6492 48.0711 50.0419 48.0121C49.4346 47.9488 48.8316 47.8636 48.2308 47.7565C47.0336 47.5402 45.8539 47.2256 44.731 46.7909C44.1696 46.5724 43.6234 46.3212 43.1013 46.035C42.5813 45.7466 42.0854 45.4211 41.6419 45.0454L41.4781 44.9012L41.3972 44.8291L41.3208 44.7526L41.1678 44.6019C41.1176 44.5494 41.0717 44.4948 41.0237 44.4424C40.9253 44.3397 40.8423 44.2239 40.7549 44.1147C40.7112 44.0601 40.6763 44.0011 40.637 43.9421C40.5998 43.8831 40.5561 43.8285 40.5256 43.7673L40.4229 43.5882C40.3901 43.527 40.3661 43.4659 40.3355 43.4025L40.2918 43.3107C40.2787 43.2802 40.2678 43.2474 40.2568 43.2168C40.235 43.1534 40.2088 43.0901 40.1913 43.0267C40.1891 43.0158 40.1847 43.0049 40.1826 42.994V42.935H40.1673C40.1301 42.7908 40.1061 42.6444 40.0908 42.4959C40.0821 42.4107 40.0777 42.3276 40.0755 42.2424C40.0755 42.1813 40.0799 42.1179 40.0864 42.0567C40.1017 41.8558 40.1367 41.6548 40.1935 41.4582C40.2131 41.3948 40.2372 41.3314 40.259 41.2681C40.2699 41.2375 40.2809 41.2047 40.294 41.1741L40.3377 41.0824C40.3661 41.0212 40.3923 40.9579 40.4251 40.8967L40.5277 40.7176C40.5583 40.6564 40.602 40.6018 40.6392 40.5428C40.6785 40.486 40.7134 40.4248 40.7593 40.3702C40.8467 40.2588 40.9275 40.1452 41.028 40.0425C41.0761 39.9901 41.122 39.9355 41.1722 39.8852L41.3251 39.7323L41.4016 39.6558L41.4824 39.5837L41.6463 39.4395C41.9041 39.2211 42.1815 39.0201 42.4699 38.8322C42.4633 38.865 42.4568 38.8977 42.4524 38.9327H42.4262V39.0157V39.1643C42.4175 39.2364 42.4153 39.3085 42.4131 39.3827C42.4131 39.4352 42.4153 39.4854 42.4196 39.5378C42.4175 39.7388 42.4153 39.9398 42.4153 40.1408V40.5209V40.6149V40.7132L42.4262 40.9382C42.4546 41.2375 42.5267 41.5302 42.6359 41.8033C42.6774 41.9016 42.7233 41.9978 42.7736 42.0917C42.85 42.2359 42.9352 42.3735 43.027 42.5068C43.0379 42.5243 43.051 42.5396 43.0619 42.557C43.1537 42.6816 43.252 42.7995 43.3525 42.9131C43.6256 43.2146 43.9292 43.4746 44.2482 43.704C44.6873 44.0186 45.1548 44.2764 45.6355 44.4948C46.5967 44.9318 47.6038 45.2158 48.6219 45.4015C49.6399 45.585 50.6689 45.6724 51.6957 45.6702C52.7203 45.6724 53.7449 45.5915 54.7542 45.432C55.7613 45.266 56.7575 45.0279 57.7122 44.6761C58.1906 44.5014 58.6582 44.3004 59.1082 44.0623C59.5582 43.8263 59.9908 43.5554 60.3862 43.2365C60.4867 43.16 60.5807 43.0726 60.6768 42.9896C60.7248 42.9481 60.7685 42.9022 60.8144 42.8585C60.8581 42.8126 60.9062 42.7711 60.9477 42.7231C60.987 42.6794 61.0263 42.6335 61.0656 42.5898C61.0744 42.5789 61.0831 42.568 61.0919 42.5592C61.1006 42.5483 61.1093 42.5396 61.1181 42.5286C61.1443 42.498 61.1683 42.4675 61.1902 42.4347C61.271 42.3364 61.3387 42.2293 61.4086 42.1245C61.5397 41.9082 61.6555 41.681 61.7298 41.4385C61.7385 41.4101 61.7473 41.3817 61.7538 41.3533C61.638 41.764 61.4174 42.1572 61.105 42.5264C61.1006 42.5264 61.0962 42.5264 61.0919 42.5264C61.0831 42.5374 61.0722 42.5483 61.0635 42.5592C61.0547 42.5701 61.0438 42.5811 61.0351 42.5898C61.0001 42.6291 60.963 42.6684 60.9258 42.7078C60.8843 42.7536 60.8363 42.7952 60.7904 42.8389C60.7445 42.8825 60.7008 42.9284 60.6527 42.9677C60.5566 43.0486 60.4627 43.1338 60.36 43.2081C59.958 43.5139 59.5211 43.7695 59.0689 43.9902C58.6145 44.2064 58.1426 44.3878 57.662 44.5385C56.7007 44.8334 55.7089 45.0191 54.7105 45.1174C53.7121 45.2092 52.7072 45.2223 51.711 45.1546C51.2129 45.124 50.717 45.0672 50.2254 44.9929C49.7339 44.9208 49.2445 44.8313 48.7639 44.7155C47.8026 44.4817 46.8632 44.1693 45.9937 43.7411C45.559 43.527 45.1461 43.2802 44.766 42.9983C44.7223 42.9656 44.6786 42.9306 44.6349 42.8957C44.5868 42.8563 44.5366 42.817 44.4907 42.7777C44.4055 42.699 44.3137 42.6248 44.2351 42.5417C44.2242 42.5308 44.2111 42.5199 44.2001 42.509C44.0712 42.3823 43.9555 42.249 43.8484 42.1114C43.8287 42.0851 43.8091 42.0589 43.7872 42.0327C43.7829 42.0262 43.7785 42.0218 43.7741 42.0152L43.7829 42.024L43.8877 42.1136L43.9314 42.1507C44.0319 42.2315 44.1346 42.308 44.2351 42.3866C44.2984 42.4281 44.3596 42.4718 44.423 42.5133C44.4667 42.5417 44.5082 42.5723 44.5519 42.5985C44.7157 42.7012 44.8839 42.8017 45.0522 42.8935C45.1046 42.9219 45.1548 42.9503 45.2073 42.9765C45.6507 43.2081 46.1139 43.3959 46.5792 43.5598C47.0446 43.7236 47.523 43.8503 47.9992 43.9574C48.4777 44.0644 48.9605 44.1496 49.4433 44.213C49.9261 44.2742 50.4133 44.3135 50.8983 44.3375C51.3833 44.3572 51.8683 44.3594 52.3533 44.3463C52.8382 44.3288 53.3211 44.296 53.8017 44.2458C54.2823 44.1933 54.7607 44.1212 55.2348 44.036C56.1829 43.8591 57.118 43.6035 58.0137 43.2539C58.4615 43.077 58.8985 42.8738 59.3201 42.6422C59.3398 42.6313 59.3572 42.6204 59.3769 42.6095C59.4097 42.592 59.4424 42.5745 59.473 42.5548H59.4752C59.5036 42.5374 59.532 42.5199 59.5604 42.5024C59.8925 42.3036 60.2136 42.0808 60.5086 41.8317C60.8734 41.5193 61.2033 41.1632 61.448 40.7503L61.5375 40.593C61.5659 40.5406 61.5878 40.4838 61.614 40.4314L61.6511 40.3505C61.6621 40.3243 61.6708 40.2937 61.6817 40.2653C61.6839 40.2566 61.6883 40.2479 61.6905 40.2391C61.6992 40.2151 61.7079 40.1911 61.7145 40.167C61.7232 40.143 61.732 40.119 61.7385 40.0949C61.7494 40.06 61.7582 40.025 61.7647 39.9901C61.7669 39.9813 61.7691 39.9704 61.7713 39.9617C61.7757 39.9486 61.7778 39.9355 61.78 39.9202C61.8062 39.8044 61.8237 39.6864 61.8325 39.5662H61.8346L61.839 40.6892L61.8434 39.5619V39.5575H61.8303C61.8303 39.5575 61.8303 39.5597 61.8303 39.5619C61.8303 39.5619 61.8303 39.5641 61.8303 39.5662C61.815 39.7432 61.7822 39.9202 61.732 40.0927C61.7145 40.1495 61.6926 40.2063 61.673 40.261C61.6621 40.2894 61.6533 40.3178 61.6424 40.3462L61.6053 40.427C61.579 40.4794 61.5572 40.5362 61.5288 40.5887L61.4392 40.7438C61.4108 40.7962 61.3737 40.8443 61.3409 40.8945C61.306 40.9426 61.2754 40.995 61.236 41.0409C61.1618 41.1348 61.0897 41.2288 61.0045 41.314C60.963 41.3577 60.9236 41.4035 60.8821 41.445L60.7532 41.5696L60.6877 41.6307L60.62 41.6897L60.4845 41.8055C60.3906 41.882 60.2945 41.9519 60.2005 42.024C60.1022 42.0917 60.0039 42.1594 59.9034 42.2228C59.7505 42.3189 59.5932 42.4128 59.4337 42.498C59.3988 42.5155 59.366 42.5352 59.331 42.5527C59.3157 42.5614 59.2983 42.5701 59.283 42.5789C59.2633 42.5898 59.2415 42.6007 59.2218 42.6095C58.8176 42.8148 58.396 42.9874 57.9678 43.136C57.5178 43.2954 57.0568 43.4156 56.5937 43.5205C56.1283 43.6231 55.6608 43.7062 55.1889 43.7673C54.717 43.8285 54.2452 43.8656 53.7711 43.8875C53.297 43.9072 52.823 43.9093 52.3489 43.8962C51.8748 43.8787 51.4051 43.846 50.9354 43.7979C50.4657 43.7455 50.0004 43.6756 49.5372 43.5904C48.6393 43.4222 47.7568 43.184 46.9157 42.8585C46.8916 42.8498 46.8676 42.8389 46.8436 42.8301C46.5989 42.734 46.3629 42.6291 46.1292 42.5177H46.127C45.9457 42.4325 45.7709 42.3408 45.5961 42.2446C45.5393 42.2119 45.4803 42.1791 45.4235 42.1463C45.0871 41.9497 44.7703 41.729 44.482 41.4844C44.1477 41.1982 43.8506 40.8748 43.6409 40.5187L43.5644 40.3855C43.5404 40.3396 43.5207 40.2937 43.4989 40.2479L43.4661 40.1801C43.4574 40.1561 43.4486 40.1321 43.4421 40.1102C43.4268 40.0622 43.4071 40.0163 43.3918 39.9682C43.3787 39.9223 43.3678 39.8765 43.3569 39.8328C43.3263 39.6886 43.3088 39.5422 43.3066 39.3958V39.3915C43.311 39.2517 43.3241 39.1118 43.3525 38.9742C43.5841 39.1315 43.8331 39.2735 44.1018 39.4046H44.104C44.4383 39.5662 44.8009 39.7061 45.1963 39.8284C45.8299 40.0228 46.5464 40.1648 47.3548 40.261C47.7305 40.3309 48.1085 40.3877 48.4886 40.4248C48.6809 40.4401 48.8731 40.4598 49.0654 40.4663L49.3537 40.4816L49.6443 40.486C49.8365 40.4925 50.031 40.486 50.2254 40.4794C50.3215 40.4794 50.4198 40.4707 50.516 40.4641C50.6143 40.4576 50.7104 40.4532 50.8065 40.4445C51.001 40.4248 51.1932 40.4117 51.3855 40.3811L51.6738 40.3418L51.96 40.2915C51.9928 40.2872 52.0256 40.2806 52.0561 40.2763C53.0764 40.1517 54.066 39.9333 55.0185 39.6296C55.1409 39.5903 55.2654 39.5509 55.3877 39.5073C55.486 39.4723 55.5865 39.4395 55.6848 39.4024C56.1677 39.2254 56.6395 39.0266 57.1005 38.806C57.1049 38.806 57.1092 38.8038 57.1136 38.7994C57.4719 38.6399 57.8214 38.4652 58.1644 38.2751L58.337 38.1834C58.3938 38.1528 58.4506 38.1178 58.5074 38.0851C58.6188 38.0195 58.7324 37.954 58.846 37.8862C59.0427 37.7617 59.2415 37.6394 59.4337 37.5061C59.4534 37.493 59.473 37.4799 59.4927 37.4668C59.4971 37.4646 59.4993 37.4624 59.5036 37.4602C59.5189 37.4515 59.532 37.4406 59.5473 37.4318C59.6631 37.3554 59.7767 37.2724 59.8903 37.1893C59.9733 37.1282 60.0585 37.067 60.1415 37.0036C60.2071 36.9512 60.2726 36.901 60.3382 36.8507C60.3884 36.89 60.4387 36.9272 60.4889 36.9687L60.6243 37.0845L60.6921 37.1435L60.7576 37.2046L60.8865 37.3292C60.928 37.3707 60.9673 37.4165 61.0088 37.4602C61.0919 37.5454 61.1639 37.6416 61.2404 37.7333C61.2797 37.7792 61.3103 37.8316 61.3453 37.8797C61.378 37.9299 61.4152 37.978 61.4436 38.0304L61.5332 38.1855C61.5616 38.238 61.5856 38.2926 61.6096 38.3472L61.6468 38.428C61.6577 38.4543 61.6686 38.4848 61.6773 38.5111C61.6839 38.5329 61.6926 38.5547 61.7014 38.5744C61.7057 38.5853 61.7101 38.5984 61.7145 38.6094C61.7189 38.6225 61.7232 38.6356 61.7276 38.6487C61.7298 38.6596 61.7341 38.6684 61.7385 38.6793C61.8062 38.9087 61.8412 39.1468 61.8456 39.3871C61.8456 39.2058 61.8259 39.0288 61.7844 38.8519C61.7844 38.8409 61.78 38.8322 61.7778 38.8235C61.7713 38.7951 61.7625 38.7645 61.756 38.7361C61.7516 38.7186 61.7473 38.6989 61.7429 38.6793C61.7407 38.6705 61.7363 38.6618 61.7341 38.6552C61.8259 38.7164 61.9155 38.782 62.0072 38.8431C62.1296 38.9371 62.2541 39.0288 62.3721 39.1249L62.5468 39.2757L62.6342 39.35L62.7172 39.4308L62.8833 39.5925C62.9379 39.6471 62.9881 39.7061 63.0406 39.7607L63.0362 39.7498ZM56.4145 2.82694L56.9126 2.75485C56.9694 2.77232 57.0306 2.81165 57.1049 2.86189C57.1901 2.92306 57.2884 2.99953 57.402 3.06288C57.5134 3.12405 57.627 3.17867 57.7493 3.22018C57.9897 3.30538 58.2518 3.33378 58.5009 3.32067C58.7521 3.30319 58.9946 3.24858 59.2196 3.16993C59.4468 3.09128 59.6631 2.99297 59.8685 2.88811C60.076 2.78106 60.2748 2.66746 60.4714 2.55386C60.668 2.44026 60.8603 2.32665 61.0547 2.22179C61.153 2.16936 61.2492 2.11911 61.3453 2.07542C61.4436 2.02954 61.5463 1.98585 61.6468 1.94216C62.0553 1.77175 62.4726 1.62757 62.8986 1.51396C63.3246 1.40036 63.7593 1.31516 64.1962 1.26054C64.6332 1.20374 65.0745 1.18627 65.5158 1.19719C65.9527 1.20593 66.3896 1.26491 66.8266 1.34356C67.2657 1.42221 67.7026 1.52052 68.1527 1.6079C68.6027 1.69311 69.068 1.75864 69.5465 1.74335C70.0249 1.73243 70.499 1.62757 70.9403 1.44624C71.1609 1.35448 71.3728 1.2518 71.5826 1.1098C71.6896 1.03334 71.7748 0.956877 71.8556 0.900076C71.895 0.869491 71.9343 0.84546 71.9714 0.825798L71.9845 0.819245H71.9933C71.9933 0.819245 72.0042 0.810506 72.0086 0.810506C72.0151 0.810506 72.0217 0.80832 72.026 0.806136H72.0457C72.1025 0.797397 72.1877 0.817059 72.2729 0.852013C72.3603 0.886968 72.4499 0.935031 72.5416 0.991832C72.5897 1.02023 72.6334 1.04645 72.6749 1.07485C72.7186 1.10325 72.7601 1.13383 72.7994 1.16442C72.8802 1.22777 72.9567 1.2955 73.0266 1.36978C73.1686 1.51833 73.2931 1.68437 73.3914 1.86569C73.4395 1.95526 73.4854 2.0492 73.5203 2.14751C73.54 2.19557 73.5553 2.24364 73.5706 2.29389C73.5793 2.31792 73.5859 2.34195 73.5924 2.36816L73.599 2.39001C73.599 2.39001 73.5924 2.39875 73.5881 2.40312C73.5619 2.43152 73.5182 2.4621 73.4592 2.5058C73.3412 2.59755 73.232 2.71552 73.1511 2.83786C73.0703 2.95802 73.0026 3.09347 72.9523 3.22455C72.9021 3.35781 72.8649 3.48889 72.83 3.61342C72.795 3.73794 72.7623 3.86028 72.7251 3.96733C72.688 4.07219 72.6399 4.1705 72.5809 4.24696C72.522 4.32343 72.452 4.38023 72.369 4.41518C72.3472 4.42611 72.3275 4.43048 72.3035 4.43921C72.2795 4.44577 72.2532 4.45451 72.227 4.45888C72.1768 4.4698 72.1222 4.47635 72.0676 4.48072C71.8469 4.49601 71.6044 4.45669 71.3444 4.41955C71.2789 4.41081 71.2133 4.40207 71.1434 4.39771C71.0757 4.38897 71.0036 4.38897 70.9359 4.38678C70.866 4.38678 70.7961 4.38678 70.7284 4.38897C70.6606 4.39552 70.5907 4.39552 70.523 4.40644C70.2477 4.43703 69.979 4.50475 69.7256 4.59214C69.47 4.67952 69.2275 4.78876 68.9894 4.90236C68.8714 4.95916 68.7556 5.01815 68.642 5.07932L68.299 5.26064L67.6109 5.62111C67.5016 5.68228 67.364 5.75001 67.2373 5.88108C67.2067 5.91385 67.1761 5.95099 67.1521 5.99032C67.1259 6.02746 67.1084 6.06678 67.0887 6.10392C67.056 6.1782 67.0319 6.25248 67.0145 6.3202C66.9948 6.38792 66.9817 6.45128 66.9664 6.51026C66.9511 6.56925 66.9358 6.61731 66.914 6.67411L66.8506 6.84233L66.7741 7.004C66.3503 7.86475 65.5223 8.52233 64.5939 8.78012C64.3601 8.84129 64.1242 8.8828 63.8838 8.8959C63.7637 8.90246 63.6435 8.90246 63.5234 8.8959C63.4644 8.89153 63.4054 8.88717 63.3442 8.88061C63.2787 8.87187 63.2437 8.8675 63.1913 8.85221C63.1411 8.83692 63.0843 8.81726 63.0187 8.79541C62.986 8.78449 62.9532 8.77356 62.916 8.76264C62.8986 8.75609 62.8789 8.75172 62.8592 8.74735L62.8308 8.7408L62.7915 8.73424C62.6888 8.71676 62.5731 8.73424 62.4791 8.77356C62.3852 8.81289 62.3131 8.86969 62.2519 8.92868C62.1907 8.98766 62.1427 9.04883 62.099 9.11C62.0553 9.17117 62.0203 9.23452 61.9854 9.29788C61.9177 9.42459 61.863 9.54912 61.8172 9.67801C61.7232 9.93361 61.6511 10.1892 61.59 10.447C61.531 10.7026 61.4829 10.9735 61.4633 11.2422C61.4217 11.7818 61.4676 12.3258 61.6053 12.8501C61.7451 13.3744 61.9723 13.866 62.241 14.3204C62.5075 14.777 62.8112 15.203 63.1083 15.6225C63.2568 15.8322 63.4032 16.0419 63.5452 16.2516C63.6151 16.3565 63.6807 16.4657 63.7506 16.5706C63.8183 16.6776 63.8882 16.7825 63.9494 16.8939L64.1395 17.2216C64.2028 17.3308 64.2574 17.4444 64.3186 17.5559C64.4409 17.7787 64.5414 18.0103 64.6528 18.2375C64.8582 18.7006 65.0526 19.1681 65.2077 19.6488L65.2689 19.8279C65.2886 19.8891 65.306 19.9481 65.3235 20.0092L65.4328 20.3741C65.4655 20.4964 65.4961 20.6187 65.5289 20.7411L65.5769 20.9246C65.5922 20.9858 65.6032 21.0491 65.6185 21.1103L65.6993 21.4817L65.7648 21.8531L65.7976 22.0431L65.8238 22.231L65.8762 22.6068L65.9134 22.9847L65.933 23.1748L65.944 23.3649L65.968 23.745L65.9767 24.1251C66.0117 26.1503 65.6185 28.1776 64.8582 30.0564C64.1023 31.9353 62.975 33.6677 61.5616 35.1227C61.3868 35.3062 61.2011 35.4788 61.0198 35.6557C60.8319 35.8239 60.6462 35.9987 60.4496 36.1582C60.2966 36.2915 60.1372 36.416 59.9799 36.5405C59.9012 36.4859 59.8226 36.4335 59.7417 36.3832C59.9165 36.1866 60.0869 35.9878 60.2508 35.7824C61.2273 34.559 62.005 33.174 62.5359 31.7037C63.069 30.2334 63.3573 28.6779 63.401 27.1203C63.4207 26.3404 63.3814 25.5604 63.2743 24.7893C63.1673 24.0181 63.0056 23.2556 62.7784 22.5107C62.5599 21.8028 62.2956 21.1103 61.9745 20.444C61.8346 20.1381 61.6795 19.8388 61.5179 19.5461C61.4654 19.45 61.4108 19.3538 61.354 19.2577C60.2442 17.3614 58.6997 15.7273 56.8711 14.5105C54.8088 13.1385 52.3882 12.3105 49.9152 12.1379C49.5766 12.1139 49.2358 12.103 48.895 12.103C49.5525 12.1292 50.2057 12.2013 50.8524 12.3171C50.6012 12.2821 50.3499 12.2537 50.0987 12.2319C50.031 12.2253 49.9632 12.2209 49.8933 12.2166C49.8846 12.2166 49.8759 12.2166 49.8671 12.2166C49.7295 12.2057 49.5919 12.1991 49.452 12.1947C49.2489 12.186 49.0479 12.1816 48.8447 12.1838C48.8928 12.186 48.9386 12.1882 48.9867 12.1904C49.1374 12.1991 49.286 12.21 49.4367 12.2209C49.5023 12.2253 49.5656 12.2319 49.629 12.2384C49.6639 12.2428 49.7011 12.245 49.736 12.2493C49.7426 12.2493 49.747 12.2493 49.7535 12.2493C49.7535 12.2493 49.7535 12.2493 49.7557 12.2493C50.0375 12.2799 50.3193 12.3171 50.599 12.3629C50.6973 12.3782 50.7978 12.3957 50.8961 12.4154C50.9507 12.4263 51.0031 12.435 51.0578 12.446C51.084 12.4503 51.108 12.4569 51.1342 12.4613C51.1801 12.47 51.226 12.4809 51.2697 12.4897C51.9513 12.6382 52.622 12.837 53.2774 13.0795C53.9852 13.3482 54.6712 13.6716 55.3287 14.0473C55.9841 14.4274 56.6111 14.8556 57.1988 15.3341C57.7843 15.8125 58.337 16.3325 58.8395 16.8983C59.3463 17.4597 59.8051 18.0671 60.2136 18.7028C60.2923 18.823 60.3687 18.9475 60.4408 19.0698C60.7554 19.5963 61.0351 20.1425 61.2797 20.704C61.5812 21.3987 61.8237 22.1174 62.0116 22.8493C62.1973 23.5833 62.3218 24.3305 62.3917 25.0842C62.4179 25.3966 62.4354 25.7112 62.4442 26.0236C62.431 27.5004 62.1536 28.9663 61.7036 30.3601C61.4785 31.057 61.1945 31.7321 60.8668 32.3809C60.5391 33.0319 60.1525 33.6502 59.7308 34.2401C59.3529 34.76 58.9443 35.2581 58.5009 35.7234C58.4878 35.7365 58.4768 35.7497 58.4637 35.7628C58.4506 35.7759 58.4375 35.789 58.4244 35.8043C58.3021 35.931 58.1754 36.0555 58.0486 36.1778C57.8564 36.3614 57.6598 36.5383 57.4588 36.7087C57.4282 36.7349 57.3998 36.759 57.3692 36.783C57.3364 36.8114 57.3037 36.8376 57.2709 36.8638C57.083 37.0168 56.8908 37.1653 56.6942 37.3073C55.5385 38.1615 54.2299 38.7776 52.8492 39.114C52.6263 39.1686 52.4013 39.2145 52.1763 39.2538C51.7044 39.3347 51.226 39.3806 50.7475 39.3958C50.3936 39.4024 50.0419 39.398 49.688 39.3718L49.4236 39.3521L49.1593 39.3237C48.9823 39.3085 48.8076 39.2779 48.6328 39.256C48.458 39.2298 48.2832 39.1992 48.1085 39.1708C47.9468 39.1359 47.783 39.1075 47.6213 39.0703C47.6104 39.0681 47.5995 39.066 47.5885 39.0638L47.3286 39.007C47.2412 38.9873 47.156 38.9633 47.0708 38.9414C46.9856 38.9196 46.8982 38.8977 46.813 38.8737L46.5574 38.8016C45.8736 38.6094 45.2007 38.3691 44.5431 38.0938C44.4164 38.0414 44.2897 37.9867 44.163 37.9321C44.0887 37.8994 44.0144 37.8644 43.9423 37.8316C43.8528 37.7901 43.7654 37.7486 43.6758 37.7049C43.6387 37.6874 43.6015 37.67 43.5644 37.6525C43.5513 37.6459 43.5404 37.6394 43.5273 37.6328C43.5142 37.6263 43.5032 37.6197 43.4901 37.6132L43.3197 37.5192C43.2869 37.5017 43.2542 37.4843 43.2214 37.4646C43.2018 37.4537 43.1843 37.4428 43.1646 37.434C43.1537 37.4275 43.145 37.4231 43.134 37.4165C43.1297 37.4209 43.1275 37.4253 43.1231 37.4297C43.11 37.4231 43.0969 37.4165 43.0838 37.41C42.9265 37.327 42.7736 37.2396 42.6184 37.15C42.1597 36.8813 41.7118 36.5842 41.2683 36.2718C41.1176 36.1647 40.9669 36.0577 40.8183 35.9485L40.3748 35.6208L40.1563 35.4547C40.0886 35.4023 40.0275 35.3564 39.9772 35.3084C39.927 35.2603 39.8876 35.2166 39.8592 35.1685C39.8461 35.1445 39.833 35.1205 39.8221 35.0964C39.809 35.0615 39.7959 35.02 39.7828 34.9807C39.7347 34.8212 39.6998 34.6486 39.6648 34.4694L39.5643 33.9255C39.5315 33.7441 39.5031 33.5628 39.4747 33.3815C39.4485 33.2089 39.4223 33.0319 39.4026 32.8572C39.4005 32.7174 39.4005 32.5754 39.4026 32.4355C39.4157 31.6862 39.5031 30.9391 39.6561 30.2072C39.8068 29.4731 40.0318 28.7566 40.318 28.0662C40.3289 28.0378 40.342 28.0116 40.353 27.9832C40.484 27.6664 40.637 27.3562 40.7943 27.0504C40.9734 26.7227 41.1569 26.3972 41.3645 26.0848C42.9964 23.5811 45.5808 21.7133 48.4668 20.9858H48.4733L49.8256 20.6319L48.4296 20.5467C48.0735 20.5248 47.7152 20.5314 47.3591 20.5663C47.145 20.586 46.9331 20.6166 46.7234 20.6559C46.4438 20.7083 46.1663 20.7782 45.8932 20.8656C45.7032 20.9268 45.5328 21.0032 45.3733 21.0557C45.3624 21.0142 45.3514 20.9748 45.3405 20.9377C45.3252 20.8809 45.3078 20.8307 45.299 20.7892L45.2684 20.6275L45.2073 20.2998C45.1854 20.1906 45.1723 20.0791 45.1548 19.9677L45.0565 19.3058C45.0216 19.0851 44.9997 18.8645 44.9822 18.6438C44.9145 17.759 44.9342 16.8655 45.0347 15.9807C45.133 15.0959 45.3121 14.2221 45.5677 13.3679C45.8211 12.5159 46.1554 11.6857 46.553 10.8905C46.6011 10.79 46.6557 10.6917 46.7059 10.5934C46.7584 10.4951 46.8086 10.3946 46.8654 10.2985C46.9768 10.104 47.0839 9.90958 47.204 9.7217C47.4334 9.33939 47.689 8.97455 47.949 8.61409C48.482 7.8997 49.0675 7.22464 49.712 6.61076C50.9944 5.37643 52.4953 4.36493 54.1206 3.63963C54.527 3.4583 54.9421 3.29664 55.3637 3.15245C55.5734 3.08036 55.7875 3.01264 56.0016 2.9471C56.1371 2.90559 56.2703 2.86626 56.4058 2.83131L56.4145 2.82694ZM38.3715 16.1664L38.3868 15.8562C38.4021 15.6508 38.413 15.4433 38.4348 15.2379C38.4742 14.8272 38.5288 14.4187 38.6009 14.0145C38.7451 13.2084 38.9701 12.4154 39.3131 11.6857C39.49 11.3231 39.6976 10.9779 39.9379 10.6611L40.069 10.4994C40.1891 10.6502 40.318 10.8118 40.4993 10.9517C40.5976 11.0259 40.7156 11.0937 40.8445 11.133C40.9734 11.1723 41.1089 11.1832 41.2377 11.1745L41.3339 11.1636C41.3645 11.1592 41.395 11.1527 41.4256 11.1439C41.4846 11.133 41.5502 11.109 41.6113 11.0893C41.7315 11.0391 41.8429 10.9713 41.9412 10.8927C42.0373 10.8097 42.1225 10.7157 42.1924 10.613C42.2602 10.5082 42.3213 10.3968 42.3607 10.2766C42.4393 10.0407 42.459 9.77195 42.3825 9.51853C42.3082 9.2673 42.164 9.07286 42.0308 8.90246L41.8363 8.65996C41.7752 8.5835 41.7227 8.50704 41.6769 8.43058C41.5851 8.27547 41.537 8.11817 41.5523 7.98272C41.5633 7.85164 41.6594 7.69653 41.7708 7.5152C41.9849 7.16347 42.2077 6.82267 42.4633 6.51682C42.5944 6.35952 42.7299 6.19786 42.8631 6.06459C42.8893 6.03838 42.9134 6.01653 42.9396 5.9925C42.9833 6.08207 43.0379 6.16727 43.1013 6.24592C43.1821 6.34205 43.2738 6.42725 43.3765 6.49716C43.5797 6.63916 43.8244 6.72218 44.0756 6.73091C44.329 6.74184 44.5803 6.66537 44.79 6.53211C44.9997 6.39885 45.1723 6.20223 45.2684 5.9641C45.3646 5.72816 45.3755 5.47474 45.3405 5.24317C45.3078 5.01159 45.2226 4.78876 45.1308 4.59432C45.039 4.39989 44.9407 4.22075 44.873 4.04379C44.8053 3.86683 44.766 3.68769 44.7878 3.52821C44.8097 3.36873 44.8927 3.22673 45.0238 3.10876C45.1548 2.99079 45.3252 2.89903 45.5044 2.82257C45.6857 2.74611 45.878 2.68275 46.0768 2.62377C46.2756 2.56478 46.4722 2.5058 46.6732 2.45118C48.268 2.00769 49.9108 1.73898 51.5668 1.6363C52.3948 1.58387 53.2271 1.57513 54.0551 1.6079C54.4702 1.6232 54.8853 1.6516 55.2982 1.68874C55.4008 1.69747 55.5035 1.71058 55.6084 1.71932C55.6652 1.72587 55.7198 1.72369 55.7613 1.73024C55.7832 1.73243 55.7963 1.7368 55.8028 1.74335C55.8116 1.74991 55.8225 1.76301 55.829 1.78049C55.8465 1.81763 55.8574 1.86569 55.8771 1.92031C55.8815 1.93342 55.888 1.94871 55.8924 1.96182L55.9099 1.99896C55.9208 2.02299 55.9339 2.0492 55.947 2.07105C55.9601 2.0929 55.971 2.11474 55.9863 2.13659C55.8094 2.18902 55.6412 2.23927 55.4882 2.28952C55.2632 2.36161 55.0382 2.43807 54.8154 2.5189L54.5707 2.58226C54.4374 2.61284 54.3085 2.65654 54.1774 2.69805L53.7864 2.82039C53.6553 2.85752 53.5286 2.91214 53.3997 2.95802L53.0152 3.10221C51.995 3.49763 51.0141 4.00228 50.0987 4.60743C49.1833 5.21258 48.3248 5.90948 47.5536 6.69596C47.1713 7.09138 46.8021 7.5021 46.4656 7.93684C46.3018 8.15749 46.1248 8.37159 45.9763 8.60316C45.8211 8.83255 45.6617 9.05538 45.5219 9.29351C45.2378 9.7654 44.9779 10.2526 44.7463 10.7529C44.5169 11.2531 44.3181 11.7665 44.1433 12.2887C43.8025 13.3351 43.5775 14.4143 43.4595 15.5045C43.3459 16.5946 43.3459 17.6935 43.453 18.7793C43.5054 19.3233 43.5884 19.8607 43.6955 20.3981C43.7304 20.5336 43.7763 20.6603 43.8113 20.7913C43.8287 20.8569 43.8462 20.9224 43.8593 20.988C43.8659 21.0207 43.8703 21.0535 43.8724 21.0863V21.1103V21.1321C43.8703 21.1453 43.8681 21.154 43.8571 21.1649C43.82 21.2042 43.7479 21.2195 43.6846 21.2305C43.619 21.2414 43.5513 21.2436 43.4836 21.2457C43.3481 21.2479 43.2149 21.2392 43.0772 21.2348C42.6621 21.2217 42.2492 21.1605 41.8516 21.0491C41.454 20.9355 41.0695 20.7717 40.7156 20.5576C40.0056 20.1338 39.4092 19.5264 39.0028 18.8142C38.9482 18.7268 38.9067 18.6329 38.8587 18.5433C38.8172 18.4494 38.7691 18.3576 38.7341 18.2637L38.6773 18.1217L38.6271 17.9775C38.5921 17.8814 38.5659 17.7831 38.5375 17.6848C38.4305 17.2915 38.378 16.8852 38.3715 16.4788C38.3715 16.3762 38.3715 16.2778 38.378 16.1752L38.3715 16.1664Z" fill="#8C8C8C"/>
<path d="M64.1567 3.41914C64.5194 3.32083 64.7095 2.98439 65.0219 2.80525C65.7734 2.37706 66.8198 2.39017 67.6456 2.51906C67.7199 2.53217 67.7942 2.54528 67.8663 2.56276C66.3174 1.90954 64.456 2.12583 63.1016 3.12421C63.3615 3.40603 63.7875 3.51745 64.1546 3.41914H64.1567Z" fill="#8C8C8C"/>
<path d="M162.386 37.3103C155.426 37.3103 153.383 35.1644 153.383 29.2073V13.6953H158.611V29.0009C158.611 31.7355 159.511 32.8097 162.834 32.8097H176.859V37.3103H162.386Z" fill="#8C8C8C"/>
<path d="M179.631 37.3103V13.6953H184.894V37.3103H179.631Z" fill="#8C8C8C"/>
<path d="M221.461 37.3111V21.764L209.931 36.8256C209.378 37.5175 208.651 37.8294 207.612 37.8294C206.573 37.8294 205.846 37.5175 205.292 36.8256L193.795 21.764V37.3111H189.018V15.3237C189.018 13.8344 190.23 13.1777 191.858 13.1777C193.103 13.1777 193.763 13.4897 194.351 14.2871L207.682 31.9825L221.118 14.2871C221.707 13.5248 222.26 13.1777 223.473 13.1777C225.065 13.1777 226.313 13.8368 226.313 15.3237V37.3111H221.465H221.461Z" fill="#8C8C8C"/>
<path d="M254.324 31.8736H237.979L234.62 37.31H228.56L242.273 15.4938C243.103 14.1429 244.11 13.1743 246.256 13.1743C248.402 13.1743 249.373 14.1429 250.203 15.4938L263.845 37.31H257.75L254.321 31.8736H254.324ZM240.437 27.8232H251.863L246.15 18.5076L240.437 27.8232Z" fill="#8C8C8C"/>
<path d="M274.683 37.3103V18.2312H264.779V13.6953H289.883V18.2312H279.979V37.3103H274.681H274.683Z" fill="#8C8C8C"/>
<path d="M130.72 63.8262V65.224L129.022 65.6016L129.796 61.5958H131.602L131.496 65.5242C129.965 66.3591 128.133 66.8258 126.079 66.8258C120.893 66.8258 117.068 63.4228 117.068 57.6627C117.068 51.9026 121.13 48.4995 126.161 48.4995C127.871 48.4995 129.601 48.8419 131.274 49.7801L131.379 53.7272H129.573L128.79 49.7003L130.488 50.0873V51.6141C129.116 50.3547 127.854 49.8997 126.632 49.8997C123.459 49.8997 120.797 52.4185 120.797 57.6721C120.797 62.9256 123.267 65.414 126.477 65.414C127.88 65.414 129.36 64.9191 130.722 63.8285L130.72 63.8262Z" fill="#8C8C8C"/>
<path d="M133.504 50.1735V48.9375H141.337V50.1735L137.707 50.5675H137.055L133.502 50.1735H133.504ZM137.707 64.752L141.337 65.146V66.382H133.504V65.146L137.057 64.752H137.709H137.707ZM135.741 57.0898C135.741 54.381 135.741 51.6487 135.662 48.9398H139.229C139.149 51.5947 139.149 54.3294 139.149 57.0898V57.8872C139.149 60.9385 139.149 63.6731 139.229 66.3796H135.662C135.741 63.7247 135.741 60.9901 135.741 58.2297V57.0898ZM137.444 58.1218V56.7474H147.965V58.1218H137.444ZM144.072 50.1735V48.9375H151.905V50.1735L148.303 50.5675H147.67L144.07 50.1735H144.072ZM148.305 64.752L151.908 65.146V66.382H144.074V65.146L147.674 64.752H148.308H148.305ZM146.26 57.0898C146.26 54.381 146.26 51.6487 146.18 48.9398H149.748C149.668 51.5947 149.668 54.3294 149.668 57.0898V58.2297C149.668 60.9385 149.668 63.6708 149.748 66.3796H146.18C146.26 63.7247 146.26 60.9901 146.26 57.8872V57.0898Z" fill="#8C8C8C"/>
<path d="M153.957 50.1735V48.9375H157.918V50.5675H157.578L153.957 50.1735ZM157.918 64.752V66.382H153.957V65.146L157.578 64.752H157.918ZM156.213 57.0898C156.213 54.381 156.213 51.6487 156.133 48.9398H159.701C159.621 51.5947 159.621 54.3294 159.621 57.0898V58.0209C159.621 60.9385 159.621 63.6731 159.701 66.3796H156.133C156.213 63.7247 156.213 60.9901 156.213 58.2297V57.0898ZM164.757 48.9398L166.307 50.3423H157.918V48.9398H167.208L167.393 53.5414H165.555L164.76 48.9398H164.757ZM163.782 58.1194H157.916V56.7357H163.782V58.1194ZM167.916 61.7781L167.733 66.3796H157.918V64.9889H166.833L165.283 66.3796L166.078 61.7781H167.916ZM162.961 57.0945L163.355 54.442H164.713V60.3827H163.355L162.961 57.5988V57.0922V57.0945Z" fill="#8C8C8C"/>
<path d="M178.525 62.5328C178.525 60.9873 177.674 60.2931 175.744 59.4956L174.686 59.043C171.792 57.807 169.981 56.2638 169.981 53.4658C169.981 50.3747 172.531 48.4961 176.199 48.4961C178.019 48.4961 179.623 49.0191 180.831 49.8611L180.643 53.4142H178.64L177.953 49.4436L179.858 50.2527V51.5661C178.511 50.4286 177.529 49.9338 176.154 49.9338C174.384 49.9338 173.007 50.9212 173.007 52.6215C173.007 54.1436 173.959 54.9903 175.695 55.7056L176.825 56.1864C180.238 57.6147 181.598 59.0993 181.598 61.6674C181.598 64.7703 179.112 66.8177 175.054 66.8177C173.082 66.8177 171.009 66.283 169.646 65.434L169.803 61.6369H171.825L172.51 65.7928L170.636 65.1056V63.8439C172.285 64.8828 173.277 65.3801 175.015 65.3801C177.193 65.3801 178.523 64.2613 178.523 62.5305L178.525 62.5328Z" fill="#8C8C8C"/>
<path d="M192.145 62.5328C192.145 60.9873 191.294 60.2931 189.363 59.4956L188.306 59.043C185.412 57.807 183.601 56.2638 183.601 53.4658C183.601 50.3747 186.15 48.4961 189.818 48.4961C191.638 48.4961 193.243 49.0191 194.45 49.8611L194.263 53.4142H192.26L191.573 49.4436L193.477 50.2527V51.5661C192.131 50.4286 191.148 49.9338 189.774 49.9338C188.003 49.9338 186.626 50.9212 186.626 52.6215C186.626 54.1436 187.579 54.9903 189.314 55.7056L190.445 56.1864C193.857 57.6147 195.217 59.0993 195.217 61.6674C195.217 64.7703 192.731 66.8177 188.674 66.8177C186.702 66.8177 184.628 66.283 183.266 65.434L183.423 61.6369H185.444L186.129 65.7928L184.255 65.1056V63.8439C185.904 64.8828 186.896 65.3801 188.634 65.3801C190.813 65.3801 192.143 64.2613 192.143 62.5305L192.145 62.5328Z" fill="#8C8C8C"/>
<path d="M202.202 65.1461L204.869 64.752H205.366L208.056 65.1461V66.382H202.202V65.1461ZM209.853 48.8555H212.008L217.986 66.3797H214.499L209.621 51.4611L210.418 50.7857L205.228 66.3797H203.828L209.85 48.8555H209.853ZM206.902 59.6252H214.002L214.508 60.9995H206.471L206.9 59.6252H206.902ZM211.696 65.1742L214.834 64.7802H215.988L219.307 65.1742V66.3797H211.696V65.1742Z" fill="#8C8C8C"/>
<path d="M233.463 63.8262V65.224L231.765 65.6016L232.539 61.5958H234.345L234.239 65.5242C232.708 66.3591 230.876 66.8258 228.822 66.8258C223.636 66.8258 219.811 63.4228 219.811 57.6627C219.811 51.9026 223.873 48.4995 228.904 48.4995C230.613 48.4995 232.344 48.8419 234.017 49.7801L234.122 53.7272H232.316L231.533 49.7003L233.231 50.0873V51.6141C231.859 50.3547 230.597 49.8997 229.375 49.8997C226.202 49.8997 223.54 52.4185 223.54 57.6721C223.54 62.9256 226.01 65.414 229.22 65.414C230.623 65.414 232.103 64.9191 233.465 63.8285L233.463 63.8262Z" fill="#8C8C8C"/>
<path d="M235.302 65.1461L237.969 64.752H238.466L241.156 65.1461V66.382H235.302V65.1461ZM242.953 48.8555H245.108L251.086 66.3797H247.599L242.721 51.4611L243.518 50.7857L238.328 66.3797H236.928L242.95 48.8555H242.953ZM240.002 59.6252H247.102L247.608 60.9995H239.571L240 59.6252H240.002ZM244.796 65.1742L247.934 64.7802H249.088L252.407 65.1742V66.3797H244.796V65.1742Z" fill="#8C8C8C"/>
<path d="M253.572 50.1735V48.9375H257.533V50.5675H257.193L253.572 50.1735ZM257.531 64.752V66.382H253.57V65.146L257.191 64.752H257.531ZM255.828 57.0898C255.828 54.381 255.828 51.6487 255.748 48.9398H259.316C259.236 51.5947 259.236 54.3294 259.236 57.0898V58.0209C259.236 60.9385 259.236 63.6731 259.316 66.3796H255.748C255.828 63.7247 255.828 60.9901 255.828 58.0303V57.0898ZM257.531 65.017H260.788C264.346 65.017 266.405 62.3363 266.405 57.6668C266.405 52.9972 264.346 50.3025 260.929 50.3025H257.533V48.9398H261.358C266.663 48.9398 270.085 52.1295 270.085 57.648C270.085 63.1666 266.291 66.382 260.861 66.382H257.533V65.0194L257.531 65.017Z" fill="#8C8C8C"/>
<path d="M271.477 50.1735V48.9375H275.438V50.5675H275.098L271.477 50.1735ZM275.435 64.752V66.382H271.474V65.146L275.095 64.752H275.435ZM273.733 57.0898C273.733 54.381 273.733 51.6487 273.653 48.9398H277.22C277.141 51.5947 277.141 54.3294 277.141 57.0898V58.0209C277.141 60.9385 277.141 63.6731 277.22 66.3796H273.653C273.733 63.7247 273.733 60.9901 273.733 58.2297V57.0898ZM282.274 48.9398L283.825 50.3423H275.435V48.9398H284.725L284.911 53.5414H283.072L282.277 48.9398H282.274ZM281.301 58.1194H275.435V56.7357H281.301V58.1194ZM285.436 61.7781L285.253 66.3796H275.438V64.9889H284.352L282.802 66.3796L283.597 61.7781H285.436ZM280.478 57.0945L280.872 54.442H282.23V60.3827H280.872L280.478 57.5988V57.0922V57.0945Z" fill="#8C8C8C"/>
<path d="M286.967 65.146L289.882 64.752H290.525L293.112 65.146V66.382H286.969V65.146H286.967ZM287.082 48.9398H290.696L290.715 50.5698H290.342L287.082 50.1758V48.9398ZM289.42 48.9398H290.727L290.945 57.4205V66.3796H289.42V48.9375V48.9398ZM289.514 48.9398H292.934L298.506 63.1994H297.622L302.892 48.9398H304.459L298.002 66.382H296.337L289.512 48.9398H289.514ZM301.067 65.146L304.327 64.752H305.2L308.821 65.146V66.382H301.065V65.146H301.067ZM303.192 58.5111L303.241 48.9398H306.647C306.567 51.6135 306.567 54.3481 306.567 57.0898V58.2297C306.567 60.9573 306.567 63.6919 306.647 66.3796H303.115C303.194 63.706 303.183 60.9713 303.194 58.5088L303.192 58.5111ZM304.862 48.9398H308.774V50.1758L305.202 50.5698H304.862V48.9398Z" fill="#8C8C8C"/>
<path d="M310.136 50.1735V48.9375H318.068V50.1735L314.688 50.5675H313.844L310.136 50.1735ZM316.942 60.6008L311.222 48.9398H315.134L319.571 58.68L318.699 58.7386L323.286 48.9398H324.848L319.156 60.6008H316.937H316.942ZM318.558 64.752L322.383 65.146V66.382H313.926V65.146L317.714 64.752H318.558ZM316.447 58.368H319.855C319.855 61.8579 319.855 64.0015 319.935 66.3796H316.368C316.447 64.0531 316.447 61.893 316.447 58.368ZM323.157 50.5698L320.46 50.1758V48.9398H326.199V50.1758L323.715 50.5698H323.157Z" fill="#8C8C8C"/>
</svg>
