<svg width="246" height="80" viewBox="0 0 246 80" fill="none" xmlns="http://www.w3.org/2000/svg">
<path d="M55.894 5.72416C51.5417 6.90158 47.4806 8.73794 43.6881 11.0742C35.2024 16.3003 28.7101 24.1518 25.2377 33.5009C22.823 40.0015 21.8996 46.969 22.7341 53.8827C23.3559 59.0406 25.0002 63.9135 27.417 68.4538C28.7493 70.9574 28.2226 73.6551 26.7353 75.9996C27.6958 76.2744 29.3855 77.0366 29.1377 78.0591C28.9559 78.8068 25.2604 79.253 24.4652 79.3418C19.931 79.8521 14.0212 79.7261 9.54289 78.7841C9.13802 78.6994 8.56997 78.4784 8.35514 78.1892C7.99572 77.7079 8.41918 77.239 8.72076 76.8899L10.3278 76.0492C9.55528 74.9668 9.38384 73.6551 9.84241 72.3765C7.66109 72.7029 5.62642 72.5252 3.7095 71.67C1.2018 70.5525 -0.355709 67.9828 0.0698149 65.2397C0.381728 63.2236 1.78637 61.6681 3.57936 60.8068C5.90941 59.6975 9.68956 59.1956 12.3728 59.2183C11.5652 52.6784 12.0423 46.0828 13.763 39.6958C15.7316 32.3876 19.4002 25.6783 24.2607 19.8945C32.6534 9.9071 44.7912 3.06154 57.5466 0.630271C60.4488 0.0766773 63.3118 -0.148478 66.1975 0.101466C67.6373 0.225405 68.7981 1.02688 69.2691 2.37574C69.6781 3.5511 69.9343 4.75744 70.1573 5.99063L69.5418 6.56901L69.5624 9.21305C69.5666 9.65716 69.327 10.0393 68.9696 10.3099L68.825 17.9301L68.635 25.6866L68.5709 29.4151C68.5647 29.8158 68.48 30.2682 68.4119 30.7061L68.3561 25.4697L68.2053 10.5578C66.309 10.8924 64.5326 11.1196 62.6508 11.2601L62.6838 21.8569L62.6095 26.8826L62.4958 25.4924L62.4256 24.2985L61.8782 11.3241C60.1245 11.1134 60.6306 9.29154 59.7403 8.29796C59.2073 7.70512 58.788 8.24219 58.5277 5.86876C58.4286 4.97227 56.8793 5.46389 55.8982 5.7283L55.894 5.72416ZM68.3168 9.81828C68.668 9.81208 69.0295 9.4981 69.0254 9.10357L69.0047 6.74046C69.0006 6.35212 69.2567 6.03608 69.5769 5.77994C69.1369 4.42281 68.5689 0.38859 66.4557 1.13016C67.4865 2.35302 67.912 4.03446 68.4697 5.54032C68.6102 5.91627 68.6308 6.05054 68.5441 6.46986C68.321 7.56053 68.8415 8.57269 68.3168 9.81828ZM39.6353 13.2204C43.5931 10.1942 47.9846 7.84559 52.6695 6.17654C54.4584 5.54032 56.1481 5.00532 58.001 4.66862C58.5091 4.57566 58.9698 4.92269 59.0607 5.43497L59.3974 7.33537C59.6184 7.45311 59.9675 7.59771 60.2236 7.69686C60.6388 8.50866 60.9652 9.34731 61.2812 10.2335C61.3308 10.3719 61.5828 10.6528 61.744 10.6611C63.4233 10.754 65.2969 10.4628 66.9122 10.2108L65.7368 10.1839C66.0694 9.76457 66.1624 9.32666 66.088 8.86189L65.7823 6.92224L63.8716 7.29612C64.3198 7.87244 64.4128 9.14488 64.388 9.88438C64.3549 10.88 61.9712 10.6673 61.8617 10.2314L60.8433 7.37462L66.9101 6.38517L65.4848 6.36865C65.8918 5.9204 65.8629 5.5176 65.7368 5.05076C65.1771 2.94793 63.382 2.26627 61.3556 2.38607C59.3932 2.50175 57.5589 2.8715 55.6523 3.39618C45.2621 6.2571 35.5784 12.2475 28.7411 20.6258C23.8434 26.6285 20.5342 33.6579 19.0655 41.2533C18.5512 43.918 18.2083 46.4712 18.1732 49.2102L20.0529 49.1235C20.1665 33.7633 28.0676 19.752 40.6123 11.0164C44.88 8.04389 49.4657 5.73243 54.3716 4.0324C55.894 3.50566 57.3276 3.01816 58.9347 2.85911C59.7857 2.77442 60.7132 3.08839 61.4403 3.48087C62.1674 3.87334 62.5909 4.60458 62.9028 5.32756L63.5142 6.74666L60.9425 7.20317C60.5128 6.01335 60.8206 5.3069 60.3703 4.21211C60.1142 4.10056 59.6783 4.10056 59.416 4.16253L56.208 4.92063C52.0395 5.90801 48.1107 7.55433 44.3842 9.67162C38.9371 12.768 34.1861 16.8477 30.3977 21.8342C24.366 29.7745 21.3687 38.9853 21.3522 48.9375C21.4617 48.9892 21.8356 48.9603 21.8376 48.7806C21.9678 34.8395 28.4808 21.7495 39.6374 13.2183L39.6353 13.2204ZM14.0026 49.0821C14.2154 46.3493 14.5707 43.9201 15.1201 41.3442C19.2845 23.7779 31.8643 10.4504 48.3854 3.79691C43.0415 5.6436 38.0943 8.44876 33.5602 11.8158C30.0507 14.4639 26.8489 17.4509 24.1016 20.8736C17.5576 28.8801 13.5544 38.6671 12.7054 48.9499C13.195 49.0512 13.6019 49.1007 14.0026 49.0821ZM14.5067 59.9351C13.9035 56.3388 13.8043 52.9821 13.9737 49.5201L12.6538 49.3445C12.3914 52.726 12.4555 56.0351 12.9264 59.429C13.4057 59.7058 13.9035 59.8979 14.5046 59.9351H14.5067ZM21.629 67.8114C21.5319 68.6728 21.8397 69.5135 22.3933 70.2075L24.1326 72.3806C24.6738 73.0581 24.8225 73.9216 25.1076 74.8408C26.2395 73.3143 26.5618 71.5481 26.5824 69.6767C27.5554 71.0668 27.2228 72.5789 26.9088 74.1922C27.7413 72.5706 27.8714 70.538 26.946 68.805C23.7298 62.7877 21.9492 56.19 21.8418 49.3445C21.7963 49.2763 21.3646 49.3362 21.3625 49.5118C21.3481 54.6243 22.637 60.5444 24.6965 65.3471C24.9155 65.8594 25.3699 66.9769 24.6407 67.2247C23.8475 67.4953 23.3146 65.9812 23.1039 65.4689C22.92 66.1837 22.4739 66.5555 21.7426 66.6649L22.4119 68.1336L21.629 67.8134V67.8114ZM21.8087 61.3769C20.652 57.1795 20.0818 53.8249 20.0364 49.5097L18.1835 49.6337C18.1401 53.7154 18.8156 57.6938 20.0054 61.5525L21.8067 61.3769H21.8087ZM15.5415 62.4324L16.9978 62.135C15.775 60.4701 13.8147 59.6417 11.7841 59.7616C13.2032 60.0776 14.8454 60.9059 15.5415 62.4324ZM6.10359 69.4205L6.56422 68.648C6.84308 70.1848 8.64847 70.7116 9.97668 70.1394C11.4536 69.5011 12.8934 69.0198 14.5624 69.0404C14.8124 69.0446 15.0582 68.712 14.9528 68.4848C13.6226 68.3691 12.3067 68.1502 11.0074 67.7618C9.52017 67.3177 7.97506 66.9046 6.79351 68.144C7.6962 65.8118 7.02073 62.3705 4.11229 61.9284C5.43844 61.2488 6.78731 60.7737 8.28904 60.2036C6.32667 60.2098 4.40975 60.8584 2.7469 61.9532C2.07557 62.5027 1.45587 63.0769 1.14602 63.8929C2.09003 62.6142 3.58555 61.8499 4.96954 62.9323C6.08292 63.804 6.3494 65.0992 6.18828 66.4501C6.07467 67.4045 5.89082 68.2927 5.1947 68.9971C4.50064 69.7015 3.53598 69.9245 2.58784 69.5445C1.82149 69.2367 1.41249 68.5819 0.94152 67.9126C2.10035 71.5213 6.746 72.5087 9.9932 71.8064C10.427 71.1557 12.6166 70.664 13.2859 70.4058C12.0258 70.2736 10.8566 70.3997 9.64617 70.6785C8.4357 70.9574 6.68403 70.6661 6.10359 69.4226V69.4205ZM13.9035 61.5112C13.6349 61.1249 11.9432 61.8148 9.54289 61.1848C8.39439 60.8832 7.27274 61.2261 6.6076 62.1019C6.2833 62.5295 6.28123 63.2029 6.75633 63.4591C7.95028 64.1056 9.27229 63.8309 10.3423 63.1017C11.716 62.166 14.0853 61.7714 13.9035 61.5091V61.5112ZM9.3322 66.7868C11.3503 67.3487 13.7899 67.7928 15.8679 67.6627C15.7646 70.0402 13.604 71.3912 11.5466 72.0439C14.4715 71.9365 16.9668 69.8667 17.5142 66.9004L14.2051 66.7145C16.4339 65.6569 16.184 66.2374 17.6464 66.4481C19.0346 66.6484 20.402 66.4956 21.7943 66.3551C22.4057 66.2931 22.8271 65.816 22.8085 65.2748C22.6494 65.5578 22.3396 65.9626 22.0215 65.8676C21.2841 65.6487 20.433 63.3723 21.6331 62.1205C21.8356 61.9098 22.3045 62.1784 22.4883 62.3436C22.3396 61.8603 21.7013 61.5525 21.1353 61.6454L17.8592 62.1908C16.6467 62.3932 15.494 62.5708 14.3744 63.0934C12.4472 63.9941 10.8546 63.7813 8.5018 64.4217C7.95854 64.5704 7.76437 64.9484 7.81188 65.4917C7.84493 65.8738 7.93788 66.2993 8.27045 66.4109C8.099 66.0205 7.96474 65.597 8.08661 65.2851C8.1775 65.0517 8.53899 64.7253 8.85297 64.6923L12.065 64.3597C13.0524 64.2564 13.9944 63.9672 14.9157 63.6057C16.2934 63.0645 17.6526 62.6762 19.0986 62.3601L21.5051 61.8334C20.9432 62.703 20.6891 63.5293 20.842 64.5456C19.1771 64.7997 17.6072 65.1859 16.058 65.8325C15.4341 66.0928 14.8062 66.2683 14.1286 66.3076L10.6191 66.51C10.175 66.5348 9.76392 66.603 9.3322 66.7848V66.7868ZM5.11001 68.3361C6.44855 66.9252 6.37831 64.8658 4.92409 63.5995C4.05446 62.8435 2.813 62.9365 2.05491 63.8536C1.00349 65.126 0.986968 67.0326 2.04252 68.2865C2.89769 69.3028 4.20525 69.2904 5.11001 68.3381V68.3361ZM23.0564 74.3223C23.2196 73.5952 22.918 73.0747 22.4284 72.581C21.6992 71.8477 21.2655 70.7839 21.1787 69.7221L20.9453 66.8984L19.6976 66.8756C19.4188 67.6007 19.0346 68.1667 18.4872 68.6769L15.6903 71.2879C15.0768 71.8601 15.1408 72.6719 15.7378 73.244C16.3347 73.8162 16.9255 74.4153 17.4564 75.0391C17.5845 75.1899 17.6093 75.7373 17.4647 75.8592L16.8119 76.4004C18.7681 76.4727 22.4346 77.0862 23.0584 74.3244L23.0564 74.3223ZM12.2985 76.3735C11.0322 75.2704 10.6005 73.8968 10.6749 72.2525C10.3154 72.6305 10.2328 73.1428 10.1936 73.6675C10.0924 75.0102 10.9868 76.2124 12.2985 76.3735ZM17.1383 75.3324C16.593 74.25 12.3295 74.5206 12.5298 75.4212C12.5546 75.5369 12.755 75.7517 12.8768 75.7992C15.0189 76.6462 17.4068 75.8695 17.1362 75.3324H17.1383ZM19.2866 77.7327C21.6414 77.6501 23.8558 77.5633 26.0681 76.7887C21.3357 77.4043 17.0598 77.4022 12.1807 76.8817C14.4633 77.5984 16.8057 77.6996 19.2845 77.7306L19.2866 77.7327ZM27.7619 78.0632C21.8335 78.6498 15.9712 78.6602 10.175 78.0797C11.4226 78.5053 12.598 78.6932 13.8828 78.8192C17.5618 79.1807 21.218 79.1518 24.8886 78.7056C25.9111 78.5817 26.8469 78.3978 27.7619 78.0632Z" fill="#8C8C8C"/>
<path d="M73.6503 47.5641C73.9725 57.7003 73.1235 69.3918 70.1449 79.0632C70.0292 79.4371 69.3475 79.6457 68.9737 79.6912C65.4269 80.127 61.9256 80.0919 58.3955 79.6478C57.9679 79.5941 57.439 79.309 57.3172 78.8959C56.0509 74.558 55.1627 70.2119 54.6422 65.6923C53.946 59.6502 53.6692 53.7074 53.8882 47.622C54.4748 47.5641 54.9582 47.6013 55.5159 47.6013L62.6404 47.5868L62.5743 31.262C62.5722 30.5246 62.6424 29.876 62.6899 29.1922L62.8118 30.7188C63.258 36.3146 63.2002 41.8485 63.165 47.5207C63.6649 47.6116 64.1875 47.6158 64.7205 47.5104C64.4788 37.7337 64.3115 28.1181 64.3631 18.3579C64.516 18.7029 64.549 19.0809 64.5656 19.5333L65.113 35.1578L65.1067 47.5187C65.5942 47.5972 66.1086 47.5951 66.6601 47.5414L66.5155 38.7748L66.6498 27.0935L66.7138 24.8193C66.8977 25.1993 66.8791 25.5753 66.8935 26.0153L67.0505 30.6423L67.0815 47.5476L68.1701 47.5517C68.0648 42.6458 68.1102 37.8287 68.4345 33.0447C68.5213 33.5404 68.5667 33.8276 68.5832 34.2138C68.7671 38.6674 68.7815 43.0052 68.67 47.5517L73.6523 47.5662L73.6503 47.5641ZM67.0629 47.8843L66.97 51.2245C66.9596 51.5942 66.8811 52.0363 66.8274 52.4019L66.6767 47.8843C66.152 47.8327 65.6418 47.8306 65.1006 47.9008L65.0634 54.6762C65.0634 55.0356 65.02 55.3867 64.9064 55.711L64.8403 52.8129L64.7143 47.8802C64.1628 47.8265 63.6608 47.8244 63.1464 47.8926L63.0101 53.6454L62.9213 56.0168C62.8531 55.583 62.7829 55.1533 62.7746 54.7443L62.6424 47.8327H54.5719L54.353 53.5648L54.7062 61.6105C55.1606 67.4605 56.1955 73.141 57.8501 78.7637C58.1744 79.0281 58.6103 79.2574 59.042 79.3173C62.1756 79.7531 65.3009 79.7986 68.4304 79.3483C68.8745 79.2842 69.3579 79.0921 69.6636 78.7885C71.7809 72.0028 73.4024 60.7554 73.1587 53.7817L72.95 47.8451H68.6721L68.5171 53.0257L68.4655 56.0271C68.2403 55.5148 68.2982 54.9901 68.2879 54.4097L68.1722 47.8616L67.065 47.8802L67.0629 47.8843Z" fill="#8C8C8C"/>
<path d="M66.8421 76.5511C64.8323 76.7349 60.3333 76.8919 58.4163 75.9293L58.3482 76.3899C58.0115 76.3115 57.6851 76.0243 57.5818 75.6236C56.2598 70.5132 55.5244 65.6259 55.1258 60.375L56.0987 60.9244L57.1604 68.8937C57.2431 68.4579 57.1852 68.0984 57.1398 67.6832L56.423 61.0814C58.7117 61.9614 60.4324 62.2733 62.7088 61.573L62.9938 62.4014C62.6778 62.5914 62.4361 62.8083 62.4526 63.083C62.4754 63.4425 62.7976 63.6717 63.1116 63.649C63.4648 63.6222 63.661 63.3206 63.69 62.8682C64.4253 63.0996 65.1917 63.0045 65.6957 62.3559C65.9023 62.0915 66.0448 61.5978 65.9167 61.2219C65.8279 60.9657 65.5449 60.7075 65.2144 60.4122C67.2573 59.2099 69.0214 58.4415 71.4341 59.59L70.8082 66.6442C70.7628 67.1648 70.6987 67.6151 70.7669 68.1459C71.2916 65.4048 71.6097 62.6864 71.8782 59.8338C72.1054 59.871 72.3388 60.0114 72.4524 60.187C72.0558 64.9277 71.3721 69.5671 70.2938 74.1962C70.1203 74.9399 69.9303 75.5885 69.5151 76.2164L70.3951 71.8538C70.583 70.9201 70.7772 70.0505 70.7793 69.0734L69.0627 76.4808C68.255 77.3753 65.5656 77.3381 64.5596 77.2513L66.9103 76.8444C66.9103 76.8444 67.1871 76.6647 67.1313 76.6213C67.0941 76.5924 66.9289 76.5407 66.838 76.549L66.8421 76.5511ZM69.1433 60.4535C68.5608 60.7489 68.4141 61.4161 68.7301 61.8953C69.0111 62.3229 69.5667 62.5191 70.0253 62.2878C70.5541 62.0192 70.7483 61.4243 70.5128 60.941C70.2773 60.4576 69.7134 60.1643 69.1433 60.4535ZM67.7593 64.1489C67.5465 64.2357 67.4825 64.6385 67.6023 64.8161C67.7221 64.9938 68.0712 65.064 68.255 64.9566C68.4389 64.8492 68.5091 64.4856 68.4141 64.3286C68.2964 64.1365 67.9989 64.0518 67.7614 64.1489H67.7593ZM63.8511 65.3036C63.5701 65.3367 63.4483 65.6093 63.4917 65.8448C63.5309 66.0493 63.7974 66.1815 64.0452 66.1278C64.2084 66.0927 64.3758 65.789 64.322 65.599C64.2828 65.4606 64.0143 65.283 63.8511 65.3036ZM59.9883 66.291C59.2715 66.5244 58.9307 67.2639 59.1972 67.9208C59.4182 68.4661 60.0441 68.8607 60.7133 68.6148C61.2587 68.4145 61.709 67.7576 61.4818 67.1152C61.2793 66.543 60.6844 66.0638 59.9862 66.291H59.9883ZM65.7349 67.4663C65.4437 67.6192 65.3859 68.0344 65.5222 68.1873C65.7019 68.3856 65.9952 68.4641 66.1708 68.4021C66.46 68.3009 66.5447 67.9229 66.4352 67.708C66.3257 67.4932 65.9932 67.33 65.7329 67.4663H65.7349ZM67.9555 69.7096C67.9369 69.8005 68.034 70.0546 68.1063 70.0257C68.1621 70.003 68.2612 69.9596 68.3129 69.9286C68.3811 69.8894 68.3129 69.72 68.2695 69.6559C68.2344 69.6084 67.9679 69.6518 67.9555 69.7096ZM63.3161 72.1719C63.8655 72.269 64.2146 71.9426 64.2911 71.546C64.353 71.23 64.0928 70.8086 63.8346 70.7135C63.4359 70.5648 63.0248 70.7156 62.8141 71.0936C62.7253 71.2527 62.7191 71.6534 62.7997 71.8331C62.8616 71.9715 63.1157 72.1388 63.3161 72.174V72.1719ZM58.3771 75.8198C58.2263 74.5412 57.8937 73.3101 57.555 72.0583C57.65 73.3534 57.8648 74.5846 58.3771 75.8198ZM60.3353 72.1223C59.8231 72.1533 59.4843 72.5706 59.5628 73.0684C59.6248 73.4588 60.0048 73.7748 60.4469 73.7459C60.8889 73.717 61.1781 73.3452 61.1595 72.8825C61.143 72.4797 60.8208 72.0934 60.3374 72.1244L60.3353 72.1223ZM59.0154 75.1278C59.0774 74.9275 58.9947 74.6011 58.815 74.5412C58.7241 74.5102 58.5134 74.8221 58.5961 74.8717L59.0154 75.1299V75.1278ZM67.1974 76.0966C65.0058 75.824 62.0891 75.7888 60.1866 76.0966H67.1974Z" fill="#8C8C8C"/>
<path d="M68.5032 78.6517L66.7825 78.5794L60.7322 78.5959C59.9286 78.598 59.2367 78.7013 58.4228 78.631L57.832 76.584C61.5791 77.8523 65.0639 78.1353 68.9225 76.9083L68.5032 78.6496V78.6517Z" fill="#8C8C8C"/>
<path d="M55.9845 59.8711C55.7718 56.3368 55.5363 52.8768 55.6416 49.3012C55.8399 49.8011 55.7945 50.3278 55.8358 50.9062L56.4596 59.8773C57.7878 59.8484 58.9838 59.4766 60.1799 58.9705L62.1257 58.1463C61.9336 57.7848 61.7807 57.318 62.1463 57.0412C62.4211 56.8326 62.9458 56.847 63.0883 57.2663C62.8735 57.1837 62.5843 57.0784 62.4273 57.1362C62.2703 57.194 62.134 57.4812 62.1567 57.6361C62.1877 57.8468 62.5285 58.1484 62.7309 58.0554C63.6212 57.6464 64.4496 57.5204 65.4101 57.4688C65.8294 57.4461 67.1184 57.3015 67.3559 57.8447C67.4096 57.9687 67.3807 58.2289 67.3642 58.4355L69.1097 57.6898C69.9111 57.3469 70.7436 57.2601 71.5719 57.3139L71.764 53.0318L71.8095 48.6526C71.8818 48.8137 71.9892 49.1298 71.9912 49.3053L72.0264 53.2487L71.9933 57.6092C71.5637 57.6113 70.9564 57.5597 70.4441 57.6609C68.6325 58.0162 68.0582 58.7412 66.5007 58.9643L67.0626 58.1959C67.1576 58.0657 66.8333 57.7497 66.6825 57.7332C62.9995 57.3428 61.1239 59.4002 58.0357 59.9909C57.0235 60.1851 55.9907 60.3111 54.9992 59.8484C55.2677 59.7162 55.4826 59.8216 55.9845 59.8691V59.8711Z" fill="#8C8C8C"/>
<path d="M67.5336 78.9387C66.4657 79.4469 62.291 79.2485 60.8967 79.1597C60.5703 79.1391 60.244 79.0379 59.9672 78.9139C62.4191 78.7053 65.1499 78.6929 67.5336 78.9387Z" fill="#8C8C8C"/>
<path d="M63.5614 77.2451C62.7579 77.4331 59.2215 77.1935 58.767 76.613C58.7319 76.5697 58.7732 76.485 58.8207 76.454C59.0294 76.3197 61.6713 76.989 62.5038 77.1026L63.5614 77.2451Z" fill="#8C8C8C"/>
<path d="M69.2299 78.2552C69.1886 78.4183 68.887 78.6435 68.7383 78.6724L69.2257 77.0302C69.2691 76.8877 69.3703 76.7865 69.6244 76.7307L69.2299 78.2552Z" fill="#8C8C8C"/>
<path d="M70.3451 56.5907C70.0497 56.4378 69.7007 56.318 69.5023 56.4358C69.207 56.6114 69.2462 56.9728 69.2958 57.2889C69.1037 57.1278 68.9942 56.8241 69.0706 56.5391C69.1326 56.3056 69.4817 56.0846 69.8019 56.0867C70.0229 56.0867 70.2935 56.3676 70.3431 56.5928L70.3451 56.5907Z" fill="#8C8C8C"/>
<path d="M60.0543 58.0493L59.6866 57.9191C59.5895 57.884 59.3974 58.1257 59.4077 58.229C59.4201 58.3612 59.573 58.5223 59.7382 58.6566C59.6205 58.7351 59.2383 58.5719 59.166 58.3777C59.0813 58.1505 59.2197 57.8262 59.4118 57.7394C59.6742 57.6217 59.982 57.7518 60.0543 58.0472V58.0493Z" fill="#8C8C8C"/>
<path d="M61.1452 56.7912L61.0419 57.1217C61.013 57.2167 61.2361 57.256 61.4427 57.2807C61.4592 57.2642 61.389 57.3324 61.2815 57.4357C61.0667 57.3138 60.8911 57.2146 60.8333 57.1052C60.7755 56.9957 60.8911 56.7189 61.013 56.6838C61.1783 56.6342 61.4757 56.7437 61.4716 56.9358L61.1473 56.7912H61.1452Z" fill="#8C8C8C"/>
<path d="M90.3729 20.8664V6.90638H92.7062L99.9854 17.0573L99.9455 6.90638H102.199V20.8664H100.065L92.5866 10.4363L92.6265 20.8664H90.3729Z" fill="#8C8C8C"/>
<path d="M111.966 21.0857C110.982 21.0857 110.058 20.9063 109.194 20.5473C108.343 20.175 107.592 19.6632 106.94 19.0117C106.302 18.3469 105.804 17.5824 105.445 16.7183C105.086 15.8408 104.906 14.8968 104.906 13.8864C104.906 12.8759 105.086 11.9386 105.445 11.0744C105.804 10.197 106.302 9.43248 106.94 8.78101C107.592 8.11625 108.343 7.60438 109.194 7.24541C110.058 6.87314 110.982 6.68701 111.966 6.68701C112.95 6.68701 113.867 6.87314 114.718 7.24541C115.582 7.60438 116.333 8.11625 116.972 8.78101C117.623 9.43248 118.128 10.197 118.487 11.0744C118.846 11.9386 119.026 12.8759 119.026 13.8864C119.026 14.8968 118.846 15.8408 118.487 16.7183C118.128 17.5824 117.623 18.3469 116.972 19.0117C116.333 19.6632 115.582 20.175 114.718 20.5473C113.867 20.9063 112.95 21.0857 111.966 21.0857ZM111.966 18.9319C112.617 18.9319 113.222 18.8056 113.781 18.553C114.339 18.3004 114.824 17.9481 115.237 17.496C115.662 17.0307 115.988 16.4922 116.214 15.8807C116.453 15.2691 116.573 14.6043 116.573 13.8864C116.573 13.1684 116.453 12.5037 116.214 11.8921C115.988 11.2805 115.662 10.7487 115.237 10.2967C114.824 9.83133 114.339 9.47236 113.781 9.21975C113.222 8.96714 112.617 8.84084 111.966 8.84084C111.314 8.84084 110.71 8.96714 110.151 9.21975C109.593 9.47236 109.101 9.83133 108.675 10.2967C108.25 10.7487 107.918 11.2805 107.678 11.8921C107.452 12.5037 107.339 13.1684 107.339 13.8864C107.339 14.6043 107.452 15.2691 107.678 15.8807C107.918 16.4922 108.25 17.0307 108.675 17.496C109.101 17.9481 109.593 18.3004 110.151 18.553C110.71 18.8056 111.314 18.9319 111.966 18.9319Z" fill="#8C8C8C"/>
<path d="M124.42 20.8664V8.98044H119.753V6.90638H131.48V8.98044H126.813V20.8664H124.42Z" fill="#8C8C8C"/>
<path d="M133.548 20.8664V6.90638H135.941V12.7696H142.881V6.90638H145.274V20.8664H142.881V14.9035H135.941V20.8664H133.548Z" fill="#8C8C8C"/>
<path d="M148.527 20.8664V6.90638H158.518V8.94055H150.92V12.8294H156.225V14.8237H150.92V18.8322H158.598V20.8664H148.527Z" fill="#8C8C8C"/>
<path d="M161.302 20.8664V6.90638H167.505C168.422 6.90638 169.233 7.08587 169.938 7.44484C170.642 7.80381 171.188 8.30238 171.573 8.94055C171.972 9.56543 172.171 10.2967 172.171 11.1343C172.171 12.0383 171.919 12.8294 171.414 13.5075C170.922 14.1722 170.25 14.6575 169.399 14.9633L172.351 20.8664H169.698L167.006 15.2824H163.696V20.8664H161.302ZM163.696 13.3679H167.285C168.03 13.3679 168.628 13.1684 169.08 12.7696C169.532 12.3574 169.758 11.819 169.758 11.1542C169.758 10.4762 169.532 9.93769 169.08 9.53884C168.628 9.12669 168.03 8.92061 167.285 8.92061H163.696V13.3679Z" fill="#8C8C8C"/>
<path d="M174.702 20.8664V6.90638H177.035L184.314 17.0573L184.274 6.90638H186.528V20.8664H184.394L176.915 10.4363L176.955 20.8664H174.702Z" fill="#8C8C8C"/>
<path d="M90.2732 44.8663V30.9063H92.6664V36.7695H99.6065V30.9063H102V44.8663H99.6065V38.9034H92.6664V44.8663H90.2732Z" fill="#8C8C8C"/>
<path d="M109.241 44.8663V39.3621L103.697 30.9063H106.469L110.497 37.288L114.565 30.9063H117.178L111.634 39.3621V44.8663H109.241Z" fill="#8C8C8C"/>
<path d="M121.376 42.7923H124.148C124.985 42.7923 125.743 42.5795 126.421 42.1541C127.099 41.7154 127.638 41.1237 128.036 40.3792C128.435 39.6347 128.635 38.8037 128.635 37.8863C128.635 36.9557 128.435 36.1247 128.036 35.3935C127.638 34.6489 127.099 34.064 126.421 33.6385C125.743 33.1998 124.985 32.9804 124.148 32.9804H121.376V42.7923ZM118.982 44.8663V30.9063H124.088C125.098 30.9063 126.029 31.0858 126.88 31.4448C127.731 31.8038 128.469 32.3023 129.093 32.9405C129.732 33.5654 130.223 34.3033 130.569 35.1542C130.915 35.9918 131.088 36.9025 131.088 37.8863C131.088 38.8702 130.915 39.7875 130.569 40.6384C130.223 41.476 129.732 42.2139 129.093 42.8521C128.469 43.477 127.731 43.9689 126.88 44.3279C126.029 44.6868 125.098 44.8663 124.088 44.8663H118.982Z" fill="#8C8C8C"/>
<path d="M133.784 44.8663V30.9063H139.986C140.903 30.9063 141.714 31.0858 142.419 31.4448C143.124 31.8038 143.669 32.3023 144.054 32.9405C144.453 33.5654 144.653 34.2966 144.653 35.1342C144.653 36.0383 144.4 36.8294 143.895 37.5074C143.403 38.1722 142.731 38.6575 141.88 38.9632L144.832 44.8663H142.18L139.487 39.2823H136.177V44.8663H133.784ZM136.177 37.3678H139.767C140.511 37.3678 141.109 37.1684 141.561 36.7695C142.013 36.3574 142.239 35.8189 142.239 35.1542C142.239 34.4761 142.013 33.9377 141.561 33.5388C141.109 33.1266 140.511 32.9206 139.767 32.9206H136.177V37.3678Z" fill="#8C8C8C"/>
<path d="M153.604 45.0857C152.621 45.0857 151.697 44.9062 150.832 44.5472C149.981 44.175 149.23 43.6631 148.579 43.0116C147.941 42.3469 147.442 41.5824 147.083 40.7182C146.724 39.8407 146.545 38.8968 146.545 37.8863C146.545 36.8759 146.724 35.9386 147.083 35.0744C147.442 34.1969 147.941 33.4324 148.579 32.781C149.23 32.1162 149.981 31.6043 150.832 31.2454C151.697 30.8731 152.621 30.687 153.604 30.687C154.588 30.687 155.506 30.8731 156.357 31.2454C157.221 31.6043 157.972 32.1162 158.61 32.781C159.262 33.4324 159.767 34.1969 160.126 35.0744C160.485 35.9386 160.664 36.8759 160.664 37.8863C160.664 38.8968 160.485 39.8407 160.126 40.7182C159.767 41.5824 159.262 42.3469 158.61 43.0116C157.972 43.6631 157.221 44.175 156.357 44.5472C155.506 44.9062 154.588 45.0857 153.604 45.0857ZM153.604 42.9319C154.256 42.9319 154.861 42.8056 155.419 42.553C155.978 42.3003 156.463 41.948 156.875 41.496C157.3 41.0307 157.626 40.4922 157.852 39.8806C158.092 39.269 158.211 38.6043 158.211 37.8863C158.211 37.1684 158.092 36.5036 157.852 35.892C157.626 35.2805 157.3 34.7487 156.875 34.2966C156.463 33.8313 155.978 33.4723 155.419 33.2197C154.861 32.9671 154.256 32.8408 153.604 32.8408C152.953 32.8408 152.348 32.9671 151.79 33.2197C151.231 33.4723 150.739 33.8313 150.314 34.2966C149.888 34.7487 149.556 35.2805 149.317 35.892C149.091 36.5036 148.978 37.1684 148.978 37.8863C148.978 38.6043 149.091 39.269 149.317 39.8806C149.556 40.4922 149.888 41.0307 150.314 41.496C150.739 41.948 151.231 42.3003 151.79 42.553C152.348 42.8056 152.953 42.9319 153.604 42.9319Z" fill="#8C8C8C"/>
<path d="M96.9341 69.0856C95.9237 69.0856 94.9797 68.9062 94.1022 68.5472C93.2248 68.1749 92.4536 67.6631 91.7889 67.0116C91.1374 66.3468 90.6255 65.5824 90.2533 64.7182C89.8943 63.8407 89.7148 62.8967 89.7148 61.8863C89.7148 60.8759 89.8943 59.9385 90.2533 59.0743C90.6255 58.1969 91.1374 57.4324 91.7889 56.7809C92.4536 56.1162 93.2248 55.6043 94.1022 55.2453C94.9797 54.8731 95.9237 54.6869 96.9341 54.6869C97.6521 54.6869 98.3434 54.7866 99.0082 54.9861C99.673 55.1855 100.291 55.4713 100.863 55.8436C101.448 56.2026 101.953 56.648 102.379 57.1798L100.783 58.7353C100.291 58.1104 99.7128 57.6385 99.0481 57.3194C98.3833 57.0003 97.6787 56.8407 96.9341 56.8407C96.2561 56.8407 95.6246 56.9671 95.0396 57.2197C94.4679 57.4723 93.9626 57.8312 93.5239 58.2966C93.0985 58.7486 92.7661 59.2804 92.5268 59.892C92.2874 60.5036 92.1678 61.1683 92.1678 61.8863C92.1678 62.6042 92.2874 63.269 92.5268 63.8806C92.7661 64.4921 93.0985 65.0306 93.5239 65.4959C93.9626 65.948 94.4679 66.3003 95.0396 66.5529C95.6246 66.8055 96.2561 66.9318 96.9341 66.9318C97.6787 66.9318 98.3833 66.7723 99.0481 66.4532C99.7128 66.1208 100.291 65.6488 100.783 65.0373L102.379 66.5928C101.953 67.1113 101.448 67.5567 100.863 67.929C100.291 68.3012 99.673 68.5871 99.0082 68.7865C98.3434 68.9859 97.6521 69.0856 96.9341 69.0856Z" fill="#8C8C8C"/>
<path d="M103.229 68.8663L108.714 54.9063H111.486L116.89 68.8663H114.317L112.882 64.9575H107.158L105.722 68.8663H103.229ZM107.856 63.0829H112.223L110.03 57.1798L107.856 63.0829Z" fill="#8C8C8C"/>
<path d="M118.69 68.8663V54.9063H124.892C125.81 54.9063 126.621 55.0858 127.325 55.4447C128.03 55.8037 128.575 56.3023 128.961 56.9405C129.36 57.5653 129.559 58.2966 129.559 59.1342C129.559 60.0382 129.306 60.8293 128.801 61.5074C128.309 62.1721 127.638 62.6574 126.787 62.9632L129.739 68.8663H127.086L124.394 63.2823H121.083V68.8663H118.69ZM121.083 61.3678H124.673C125.418 61.3678 126.016 61.1683 126.468 60.7695C126.92 60.3573 127.146 59.8189 127.146 59.1541C127.146 58.4761 126.92 57.9376 126.468 57.5387C126.016 57.1266 125.418 56.9205 124.673 56.9205H121.083V61.3678Z" fill="#8C8C8C"/>
<path d="M132.089 68.8663V54.9063H142.081V56.9405H134.482V60.8293H139.787V62.8236H134.482V66.8321H142.16V68.8663H132.089Z" fill="#8C8C8C"/>
<path d="M153.892 73.2936C152.841 72.6421 151.957 71.8511 151.239 70.9204C150.521 69.9897 149.976 68.9394 149.604 67.7694C149.232 66.5994 149.045 65.3364 149.045 63.9803C149.045 62.6242 149.232 61.3611 149.604 60.1911C149.976 59.0212 150.521 57.9708 151.239 57.0402C151.957 56.1095 152.841 55.3184 153.892 54.667L155.068 56.1228C153.792 56.9471 152.808 58.0373 152.117 59.3934C151.425 60.7362 151.08 62.2652 151.08 63.9803C151.08 65.6954 151.425 67.231 152.117 68.5871C152.808 69.9432 153.792 71.0334 155.068 71.8577L153.892 73.2936Z" fill="#8C8C8C"/>
<path d="M157.602 68.8663V54.9063H163.844C164.788 54.9063 165.606 55.0924 166.297 55.4647C167.002 55.8237 167.547 56.3289 167.933 56.9804C168.318 57.6318 168.511 58.3896 168.511 59.2538C168.511 60.0781 168.318 60.816 167.933 61.4675C167.547 62.119 167.002 62.6308 166.297 63.0031C165.606 63.3621 164.788 63.5415 163.844 63.5415H159.995V68.8663H157.602ZM159.995 61.5871H163.465C164.316 61.5871 164.968 61.3744 165.42 60.949C165.872 60.5102 166.098 59.9385 166.098 59.2339C166.098 58.5425 165.872 57.9841 165.42 57.5587C164.968 57.1332 164.323 56.9205 163.485 56.9205H159.995V61.5871Z" fill="#8C8C8C"/>
<path d="M174.714 68.8663L169.29 54.9063H171.863L176.15 66.4333L180.478 54.9063H182.951L177.486 68.8663H174.714Z" fill="#8C8C8C"/>
<path d="M188.533 68.8663V56.9804H183.866V54.9063H195.593V56.9804H190.926V68.8663H188.533Z" fill="#8C8C8C"/>
<path d="M198.217 54.6869C199.267 55.3384 200.151 56.1295 200.869 57.0601C201.587 57.9908 202.132 59.0411 202.505 60.2111C202.877 61.3811 203.063 62.6441 203.063 64.0002C203.063 65.3563 202.877 66.6194 202.505 67.7894C202.132 68.9593 201.587 70.0097 200.869 70.9403C200.151 71.871 199.267 72.6621 198.217 73.3135L197.04 71.8577C198.317 71.0334 199.3 69.9498 199.992 68.607C200.683 67.2509 201.029 65.7153 201.029 64.0002C201.029 62.2851 200.683 60.7495 199.992 59.3934C199.3 58.0373 198.317 56.9471 197.04 56.1228L198.217 54.6869Z" fill="#8C8C8C"/>
<path d="M210.595 68.8663V54.9063H212.988V66.7922H220.427V68.8663H210.595Z" fill="#8C8C8C"/>
<path d="M224.017 68.8663V56.9804H219.351V54.9063H231.077V56.9804H226.41V68.8663H224.017Z" fill="#8C8C8C"/>
<path d="M235.638 66.7922H238.41C239.248 66.7922 240.005 66.5795 240.683 66.1541C241.362 65.7153 241.9 65.1237 242.299 64.3791C242.698 63.6346 242.897 62.8037 242.897 61.8863C242.897 60.9556 242.698 60.1247 242.299 59.3934C241.9 58.6489 241.362 58.0639 240.683 57.6385C240.005 57.1997 239.248 56.9804 238.41 56.9804H235.638V66.7922ZM233.245 68.8663V54.9063H238.35C239.361 54.9063 240.291 55.0858 241.142 55.4447C241.993 55.8037 242.731 56.3023 243.356 56.9405C243.994 57.5653 244.486 58.3032 244.832 59.1541C245.177 59.9917 245.35 60.9024 245.35 61.8863C245.35 62.8701 245.177 63.7875 244.832 64.6384C244.486 65.476 243.994 66.2139 243.356 66.8521C242.731 67.4769 241.993 67.9689 241.142 68.3278C240.291 68.6868 239.361 68.8663 238.35 68.8663H233.245Z" fill="#8C8C8C"/>
</svg>
