<svg width="20" height="20" viewBox="0 0 20 20" fill="none" xmlns="http://www.w3.org/2000/svg">
<path d="M12.01 7.26625L10.318 1.85161C10.2205 1.53973 9.7791 1.53973 9.68164 1.85161L7.98956 7.26625C7.94607 7.40541 7.81719 7.50016 7.6714 7.50016H1.81317C1.49489 7.50016 1.35765 7.90364 1.60993 8.0977L6.06553 11.5251C6.17624 11.6102 6.22212 11.7554 6.18046 11.8887L4.46268 17.3856C4.36734 17.6907 4.71449 17.942 4.97459 17.7563L9.80605 14.3052C9.92195 14.2224 10.0776 14.2224 10.1935 14.3052L15.025 17.7563C15.2851 17.942 15.6323 17.6907 15.5369 17.3856L13.8191 11.8887C13.7775 11.7554 13.8234 11.6102 13.9341 11.5251L18.3897 8.0977C18.6419 7.90364 18.5047 7.50016 18.1864 7.50016H12.3282C12.1824 7.50016 12.0535 7.40541 12.01 7.26625Z" fill="#111111" stroke="#111111"/>
</svg>
